{
.appVersion = "895";
DisplayStrings = (
"ADHESION\012adhesion"
);
copyright = "Copyright © 2013 by Andrew Paglinawan. All rights reserved.";
customParameters = (
{
name = description;
value = "Copyright © 2013 by Andrew Paglinawan. All rights reserved.";
},
{
name = licenseURL;
value = "http://scripts.sil.org/OFL_web";
},
{
name = vendorID;
value = "AP  ";
},
{
name = panose;
value = (
0,
0,
4,
0,
0,
0,
0,
0,
0,
0
);
},
{
name = unicodeRanges;
value = (
0,
1,
2
);
},
{
name = codePageRanges;
value = (
1252,
1250,
1254,
1257
);
},
{
name = glyphOrder;
value = (
.notdef,
A,
Aacute,
Abreve,
Acircumflex,
Adieresis,
Agrave,
Amacron,
Aogonek,
Aring,
Atilde,
AE,
B,
C,
Cacute,
Ccaron,
Ccedilla,
Cdotaccent,
D,
Eth,
Dcaron,
Dcroat,
E,
Eacute,
Ecaron,
Ecircumflex,
Edieresis,
Edotaccent,
Egrave,
Emacron,
Eogonek,
F,
G,
Gbreve,
Gcommaaccent,
Gdotaccent,
H,
Hbar,
I,
IJ,
Iacute,
Icircumflex,
Idieresis,
Idotaccent,
Igrave,
Imacron,
Iogonek,
J,
K,
Kcommaaccent,
L,
Lacute,
Lcaron,
Lcommaaccent,
Ldot,
Lslash,
M,
N,
Nacute,
Ncaron,
Ncommaaccent,
Eng,
Ntilde,
O,
Oacute,
Ocircumflex,
Odieresis,
Ograve,
Ohungarumlaut,
Omacron,
Oslash,
Otilde,
OE,
P,
Thorn,
Q,
R,
Racute,
Rcaron,
Rcommaaccent,
S,
Sacute,
Scaron,
Scedilla,
Scommaaccent,
T,
Tbar,
Tcaron,
Tcedilla,
uni021A,
U,
Uacute,
Ucircumflex,
Udieresis,
Ugrave,
Uhungarumlaut,
Umacron,
Uogonek,
Uring,
V,
W,
Wacute,
Wcircumflex,
Wdieresis,
Wgrave,
X,
Y,
Yacute,
Ycircumflex,
Ydieresis,
Ygrave,
Z,
Zacute,
Zcaron,
Zdotaccent,
A.ss01,
E.ss01,
M.ss01,
N.ss01,
Q.ss01,
R.ss01,
U.ss01,
W.ss01,
a,
aacute,
abreve,
acircumflex,
adieresis,
agrave,
amacron,
aogonek,
aring,
atilde,
ae,
b,
c,
cacute,
ccaron,
ccedilla,
cdotaccent,
d,
eth,
dcaron,
dcroat,
e,
eacute,
ecaron,
ecircumflex,
edieresis,
edotaccent,
egrave,
emacron,
eogonek,
f,
g,
gbreve,
gcommaaccent,
gdotaccent,
h,
hbar,
i,
dotlessi,
iacute,
icircumflex,
idieresis,
i.loclTRK,
igrave,
ij,
imacron,
iogonek,
j,
dotlessj,
k,
kcommaaccent,
l,
lacute,
lcaron,
lcommaaccent,
ldot,
lslash,
m,
n,

glyphs = (
{
glyphname = .notdef;
lastChange = "2016-06-29 14:38:00 +0000";
layers = (
{
layerId = "254266E2-2911-423D-9D37-8CC6105656EE";
paths = (
{
closed = 1;
nodes = (
"40 35 LINE SMOOTH",
"40 12 OFFCURVE",
"52 0 OFFCURVE",
"75 0 CURVE SMOOTH",
"509 0 LINE SMOOTH",
"532 0 OFFCURVE",
"544 12 OFFCURVE",
"544 35 CURVE SMOOTH",
"544 665 LINE SMOOTH",
"544 688 OFFCURVE",
"532 700 OFFCURVE",
"509 700 CURVE SMOOTH",
"75 700 LINE SMOOTH",
"52 700 OFFCURVE",
"40 688 OFFCURVE",
"40 665 CURVE SMOOTH"
);
},
{
closed = 1;
nodes = (
"509 670 LINE SMOOTH",
"512 670 OFFCURVE",
"514 668 OFFCURVE",
"514 665 CURVE SMOOTH",
"514 67 LINE SMOOTH",
"514 62 OFFCURVE",
"511 61 OFFCURVE",
"508 65 CURVE",
"92 664 LINE SMOOTH",
"90 667 OFFCURVE",
"91 670 OFFCURVE",
"95 670 CURVE SMOOTH"
);
},
{
closed = 1;
nodes = (
"70 633 LINE SMOOTH",
"70 638 OFFCURVE",
"73 639 OFFCURVE",
"76 635 CURVE",
"491 36 LINE SMOOTH",
"493 33 OFFCURVE",
"492 30 OFFCURVE",
"488 30 CURVE SMOOTH",
"75 30 LINE SMOOTH",
"72 30 OFFCURVE",
"70 32 OFFCURVE",
"70 35 CURVE SMOOTH"
);
}
);
width = 584;
},
{
layerId = "8816CCA3-DDF9-4C51-BD56-64EE3675A105";
paths = (
{
closed = 1;
nodes = (
"40 35 LINE SMOOTH",
"40 12 OFFCURVE",
"52 0 OFFCURVE",
"75 0 CURVE SMOOTH",
"509 0 LINE SMOOTH",
"532 0 OFFCURVE",
"544 12 OFFCURVE",
"544 35 CURVE SMOOTH",
"544 665 LINE SMOOTH",
"544 688 OFFCURVE",
"532 700 OFFCURVE",
"509 700 CURVE SMOOTH",
"75 700 LINE SMOOTH",
"52 700 OFFCURVE",
"40 688 OFFCURVE",
"40 665 CURVE SMOOTH"
);
},
{
closed = 1;
nodes = (
"509 670 LINE SMOOTH",
"512 670 OFFCURVE",
"514 668 OFFCURVE",
"514 665 CURVE SMOOTH",
"514 67 LINE SMOOTH",
"514 62 OFFCURVE",
"511 61 OFFCURVE",
"508 65 CURVE",
"92 664 LINE SMOOTH",
"90 667 OFFCURVE",
"91 670 OFFCURVE",
"95 670 CURVE SMOOTH"
);
},
{
closed = 1;
nodes = (
"70 633 LINE SMOOTH",
"70 638 OFFCURVE",
"73 639 OFFCURVE",
"76 635 CURVE",
"491 36 LINE SMOOTH",
"493 33 OFFCURVE",
"492 30 OFFCURVE",
"488 30 CURVE SMOOTH",
"75 30 LINE SMOOTH",
"72 30 OFFCURVE",
"70 32 OFFCURVE",
"70 35 CURVE SMOOTH"
);
}
);
width = 584;
}
);
note = .notdef;
},
{
glyphname = A;
lastChange = "2016-06-29 15:29:46 +0000";
layers = (
{
layerId = "254266E2-2911-423D-9D37-8CC6105656EE";
paths = (
{
closed = 1;
nodes = (
"537 2 OFFCURVE",
"549 -3 OFFCURVE",
"561 1 CURVE",
"572 5 OFFCURVE",
"577 16 OFFCURVE",
"573 27 CURVE",
"314 689 LINE",
"311 698 OFFCURVE",
"303 703 OFFCURVE",
"294 702 CURVE",
"286 703 OFFCURVE",
"278 698 OFFCURVE",
"275 689 CURVE",
"16 27 LINE",
"12 16 OFFCURVE",
"17 5 OFFCURVE",
"28 1 CURVE",
"39 -3 OFFCURVE",
"50 2 OFFCURVE",
"54 13 CURVE",
"298 655 LINE",
"283 663 LINE",
"533 13 LINE"
);
},
{
closed = 1;
nodes = (
"126 256 OFFCURVE",
"112 217 OFFCURVE",
"112 217 CURVE",
"460 217 LINE",
"450 257 LINE",
"126 257 LINE"
);
}
);
width = 589;
},
{
layerId = "8816CCA3-DDF9-4C51-BD56-64EE3675A105";
paths = (
{
closed = 1;
nodes = (
"284 531 LINE",
"478 37 LINE",
"491 4 OFFCURVE",
"522 -12 OFFCURVE",
"554 0 CURVE",
"587 13 OFFCURVE",
"602 46 OFFCURVE",
"589 79 CURVE",
"359 664 LINE",
"348 689 OFFCURVE",
"327 704 OFFCURVE",
"303 704 CURVE",
"277 706 OFFCURVE",
"253 691 OFFCURVE",
"243 664 CURVE",
"15 79 LINE",
"4 46 OFFCURVE",
"17 13 OFFCURVE",
"44 1 CURVE",
"75 -11 OFFCURVE",
"106 4 OFFCURVE",
"118 37 CURVE",
"313 537 LINE"
);
},
{
closed = 1;
nodes = (
"482 157 OFFCURVE",
"464 275 OFFCURVE",
"463 277 CURVE",
"193 277 LINE",
"162 157 LINE",
"482 157 LINE"
);
}
);
width = 604;
}
);
leftKerningGroup = A;
note = A;
rightKerningGroup = A;
unicode = 0041;
},
{
glyphname = Aacute;
lastChange = "2016-06-29 14:38:00 +0000";
layers = (
{
layerId = "254266E2-2911-423D-9D37-8CC6105656EE";
paths = (
{
closed = 1;
nodes = (
"282 780 LINE SMOOTH",
"292 780 OFFCURVE",
"299 783 OFFCURVE",
"306 790 CURVE SMOOTH",
"385 866 LINE SMOOTH",
"396 876 OFFCURVE",
"394 887 OFFCURVE",
"381 894 CURVE SMOOTH",
"359 905 LINE",
"348 910 OFFCURVE",
"339 908 OFFCURVE",
"332 897 CURVE SMOOTH",
"270 804 LINE SMOOTH",
"261 791 OFFCURVE",
"263 780 OFFCURVE",
"275 780 CURVE SMOOTH"
);
},
{
closed = 1;
nodes = (
"299 689 LINE",
"296 698 OFFCURVE",
"288 703 OFFCURVE",
"279 702 CURVE",
"271 703 OFFCURVE",
"263 698 OFFCURVE",
"260 689 CURVE",
"11 27 LINE SMOOTH",
"7 16 OFFCURVE",
"12 5 OFFCURVE",
"23 1 CURVE SMOOTH",
"34 -3 OFFCURVE",
"45 2 OFFCURVE",
"49 13 CURVE SMOOTH",
"111 177 LINE",
"448 177 LINE",
"510 13 LINE SMOOTH",
"514 2 OFFCURVE",
"525 -3 OFFCURVE",
"536 1 CURVE SMOOTH",
"547 5 OFFCURVE",
"552 16 OFFCURVE",
"548 27 CURVE SMOOTH"
);
},
{
closed = 1;
nodes = (
"279 626 LINE",
"433 217 LINE",
"126 217 LINE"
);
}
);
width = 581;
},
{
layerId = "8816CCA3-DDF9-4C51-BD56-64EE3675A105";
paths = (
{
closed = 1;
nodes = (
"284 840 LINE SMOOTH",
"262 806 OFFCURVE",
"270 780 OFFCURVE",
"303 780 CURVE SMOOTH",
"329 780 OFFCURVE",
"346 787 OFFCURVE",
"365 805 CURVE SMOOTH",
"415 852 LINE SMOOTH",
"443 878 OFFCURVE",
"438 905 OFFCURVE",
"403 921 CURVE",
"393 925 LINE",
"365 938 OFFCURVE",
"343 931 OFFCURVE",
"326 905 CURVE SMOOTH"
);
},
{
closed = 1;
nodes = (
"359 664 LINE",
"348 689 OFFCURVE",
"327 704 OFFCURVE",
"303 704 CURVE",
"277 706 OFFCURVE",
"253 691 OFFCURVE",
"243 664 CURVE SMOOTH",
"15 79 LINE SMOOTH",
"2 46 OFFCURVE",
"17 13 OFFCURVE",
"49 1 CURVE SMOOTH",
"82 -11 OFFCURVE",
"115 4 OFFCURVE",
"128 37 CURVE SMOOTH",
"171 149 LINE SMOOTH",
"173 154 OFFCURVE",
"177 157 OFFCURVE",
"182 157 CURVE SMOOTH",
"422 157 LINE SMOOTH",
"427 157 OFFCURVE",
"431 155 OFFCURVE",
"433 149 CURVE",
"478 37 LINE SMOOTH",
"491 4 OFFCURVE",
"522 -12 OFFCURVE",
"554 0 CURVE SMOOTH",
"587 13 OFFCURVE",
"602 46 OFFCURVE",
"589 79 CURVE SMOOTH"
);
},
{
closed = 1;
nodes = (
"233 277 LINE SMOOTH",
"226 277 OFFCURVE",
"223 282 OFFCURVE",
"226 289 CURVE",
"295 467 LINE",
"299 476 OFFCURVE",
"305 476 OFFCURVE",
"309 467 CURVE",
"378 289 LINE",
"381 282 OFFCURVE",
"378 277 OFFCURVE",
"371 277 CURVE SMOOTH"
);
}
);
width = 604;
}
);
note = Aacute;
unicode = 00C1;
},
{
glyphname = Abreve;
lastChange = "2016-06-29 14:38:00 +0000";
layers = (
{
layerId = "254266E2-2911-423D-9D37-8CC6105656EE";
paths = (
{
closed = 1;
nodes = (
"392 904 LINE SMOOTH",
"381 904 OFFCURVE",
"374 899 OFFCURVE",
"370 888 CURVE",
"355 852 OFFCURVE",
"326 831 OFFCURVE",
"281 831 CURVE SMOOTH",
"236 831 OFFCURVE",
"207 852 OFFCURVE",
"192 888 CURVE",
"188 899 OFFCURVE",
"181 904 OFFCURVE",
"170 904 CURVE SMOOTH",
"168 904 LINE SMOOTH",
"155 904 OFFCURVE",
"148 896 OFFCURVE",
"151 883 CURVE",
"163 818 OFFCURVE",
"214 780 OFFCURVE",
"281 780 CURVE SMOOTH",
"348 780 OFFCURVE",
"399 818 OFFCURVE",
"411 883 CURVE",
"414 896 OFFCURVE",
"407 904 OFFCURVE",
"395 904 CURVE SMOOTH"
);
},
{
closed = 1;
nodes = (
"299 689 LINE",
"296 698 OFFCURVE",
"288 703 OFFCURVE",
"279 702 CURVE",
"271 703 OFFCURVE",
"263 698 OFFCURVE",
"260 689 CURVE",
"11 27 LINE SMOOTH",
"7 16 OFFCURVE",
"12 5 OFFCURVE",
"23 1 CURVE SMOOTH",
"34 -3 OFFCURVE",
"45 2 OFFCURVE",
"49 13 CURVE SMOOTH",
"111 177 LINE",
"448 177 LINE",
"510 13 LINE SMOOTH",
"514 2 OFFCURVE",
"525 -3 OFFCURVE",
"536 1 CURVE SMOOTH",
"547 5 OFFCURVE",
"552 16 OFFCURVE",
"548 27 CURVE SMOOTH"
);
},
{
closed = 1;
nodes = (
"279 626 LINE",
"433 217 LINE",
"126 217 LINE"
);
}
);
width = 559;
},
{
layerId = "8816CCA3-DDF9-4C51-BD56-64EE3675A105";
paths = (
{
closed = 1;
nodes = (
"379 780 OFFCURVE",
"437 814 OFFCURVE",
"462 875 CURVE SMOOTH",
"475 907 OFFCURVE",
"458 928 OFFCURVE",
"432 928 CURVE SMOOTH",
"404 928 OFFCURVE",
"390 915 OFFCURVE",
"372 892 CURVE",
"357 875 OFFCURVE",
"336 865 OFFCURVE",
"303 865 CURVE SMOOTH",
"270 865 OFFCURVE",
"249 875 OFFCURVE",
"234 892 CURVE",
"216 915 OFFCURVE",
"202 928 OFFCURVE",
"174 928 CURVE SMOOTH",
"148 928 OFFCURVE",
"131 906 OFFCURVE",
"145 873 CURVE SMOOTH",
"169 813 OFFCURVE",
"228 780 OFFCURVE",
"303 780 CURVE SMOOTH"
);
},
{
closed = 1;
nodes = (
"359 664 LINE",
"348 689 OFFCURVE",
"327 704 OFFCURVE",
"303 704 CURVE",
"277 706 OFFCURVE",
"253 691 OFFCURVE",
"243 664 CURVE SMOOTH",
"15 79 LINE SMOOTH",
"2 46 OFFCURVE",
"17 13 OFFCURVE",
"49 1 CURVE SMOOTH",
"82 -11 OFFCURVE",
"115 4 OFFCURVE",
"128 37 CURVE SMOOTH",
"171 149 LINE SMOOTH",
"173 154 OFFCURVE",
"177 157 OFFCURVE",
"182 157 CURVE SMOOTH",
"422 157 LINE SMOOTH",
"427 157 OFFCURVE",
"431 155 OFFCURVE",
"433 149 CURVE",
"478 37 LINE SMOOTH",
"491 4 OFFCURVE",
"522 -12 OFFCURVE",
"554 0 CURVE SMOOTH",
"587 13 OFFCURVE",
"602 46 OFFCURVE",
"589 79 CURVE SMOOTH"
);
},
{
closed = 1;
nodes = (
"233 277 LINE SMOOTH",
"226 277 OFFCURVE",
"223 282 OFFCURVE",
"226 289 CURVE",
"295 467 LINE",
"299 476 OFFCURVE",
"305 476 OFFCURVE",
"309 467 CURVE",
"378 289 LINE",
"381 282 OFFCURVE",
"378 277 OFFCURVE",
"371 277 CURVE SMOOTH"
);
}
);
width = 604;
}
);
note = Abreve;
unicode = 0102;
},
{
glyphname = Acircumflex;
lastChange = "2016-06-29 14:38:00 +0000";
layers = (
{
layerId = "254266E2-2911-423D-9D37-8CC6105656EE";
paths = (
{
closed = 1;
nodes = (
"265 835 LINE",
"274 844 OFFCURVE",
"284 844 OFFCURVE",
"293 835 CURVE",
"343 790 LINE",
"350 783 OFFCURVE",
"357 780 OFFCURVE",
"367 780 CURVE SMOOTH",
"377 780 LINE SMOOTH",
"389 780 OFFCURVE",
"391 791 OFFCURVE",
"380 805 CURVE SMOOTH",
"309 890 LINE",
"303 899 OFFCURVE",
"296 902 OFFCURVE",
"285 902 CURVE SMOOTH",
"275 902 LINE SMOOTH",
"264 902 OFFCURVE",
"257 899 OFFCURVE",
"251 890 CURVE",
"180 804 LINE SMOOTH",
"169 791 OFFCURVE",
"174 780 OFFCURVE",
"191 780 CURVE SMOOTH",
"201 780 OFFCURVE",
"208 783 OFFCURVE",
"215 790 CURVE"
);
},
{
closed = 1;
nodes = (
"299 689 LINE",
"296 698 OFFCURVE",
"288 703 OFFCURVE",
"279 702 CURVE",
"271 703 OFFCURVE",
"263 698 OFFCURVE",
"260 689 CURVE",
"11 27 LINE SMOOTH",
"7 16 OFFCURVE",
"12 5 OFFCURVE",
"23 1 CURVE SMOOTH",
"34 -3 OFFCURVE",
"45 2 OFFCURVE",
"49 13 CURVE SMOOTH",
"111 177 LINE",
"448 177 LINE",
"510 13 LINE SMOOTH",
"514 2 OFFCURVE",
"525 -3 OFFCURVE",
"536 1 CURVE SMOOTH",
"547 5 OFFCURVE",
"552 16 OFFCURVE",
"548 27 CURVE SMOOTH"
);
},
{
closed = 1;
nodes = (
"279 626 LINE",
"433 217 LINE",
"126 217 LINE"
);
}
);
width = 559;
},
{
layerId = "8816CCA3-DDF9-4C51-BD56-64EE3675A105";
paths = (
{
closed = 1;
nodes = (
"179 841 LINE SMOOTH",
"152 808 OFFCURVE",
"157 780 OFFCURVE",
"189 780 CURVE SMOOTH",
"214 780 OFFCURVE",
"232 787 OFFCURVE",
"251 803 CURVE SMOOTH",
"266 816 LINE SMOOTH",
"289 837 OFFCURVE",
"313 837 OFFCURVE",
"336 816 CURVE SMOOTH",
"351 803 LINE SMOOTH",
"370 787 OFFCURVE",
"388 780 OFFCURVE",
"413 780 CURVE SMOOTH",
"426 780 LINE SMOOTH",
"452 780 OFFCURVE",
"452 808 OFFCURVE",
"425 841 CURVE SMOOTH",
"381 897 LINE SMOOTH",
"365 917 OFFCURVE",
"347 926 OFFCURVE",
"320 926 CURVE SMOOTH",
"284 926 LINE SMOOTH",
"257 926 OFFCURVE",
"239 917 OFFCURVE",
"223 897 CURVE SMOOTH"
);
},
{
closed = 1;
nodes = (
"359 664 LINE",
"348 689 OFFCURVE",
"327 704 OFFCURVE",
"303 704 CURVE",
"277 706 OFFCURVE",
"253 691 OFFCURVE",
"243 664 CURVE SMOOTH",
"15 79 LINE SMOOTH",
"2 46 OFFCURVE",
"17 13 OFFCURVE",
"49 1 CURVE SMOOTH",
"82 -11 OFFCURVE",
"115 4 OFFCURVE",
"128 37 CURVE SMOOTH",
"171 149 LINE SMOOTH",
"173 154 OFFCURVE",
"177 157 OFFCURVE",
"182 157 CURVE SMOOTH",
"422 157 LINE SMOOTH",
"427 157 OFFCURVE",
"431 155 OFFCURVE",
"433 149 CURVE",
"478 37 LINE SMOOTH",
"491 4 OFFCURVE",
"522 -12 OFFCURVE",
"554 0 CURVE SMOOTH",
"587 13 OFFCURVE",
"602 46 OFFCURVE",
"589 79 CURVE SMOOTH"
);
},
{
closed = 1;
nodes = (
"233 277 LINE SMOOTH",
"226 277 OFFCURVE",
"223 282 OFFCURVE",
"226 289 CURVE",
"295 467 LINE",
"299 476 OFFCURVE",
"305 476 OFFCURVE",
"309 467 CURVE",
"378 289 LINE",
"381 282 OFFCURVE",
"378 277 OFFCURVE",
"371 277 CURVE SMOOTH"
);
}
);
width = 604;
}
);
note = Acircumflex;
unicode = 00C2;
},
{
glyphname = Adieresis;
lastChange = "2016-06-29 14:38:00 +0000";
layers = (
{
layerId = "254266E2-2911-423D-9D37-8CC6105656EE";
paths = (
{
closed = 1;
nodes = (
"220 780 OFFCURVE",
"234 795 OFFCURVE",
"234 816 CURVE SMOOTH",
"234 824 LINE SMOOTH",
"234 845 OFFCURVE",
"220 860 OFFCURVE",
"201 860 CURVE SMOOTH",
"180 860 OFFCURVE",
"165 845 OFFCURVE",
"165 824 CURVE SMOOTH",
"165 816 LINE SMOOTH",
"165 795 OFFCURVE",
"179 780 OFFCURVE",
"200 780 CURVE SMOOTH"
);
},
{
closed = 1;
nodes = (
"383 780 OFFCURVE",
"397 795 OFFCURVE",
"397 816 CURVE SMOOTH",
"397 824 LINE SMOOTH",
"397 845 OFFCURVE",
"383 860 OFFCURVE",
"364 860 CURVE SMOOTH",
"343 860 OFFCURVE",
"328 845 OFFCURVE",
"328 824 CURVE SMOOTH",
"328 816 LINE SMOOTH",
"328 795 OFFCURVE",
"342 780 OFFCURVE",
"363 780 CURVE SMOOTH"
);
},
{
closed = 1;
nodes = (
"299 689 LINE",
"296 698 OFFCURVE",
"288 703 OFFCURVE",
"279 702 CURVE",
"271 703 OFFCURVE",
"263 698 OFFCURVE",
"260 689 CURVE",
"11 27 LINE SMOOTH",
"7 16 OFFCURVE",
"12 5 OFFCURVE",
"23 1 CURVE SMOOTH",
"34 -3 OFFCURVE",
"45 2 OFFCURVE",
"49 13 CURVE SMOOTH",
"111 177 LINE",
"448 177 LINE",
"510 13 LINE SMOOTH",
"514 2 OFFCURVE",
"525 -3 OFFCURVE",
"536 1 CURVE SMOOTH",
"547 5 OFFCURVE",
"552 16 OFFCURVE",
"548 27 CURVE SMOOTH"
);
},
{
closed = 1;
nodes = (
"279 626 LINE",
"433 217 LINE",
"126 217 LINE"
);
}
);
width = 559;
},
{
layerId = "8816CCA3-DDF9-4C51-BD56-64EE3675A105";
paths = (
{
closed = 1;
nodes = (
"142 830 LINE SMOOTH",
"142 797 OFFCURVE",
"160 780 OFFCURVE",
"192 780 CURVE SMOOTH",
"215 780 LINE SMOOTH",
"248 780 OFFCURVE",
"265 797 OFFCURVE",
"265 830 CURVE SMOOTH",
"265 848 LINE SMOOTH",
"265 881 OFFCURVE",
"247 898 OFFCURVE",
"215 898 CURVE SMOOTH",
"192 898 LINE SMOOTH",
"160 898 OFFCURVE",
"142 880 OFFCURVE",
"142 848 CURVE SMOOTH"
);
},
{
closed = 1;
nodes = (
"341 830 LINE SMOOTH",
"341 797 OFFCURVE",
"359 780 OFFCURVE",
"391 780 CURVE SMOOTH",
"414 780 LINE SMOOTH",
"447 780 OFFCURVE",
"464 797 OFFCURVE",
"464 830 CURVE SMOOTH",
"464 848 LINE SMOOTH",
"464 881 OFFCURVE",
"446 898 OFFCURVE",
"414 898 CURVE SMOOTH",
"391 898 LINE SMOOTH",
"359 898 OFFCURVE",
"341 880 OFFCURVE",
"341 848 CURVE SMOOTH"
);
},
{
closed = 1;
nodes = (
"359 664 LINE",
"348 689 OFFCURVE",
"327 704 OFFCURVE",
"303 704 CURVE",
"277 706 OFFCURVE",
"253 691 OFFCURVE",
"243 664 CURVE SMOOTH",
"15 79 LINE SMOOTH",
"2 46 OFFCURVE",
"17 13 OFFCURVE",
"49 1 CURVE SMOOTH",
"82 -11 OFFCURVE",
"115 4 OFFCURVE",
"128 37 CURVE SMOOTH",
"171 149 LINE SMOOTH",
"173 154 OFFCURVE",
"177 157 OFFCURVE",
"182 157 CURVE SMOOTH",
"422 157 LINE SMOOTH",
"427 157 OFFCURVE",
"431 155 OFFCURVE",
"433 149 CURVE",
"478 37 LINE SMOOTH",
"491 4 OFFCURVE",
"522 -12 OFFCURVE",
"554 0 CURVE SMOOTH",
"587 13 OFFCURVE",
"602 46 OFFCURVE",
"589 79 CURVE SMOOTH"
);
},
{
closed = 1;
nodes = (
"233 277 LINE SMOOTH",
"226 277 OFFCURVE",
"223 282 OFFCURVE",
"226 289 CURVE",
"295 467 LINE",
"299 476 OFFCURVE",
"305 476 OFFCURVE",
"309 467 CURVE",
"378 289 LINE",
"381 282 OFFCURVE",
"378 277 OFFCURVE",
"371 277 CURVE SMOOTH"
);
}
);
width = 604;
}
);
note = Adieresis;
unicode = 00C4;
},
{
glyphname = Agrave;
lastChange = "2016-06-29 14:38:00 +0000";
layers = (
{
layerId = "254266E2-2911-423D-9D37-8CC6105656EE";
paths = (
{
closed = 1;
nodes = (
"263 790 LINE SMOOTH",
"270 783 OFFCURVE",
"277 780 OFFCURVE",
"286 780 CURVE SMOOTH",
"302 780 OFFCURVE",
"308 791 OFFCURVE",
"299 804 CURVE SMOOTH",
"237 897 LINE SMOOTH",
"230 908 OFFCURVE",
"221 910 OFFCURVE",
"210 905 CURVE",
"188 894 LINE SMOOTH",
"175 887 OFFCURVE",
"173 876 OFFCURVE",
"184 866 CURVE SMOOTH"
);
},
{
closed = 1;
nodes = (
"299 689 LINE",
"296 698 OFFCURVE",
"288 703 OFFCURVE",
"279 702 CURVE",
"271 703 OFFCURVE",
"263 698 OFFCURVE",
"260 689 CURVE",
"11 27 LINE SMOOTH",
"7 16 OFFCURVE",
"12 5 OFFCURVE",
"23 1 CURVE SMOOTH",
"34 -3 OFFCURVE",
"45 2 OFFCURVE",
"49 13 CURVE SMOOTH",
"111 177 LINE",
"448 177 LINE",
"510 13 LINE SMOOTH",
"514 2 OFFCURVE",
"525 -3 OFFCURVE",
"536 1 CURVE SMOOTH",
"547 5 OFFCURVE",
"552 16 OFFCURVE",
"548 27 CURVE SMOOTH"
);
},
{
closed = 1;
nodes = (
"279 626 LINE",
"433 217 LINE",
"126 217 LINE"
);
}
);
width = 563;
},
{
layerId = "8816CCA3-DDF9-4C51-BD56-64EE3675A105";
paths = (
{
closed = 1;
nodes = (
"240 805 LINE SMOOTH",
"259 787 OFFCURVE",
"272 780 OFFCURVE",
"288 780 CURVE SMOOTH",
"329 780 OFFCURVE",
"343 806 OFFCURVE",
"321 840 CURVE SMOOTH",
"279 905 LINE SMOOTH",
"262 931 OFFCURVE",
"240 938 OFFCURVE",
"212 925 CURVE",
"202 921 LINE",
"167 905 OFFCURVE",
"162 878 OFFCURVE",
"190 852 CURVE SMOOTH"
);
},
{
closed = 1;
nodes = (
"359 664 LINE",
"348 689 OFFCURVE",
"327 704 OFFCURVE",
"303 704 CURVE",
"277 706 OFFCURVE",
"253 691 OFFCURVE",
"243 664 CURVE SMOOTH",
"15 79 LINE SMOOTH",
"2 46 OFFCURVE",
"17 13 OFFCURVE",
"49 1 CURVE SMOOTH",
"82 -11 OFFCURVE",
"115 4 OFFCURVE",
"128 37 CURVE SMOOTH",
"171 149 LINE SMOOTH",
"173 154 OFFCURVE",
"177 157 OFFCURVE",
"182 157 CURVE SMOOTH",
"422 157 LINE SMOOTH",
"427 157 OFFCURVE",
"431 155 OFFCURVE",
"433 149 CURVE",
"478 37 LINE SMOOTH",
"491 4 OFFCURVE",
"522 -12 OFFCURVE",
"554 0 CURVE SMOOTH",
"587 13 OFFCURVE",
"602 46 OFFCURVE",
"589 79 CURVE SMOOTH"
);
},
{
closed = 1;
nodes = (
"233 277 LINE SMOOTH",
"226 277 OFFCURVE",
"223 282 OFFCURVE",
"226 289 CURVE",
"295 467 LINE",
"299 476 OFFCURVE",
"305 476 OFFCURVE",
"309 467 CURVE",
"378 289 LINE",
"381 282 OFFCURVE",
"378 277 OFFCURVE",
"371 277 CURVE SMOOTH"
);
}
);
width = 604;
}
);
note = Agrave;
unicode = 00C0;
},
{
glyphname = Amacron;
lastChange = "2016-06-29 14:38:00 +0000";
layers = (
{
layerId = "254266E2-2911-423D-9D37-8CC6105656EE";
paths = (
{
closed = 1;
nodes = (
"411 780 LINE SMOOTH",
"424 780 OFFCURVE",
"431 787 OFFCURVE",
"431 800 CURVE SMOOTH",
"431 813 LINE SMOOTH",
"431 826 OFFCURVE",
"424 833 OFFCURVE",
"411 833 CURVE SMOOTH",
"151 833 LINE SMOOTH",
"138 833 OFFCURVE",
"131 826 OFFCURVE",
"131 813 CURVE SMOOTH",
"131 800 LINE SMOOTH",
"131 787 OFFCURVE",
"138 780 OFFCURVE",
"151 780 CURVE SMOOTH"
);
},
{
closed = 1;
nodes = (
"299 689 LINE",
"296 698 OFFCURVE",
"288 703 OFFCURVE",
"279 702 CURVE",
"271 703 OFFCURVE",
"263 698 OFFCURVE",
"260 689 CURVE",
"11 27 LINE SMOOTH",
"7 16 OFFCURVE",
"12 5 OFFCURVE",
"23 1 CURVE SMOOTH",
"34 -3 OFFCURVE",
"45 2 OFFCURVE",
"49 13 CURVE SMOOTH",
"111 177 LINE",
"448 177 LINE",
"510 13 LINE SMOOTH",
"514 2 OFFCURVE",
"525 -3 OFFCURVE",
"536 1 CURVE SMOOTH",
"547 5 OFFCURVE",
"552 16 OFFCURVE",
"548 27 CURVE SMOOTH"
);
},
{
closed = 1;
nodes = (
"279 626 LINE",
"433 217 LINE",
"126 217 LINE"
);
}
);
width = 559;
},
{
layerId = "8816CCA3-DDF9-4C51-BD56-64EE3675A105";
paths = (
{
closed = 1;
nodes = (
"132 796 OFFCURVE",
"150 780 OFFCURVE",
"182 780 CURVE SMOOTH",
"424 780 LINE SMOOTH",
"457 780 OFFCURVE",
"474 796 OFFCURVE",
"474 825 CURVE SMOOTH",
"474 853 OFFCURVE",
"456 869 OFFCURVE",
"424 869 CURVE SMOOTH",
"182 869 LINE SMOOTH",
"150 869 OFFCURVE",
"132 853 OFFCURVE",
"132 825 CURVE SMOOTH"
);
},
{
closed = 1;
nodes = (
"359 664 LINE",
"348 689 OFFCURVE",
"327 704 OFFCURVE",
"303 704 CURVE",
"277 706 OFFCURVE",
"253 691 OFFCURVE",
"243 664 CURVE SMOOTH",
"15 79 LINE SMOOTH",
"2 46 OFFCURVE",
"17 13 OFFCURVE",
"49 1 CURVE SMOOTH",
"82 -11 OFFCURVE",
"115 4 OFFCURVE",
"128 37 CURVE SMOOTH",
"171 149 LINE SMOOTH",
"173 154 OFFCURVE",
"177 157 OFFCURVE",
"182 157 CURVE SMOOTH",
"422 157 LINE SMOOTH",
"427 157 OFFCURVE",
"431 155 OFFCURVE",
"433 149 CURVE",
"478 37 LINE SMOOTH",
"491 4 OFFCURVE",
"522 -12 OFFCURVE",
"554 0 CURVE SMOOTH",
"587 13 OFFCURVE",
"602 46 OFFCURVE",
"589 79 CURVE SMOOTH"
);
},
{
closed = 1;
nodes = (
"233 277 LINE SMOOTH",
"226 277 OFFCURVE",
"223 282 OFFCURVE",
"226 289 CURVE",
"295 467 LINE",
"299 476 OFFCURVE",
"305 476 OFFCURVE",
"309 467 CURVE",
"378 289 LINE",
"381 282 OFFCURVE",
"378 277 OFFCURVE",
"371 277 CURVE SMOOTH"
);
}
);
width = 604;
}
);
note = Amacron;
unicode = 0100;
},
{
glyphname = Aogonek;
lastChange = "2016-06-29 14:38:00 +0000";
layers = (
{
layerId = "254266E2-2911-423D-9D37-8CC6105656EE";
paths = (
{
closed = 1;
nodes = (
"580 -135 OFFCURVE",
"570 -133 OFFCURVE",
"558 -138 CURVE SMOOTH",
"543 -144 OFFCURVE",
"477 -158 OFFCURVE",
"458 -97 CURVE SMOOTH",
"451 -74 OFFCURVE",
"452 -24 OFFCURVE",
"513 8 CURVE",
"518 0 OFFCURVE",
"527 -2 OFFCURVE",
"536 1 CURVE SMOOTH",
"547 5 OFFCURVE",
"552 16 OFFCURVE",
"548 27 CURVE SMOOTH",
"299 689 LINE",
"296 698 OFFCURVE",
"288 703 OFFCURVE",
"279 702 CURVE",
"271 703 OFFCURVE",
"263 698 OFFCURVE",
"260 689 CURVE",
"11 27 LINE SMOOTH",
"7 16 OFFCURVE",
"12 5 OFFCURVE",
"23 1 CURVE SMOOTH",
"34 -3 OFFCURVE",
"45 2 OFFCURVE",
"49 13 CURVE SMOOTH",
"111 177 LINE",
"448 177 LINE",
"505 26 LINE",
"468 12 OFFCURVE",
"407 -18 OFFCURVE",
"407 -96 CURVE SMOOTH",
"407 -192 OFFCURVE",
"523 -198 OFFCURVE",
"572 -170 CURVE SMOOTH",
"588 -161 OFFCURVE",
"588 -151 OFFCURVE",
"584 -143 CURVE SMOOTH"
);
},
{
closed = 1;
nodes = (
"433 217 LINE",
"126 217 LINE",
"279 626 LINE"
);
}
);
width = 618;
},
{
layerId = "8816CCA3-DDF9-4C51-BD56-64EE3675A105";
paths = (
{
closed = 1;
nodes = (
"500 -150 OFFCURVE",
"466 -126 OFFCURVE",
"460 -96 CURVE SMOOTH",
"454 -67 OFFCURVE",
"460 -34 OFFCURVE",
"513 0 CURVE",
"525 -5 OFFCURVE",
"540 -5 OFFCURVE",
"554 0 CURVE SMOOTH",
"587 13 OFFCURVE",
"602 46 OFFCURVE",
"589 79 CURVE SMOOTH",
"359 664 LINE",
"348 689 OFFCURVE",
"327 704 OFFCURVE",
"303 704 CURVE",
"277 706 OFFCURVE",
"253 691 OFFCURVE",
"243 664 CURVE SMOOTH",
"15 79 LINE SMOOTH",
"2 46 OFFCURVE",
"17 13 OFFCURVE",
"49 1 CURVE SMOOTH",
"82 -11 OFFCURVE",
"115 4 OFFCURVE",
"128 37 CURVE SMOOTH",
"171 149 LINE SMOOTH",
"173 154 OFFCURVE",
"177 157 OFFCURVE",
"182 157 CURVE SMOOTH",
"422 157 LINE SMOOTH",
"427 157 OFFCURVE",
"431 155 OFFCURVE",
"433 149 CURVE",
"474 48 LINE",
"427 26 OFFCURVE",
"366 -16 OFFCURVE",
"366 -95 CURVE SMOOTH",
"366 -189 OFFCURVE",
"468 -232 OFFCURVE",
"561 -192 CURVE SMOOTH",
"582 -183 OFFCURVE",
"587 -164 OFFCURVE",
"579 -147 CURVE SMOOTH",
"571 -130 OFFCURVE",
"554 -126 OFFCURVE",
"536 -134 CURVE SMOOTH"
);
},
{
closed = 1;
nodes = (
"233 277 LINE SMOOTH",
"226 277 OFFCURVE",
"223 282 OFFCURVE",
"226 289 CURVE",
"295 467 LINE",
"299 476 OFFCURVE",
"305 476 OFFCURVE",
"309 467 CURVE",
"378 289 LINE",
"381 282 OFFCURVE",
"378 277 OFFCURVE",
"371 277 CURVE SMOOTH"
);
}
);
width = 604;
}
);
note = Aogonek;
unicode = 0104;
},
{
glyphname = Aring;
lastChange = "2016-06-29 14:38:00 +0000";
layers = (
{
layerId = "254266E2-2911-423D-9D37-8CC6105656EE";
paths = (
{
closed = 1;
nodes = (
"305 673 LINE",
"346 684 OFFCURVE",
"379 720 OFFCURVE",
"379 764 CURVE SMOOTH",
"379 816 OFFCURVE",
"333 858 OFFCURVE",
"281 858 CURVE SMOOTH",
"229 858 OFFCURVE",
"183 816 OFFCURVE",
"183 764 CURVE SMOOTH",
"183 721 OFFCURVE",
"214 685 OFFCURVE",
"254 674 CURVE",
"11 27 LINE SMOOTH",
"7 16 OFFCURVE",
"12 5 OFFCURVE",
"23 1 CURVE SMOOTH",
"34 -3 OFFCURVE",
"45 2 OFFCURVE",
"49 13 CURVE SMOOTH",
"111 177 LINE",
"448 177 LINE",
"510 13 LINE SMOOTH",
"514 2 OFFCURVE",
"525 -3 OFFCURVE",
"536 1 CURVE SMOOTH",
"547 5 OFFCURVE",
"552 16 OFFCURVE",
"548 27 CURVE SMOOTH"
);
},
{
closed = 1;
nodes = (
"219 798 OFFCURVE",
"247 826 OFFCURVE",
"281 826 CURVE SMOOTH",
"315 826 OFFCURVE",
"343 798 OFFCURVE",
"343 764 CURVE SMOOTH",
"343 731 OFFCURVE",
"316 703 OFFCURVE",
"283 702 CURVE SMOOTH",
"277 702 LINE",
"245 704 OFFCURVE",
"219 731 OFFCURVE",
"219 764 CURVE SMOOTH"
);
},
{
closed = 1;
nodes = (
"433 217 LINE",
"126 217 LINE",
"279 626 LINE"
);
}
);
width = 559;
},
{
layerId = "8816CCA3-DDF9-4C51-BD56-64EE3675A105";
paths = (
{
closed = 1;
nodes = (
"359 664 LINE",
"356 670 LINE",
"392 688 OFFCURVE",
"417 725 OFFCURVE",
"417 765 CURVE SMOOTH",
"417 767 LINE SMOOTH",
"417 826 OFFCURVE",
"363 876 OFFCURVE",
"303 876 CURVE SMOOTH",
"243 876 OFFCURVE",
"189 826 OFFCURVE",
"189 767 CURVE SMOOTH",
"189 765 LINE SMOOTH",
"189 726 OFFCURVE",
"213 691 OFFCURVE",
"246 671 CURVE",
"243 664 LINE",
"15 79 LINE SMOOTH",
"2 46 OFFCURVE",
"17 13 OFFCURVE",
"49 1 CURVE SMOOTH",
"82 -11 OFFCURVE",
"115 4 OFFCURVE",
"128 37 CURVE SMOOTH",
"171 149 LINE SMOOTH",
"173 154 OFFCURVE",
"177 157 OFFCURVE",
"182 157 CURVE SMOOTH",
"422 157 LINE SMOOTH",
"427 157 OFFCURVE",
"431 155 OFFCURVE",
"433 149 CURVE",
"478 37 LINE SMOOTH",
"491 4 OFFCURVE",
"522 -12 OFFCURVE",
"554 0 CURVE SMOOTH",
"587 13 OFFCURVE",
"602 46 OFFCURVE",
"589 79 CURVE SMOOTH"
);
},
{
closed = 1;
nodes = (
"259 767 LINE SMOOTH",
"259 790 OFFCURVE",
"278 806 OFFCURVE",
"303 806 CURVE SMOOTH",
"328 806 OFFCURVE",
"347 790 OFFCURVE",
"347 767 CURVE SMOOTH",
"347 765 LINE SMOOTH",
"347 742 OFFCURVE",
"328 726 OFFCURVE",
"303 726 CURVE SMOOTH",
"278 726 OFFCURVE",
"259 742 OFFCURVE",
"259 765 CURVE SMOOTH"
);
},
{
closed = 1;
nodes = (
"233 277 LINE SMOOTH",
"226 277 OFFCURVE",
"223 282 OFFCURVE",
"226 289 CURVE",
"295 467 LINE",
"299 476 OFFCURVE",
"305 476 OFFCURVE",
"309 467 CURVE",
"378 289 LINE",
"381 282 OFFCURVE",
"378 277 OFFCURVE",
"371 277 CURVE SMOOTH"
);
}
);
width = 604;
}
);
note = Aring;
unicode = 00C5;
},
{
glyphname = Atilde;
lastChange = "2016-06-29 14:38:00 +0000";
layers = (
{
layerId = "254266E2-2911-423D-9D37-8CC6105656EE";
paths = (
{
closed = 1;
nodes = (
"401 886 OFFCURVE",
"393 881 OFFCURVE",
"387 869 CURVE SMOOTH",
"376 845 OFFCURVE",
"365 837 OFFCURVE",
"345 837 CURVE SMOOTH",
"311 837 OFFCURVE",
"255 878 OFFCURVE",
"217 878 CURVE SMOOTH",
"181 878 OFFCURVE",
"157 861 OFFCURVE",
"139 806 CURVE",
"135 792 OFFCURVE",
"139 784 OFFCURVE",
"150 781 CURVE SMOOTH",
"161 778 OFFCURVE",
"169 782 OFFCURVE",
"175 794 CURVE SMOOTH",
"186 818 OFFCURVE",
"197 826 OFFCURVE",
"217 826 CURVE SMOOTH",
"251 826 OFFCURVE",
"307 785 OFFCURVE",
"345 785 CURVE SMOOTH",
"381 785 OFFCURVE",
"405 802 OFFCURVE",
"423 858 CURVE SMOOTH",
"427 871 OFFCURVE",
"423 880 OFFCURVE",
"412 883 CURVE SMOOTH"
);
},
{
closed = 1;
nodes = (
"299 689 LINE",
"296 698 OFFCURVE",
"288 703 OFFCURVE",
"279 702 CURVE",
"271 703 OFFCURVE",
"263 698 OFFCURVE",
"260 689 CURVE",
"11 27 LINE SMOOTH",
"7 16 OFFCURVE",
"12 5 OFFCURVE",
"23 1 CURVE SMOOTH",
"34 -3 OFFCURVE",
"45 2 OFFCURVE",
"49 13 CURVE SMOOTH",
"111 177 LINE",
"448 177 LINE",
"510 13 LINE SMOOTH",
"514 2 OFFCURVE",
"525 -3 OFFCURVE",
"536 1 CURVE SMOOTH",
"547 5 OFFCURVE",
"552 16 OFFCURVE",
"548 27 CURVE SMOOTH"
);
},
{
closed = 1;
nodes = (
"279 626 LINE",
"433 217 LINE",
"126 217 LINE"
);
}
);
width = 559;
},
{
layerId = "8816CCA3-DDF9-4C51-BD56-64EE3675A105";
paths = (
{
closed = 1;
nodes = (
"170 773 OFFCURVE",
"182 786 OFFCURVE",
"204 808 CURVE SMOOTH",
"212 816 OFFCURVE",
"222 820 OFFCURVE",
"236 820 CURVE SMOOTH",
"272 820 OFFCURVE",
"325 780 OFFCURVE",
"380 780 CURVE SMOOTH",
"427 780 OFFCURVE",
"455 806 OFFCURVE",
"476 856 CURVE SMOOTH",
"489 887 OFFCURVE",
"480 908 OFFCURVE",
"459 915 CURVE SMOOTH",
"436 922 OFFCURVE",
"424 909 OFFCURVE",
"402 886 CURVE",
"394 879 OFFCURVE",
"384 875 OFFCURVE",
"370 875 CURVE SMOOTH",
"334 875 OFFCURVE",
"281 915 OFFCURVE",
"226 915 CURVE SMOOTH",
"179 915 OFFCURVE",
"151 889 OFFCURVE",
"130 839 CURVE SMOOTH",
"117 808 OFFCURVE",
"126 786 OFFCURVE",
"148 780 CURVE"
);
},
{
closed = 1;
nodes = (
"359 664 LINE",
"348 689 OFFCURVE",
"327 704 OFFCURVE",
"303 704 CURVE",
"277 706 OFFCURVE",
"253 691 OFFCURVE",
"243 664 CURVE SMOOTH",
"15 79 LINE SMOOTH",
"2 46 OFFCURVE",
"17 13 OFFCURVE",
"49 1 CURVE SMOOTH",
"82 -11 OFFCURVE",
"115 4 OFFCURVE",
"128 37 CURVE SMOOTH",
"171 149 LINE SMOOTH",
"173 154 OFFCURVE",
"177 157 OFFCURVE",
"182 157 CURVE SMOOTH",
"422 157 LINE SMOOTH",
"427 157 OFFCURVE",
"431 155 OFFCURVE",
"433 149 CURVE",
"478 37 LINE SMOOTH",
"491 4 OFFCURVE",
"522 -12 OFFCURVE",
"554 0 CURVE SMOOTH",
"587 13 OFFCURVE",
"602 46 OFFCURVE",
"589 79 CURVE SMOOTH"
);
},
{
closed = 1;
nodes = (
"233 277 LINE SMOOTH",
"226 277 OFFCURVE",
"223 282 OFFCURVE",
"226 289 CURVE",
"295 467 LINE",
"299 476 OFFCURVE",
"305 476 OFFCURVE",
"309 467 CURVE",
"378 289 LINE",
"381 282 OFFCURVE",
"378 277 OFFCURVE",
"371 277 CURVE SMOOTH"
);
}
);
width = 604;
}
);
note = Atilde;
unicode = 00C3;
},
{
glyphname = AE;
lastChange = "2016-06-29 14:38:00 +0000";
layers = (
{
layerId = "254266E2-2911-423D-9D37-8CC6105656EE";
paths = (
{
closed = 1;
nodes = (
"519 40 LINE SMOOTH",
"516 40 OFFCURVE",
"514 42 OFFCURVE",
"514 45 CURVE SMOOTH",
"514 286 LINE SMOOTH",
"514 289 OFFCURVE",
"516 291 OFFCURVE",
"519 291 CURVE SMOOTH",
"816 291 LINE SMOOTH",
"827 291 OFFCURVE",
"836 299 OFFCURVE",
"836 311 CURVE SMOOTH",
"836 322 OFFCURVE",
"827 331 OFFCURVE",
"816 331 CURVE SMOOTH",
"519 331 LINE SMOOTH",
"516 331 OFFCURVE",
"514 333 OFFCURVE",
"514 336 CURVE SMOOTH",
"514 655 LINE SMOOTH",
"514 658 OFFCURVE",
"516 660 OFFCURVE",
"519 660 CURVE SMOOTH",
"861 660 LINE SMOOTH",
"872 660 OFFCURVE",
"881 668 OFFCURVE",
"881 680 CURVE SMOOTH",
"881 691 OFFCURVE",
"872 700 OFFCURVE",
"861 700 CURVE SMOOTH",
"492 700 LINE SMOOTH",
"485 700 OFFCURVE",
"479 697 OFFCURVE",
"474 691 CURVE",
"15 37 LINE SMOOTH",
"9 28 OFFCURVE",
"11 16 OFFCURVE",
"20 9 CURVE SMOOTH",
"29 2 OFFCURVE",
"41 5 OFFCURVE",
"48 14 CURVE",
"162 177 LINE",
"474 177 LINE",
"474 20 LINE SMOOTH",
"474 9 OFFCURVE",
"483 0 OFFCURVE",
"494 0 CURVE SMOOTH",
"861 0 LINE SMOOTH",
"872 0 OFFCURVE",
"881 8 OFFCURVE",
"881 20 CURVE SMOOTH",
"881 31 OFFCURVE",
"872 40 OFFCURVE",
"861 40 CURVE SMOOTH"
);
},
{
closed = 1;
nodes = (
"474 621 LINE",
"474 217 LINE",
"191 217 LINE"
);
}
);
width = 931;
},
{
layerId = "8816CCA3-DDF9-4C51-BD56-64EE3675A105";
paths = (
{
closed = 1;
nodes = (
"552 120 LINE SMOOTH",
"546 120 OFFCURVE",
"542 124 OFFCURVE",
"542 130 CURVE SMOOTH",
"542 240 LINE SMOOTH",
"542 247 OFFCURVE",
"546 250 OFFCURVE",
"552 250 CURVE SMOOTH",
"763 250 LINE SMOOTH",
"798 250 OFFCURVE",
"824 275 OFFCURVE",
"824 309 CURVE SMOOTH",
"824 344 OFFCURVE",
"798 370 OFFCURVE",
"763 370 CURVE SMOOTH",
"552 370 LINE SMOOTH",
"546 370 OFFCURVE",
"542 374 OFFCURVE",
"542 380 CURVE SMOOTH",
"542 570 LINE SMOOTH",
"542 577 OFFCURVE",
"545 580 OFFCURVE",
"552 580 CURVE SMOOTH",
"808 580 LINE SMOOTH",
"843 580 OFFCURVE",
"869 605 OFFCURVE",
"869 639 CURVE SMOOTH",
"869 674 OFFCURVE",
"843 700 OFFCURVE",
"808 700 CURVE SMOOTH",
"486 700 LINE",
"465 703 OFFCURVE",
"444 694 OFFCURVE",
"430 674 CURVE SMOOTH",
"22 97 LINE SMOOTH",
"2 68 OFFCURVE",
"7 32 OFFCURVE",
"35 13 CURVE SMOOTH",
"64 -8 OFFCURVE",
"100 -2 OFFCURVE",
"120 27 CURVE SMOOTH",
"195 133 LINE",
"196 135 OFFCURVE",
"198 136 OFFCURVE",
"201 136 CURVE SMOOTH",
"417 136 LINE SMOOTH",
"420 136 OFFCURVE",
"422 134 OFFCURVE",
"422 131 CURVE SMOOTH",
"422 61 LINE SMOOTH",
"422 26 OFFCURVE",
"448 0 OFFCURVE",
"483 0 CURVE SMOOTH",
"808 0 LINE SMOOTH",
"843 0 OFFCURVE",
"869 25 OFFCURVE",
"869 59 CURVE SMOOTH",
"869 94 OFFCURVE",
"843 120 OFFCURVE",
"808 120 CURVE SMOOTH"
);
},
{
closed = 1;
nodes = (
"289 256 LINE SMOOTH",
"285 256 OFFCURVE",
"284 259 OFFCURVE",
"286 262 CURVE SMOOTH",
"416 445 LINE SMOOTH",
"419 449 OFFCURVE",
"422 448 OFFCURVE",
"422 444 CURVE SMOOTH",
"422 261 LINE SMOOTH",
"422 258 OFFCURVE",
"420 256 OFFCURVE",
"417 256 CURVE SMOOTH"
);
}
);
width = 919;
}
);
note = AE;
unicode = 00C6;
},
{
glyphname = B;
lastChange = "2016-06-29 14:38:00 +0000";
layers = (
{
layerId = "254266E2-2911-423D-9D37-8CC6105656EE";
paths = (
{
closed = 1;
nodes = (
"407 408 OFFCURVE",
"435 459 OFFCURVE",
"435 520 CURVE SMOOTH",
"435 627 OFFCURVE",
"351 700 OFFCURVE",
"254 700 CURVE SMOOTH",
"110 700 LINE SMOOTH",
"99 700 OFFCURVE",
"90 691 OFFCURVE",
"90 680 CURVE SMOOTH",
"90 20 LINE SMOOTH",
"90 9 OFFCURVE",
"99 0 OFFCURVE",
"110 0 CURVE SMOOTH",
"301 0 LINE SMOOTH",
"414 0 OFFCURVE",
"510 67 OFFCURVE",
"510 189 CURVE SMOOTH",
"510 287 OFFCURVE",
"449 349 OFFCURVE",
"367 370 CURVE SMOOTH",
"363 371 OFFCURVE",
"362 374 OFFCURVE",
"366 376 CURVE"
);
},
{
closed = 1;
nodes = (
"130 655 LINE SMOOTH",
"130 658 OFFCURVE",
"132 660 OFFCURVE",
"135 660 CURVE SMOOTH",
"254 660 LINE SMOOTH",
"333 660 OFFCURVE",
"395 608 OFFCURVE",
"395 520 CURVE SMOOTH",
"395 431 OFFCURVE",
"333 379 OFFCURVE",
"254 379 CURVE SMOOTH",
"135 379 LINE SMOOTH",
"132 379 OFFCURVE",
"130 381 OFFCURVE",
"130 384 CURVE SMOOTH"
);
},
{
closed = 1;
nodes = (
"135 40 LINE SMOOTH",
"132 40 OFFCURVE",
"130 42 OFFCURVE",
"130 45 CURVE SMOOTH",
"130 333 LINE SMOOTH",
"130 336 OFFCURVE",
"132 338 OFFCURVE",
"135 338 CURVE SMOOTH",
"301 338 LINE SMOOTH",
"395 338 OFFCURVE",
"470 293 OFFCURVE",
"470 189 CURVE SMOOTH",
"470 85 OFFCURVE",
"395 40 OFFCURVE",
"301 40 CURVE SMOOTH"
);
}
);
width = 558;
},
{
layerId = "8816CCA3-DDF9-4C51-BD56-64EE3675A105";
paths = (
{
closed = 1;
nodes = (
"151 700 LINE SMOOTH",
"116 700 OFFCURVE",
"90 674 OFFCURVE",
"90 639 CURVE SMOOTH",
"90 61 LINE SMOOTH",
"90 26 OFFCURVE",
"116 0 OFFCURVE",
"151 0 CURVE SMOOTH",
"340 0 LINE SMOOTH",
"439 0 OFFCURVE",
"570 36 OFFCURVE",
"570 213 CURVE SMOOTH",
"570 311 OFFCURVE",
"527 364 OFFCURVE",
"473 393 CURVE SMOOTH",
"467 396 OFFCURVE",
"466 400 OFFCURVE",
"469 406 CURVE SMOOTH",
"484 434 OFFCURVE",
"493 468 OFFCURVE",
"493 511 CURVE SMOOTH",
"493 668 OFFCURVE",
"380 700 OFFCURVE",
"313 700 CURVE SMOOTH"
);
},
{
closed = 1;
nodes = (
"220 426 LINE SMOOTH",
"214 426 OFFCURVE",
"210 430 OFFCURVE",
"210 436 CURVE SMOOTH",
"210 570 LINE SMOOTH",
"210 577 OFFCURVE",
"214 580 OFFCURVE",
"220 580 CURVE SMOOTH",
"288 580 LINE SMOOTH",
"325 580 OFFCURVE",
"373 567 OFFCURVE",
"373 508 CURVE SMOOTH",
"373 442 OFFCURVE",
"329 426 OFFCURVE",
"291 426 CURVE SMOOTH"
);
},
{
closed = 1;
nodes = (
"220 120 LINE SMOOTH",
"214 120 OFFCURVE",
"210 123 OFFCURVE",
"210 130 CURVE SMOOTH",
"210 296 LINE SMOOTH",
"210 302 OFFCURVE",
"214 306 OFFCURVE",
"220 306 CURVE SMOOTH",
"333 306 LINE SMOOTH",
"378 306 OFFCURVE",
"450 302 OFFCURVE",
"450 213 CURVE SMOOTH",
"450 148 OFFCURVE",
"407 120 OFFCURVE",
"340 120 CURVE SMOOTH"
);
}
);
width = 618;
}
);
note = B;
rightKerningGroup = B;
unicode = 0042;
},
{
glyphname = C;
lastChange = "2016-06-29 14:38:00 +0000";
layers = (
{
layerId = "254266E2-2911-423D-9D37-8CC6105656EE";
paths = (
{
closed = 1;
nodes = (
"588 674 OFFCURVE",
"510 700 OFFCURVE",
"429 700 CURVE SMOOTH",
"223 700 OFFCURVE",
"50 551 OFFCURVE",
"50 350 CURVE SMOOTH",
"50 149 OFFCURVE",
"223 0 OFFCURVE",
"429 0 CURVE SMOOTH",
"510 0 OFFCURVE",
"588 25 OFFCURVE",
"649 68 CURVE",
"658 75 OFFCURVE",
"660 87 OFFCURVE",
"653 96 CURVE SMOOTH",
"646 105 OFFCURVE",
"634 107 OFFCURVE",
"625 100 CURVE",
"569 62 OFFCURVE",
"504 40 OFFCURVE",
"429 40 CURVE SMOOTH",
"241 40 OFFCURVE",
"90 167 OFFCURVE",
"90 350 CURVE SMOOTH",
"90 533 OFFCURVE",
"241 660 OFFCURVE",
"429 660 CURVE SMOOTH",
"503 660 OFFCURVE",
"570 637 OFFCURVE",
"626 599 CURVE SMOOTH",
"635 593 OFFCURVE",
"646 594 OFFCURVE",
"653 603 CURVE",
"660 613 OFFCURVE",
"658 625 OFFCURVE",
"648 632 CURVE SMOOTH"
);
}
);
width = 677;
},
{
layerId = "8816CCA3-DDF9-4C51-BD56-64EE3675A105";
paths = (
{
closed = 1;
nodes = (
"526 686 OFFCURVE",
"469 700 OFFCURVE",
"410 700 CURVE SMOOTH",
"211 700 OFFCURVE",
"50 543 OFFCURVE",
"50 350 CURVE SMOOTH",
"50 128 OFFCURVE",
"229 1 OFFCURVE",
"410 1 CURVE SMOOTH",
"467 1 OFFCURVE",
"524 14 OFFCURVE",
"576 40 CURVE SMOOTH",
"609 56 OFFCURVE",
"618 96 OFFCURVE",
"592 130 CURVE SMOOTH",
"573 154 OFFCURVE",
"544 157 OFFCURVE",
"516 144 CURVE SMOOTH",
"483 128 OFFCURVE",
"446 121 OFFCURVE",
"410 121 CURVE SMOOTH",
"289 121 OFFCURVE",
"170 203 OFFCURVE",
"170 350 CURVE SMOOTH",
"170 476 OFFCURVE",
"277 580 OFFCURVE",
"410 580 CURVE SMOOTH",
"448 580 OFFCURVE",
"484 572 OFFCURVE",
"516 557 CURVE SMOOTH",
"544 543 OFFCURVE",
"573 545 OFFCURVE",
"591 569 CURVE",
"616 600 OFFCURVE",
"610 643 OFFCURVE",
"575 661 CURVE SMOOTH"
);
}
);
width = 627;
}
);
leftKerningGroup = C;
note = C;
unicode = 0043;
},
{
glyphname = Cacute;
lastChange = "2016-06-29 14:38:00 +0000";
layers = (
{
layerId = "254266E2-2911-423D-9D37-8CC6105656EE";
paths = (
{
closed = 1;
nodes = (
"293 780 LINE SMOOTH",
"303 780 OFFCURVE",
"310 783 OFFCURVE",
"317 790 CURVE SMOOTH",
"396 866 LINE SMOOTH",
"407 876 OFFCURVE",
"405 887 OFFCURVE",
"392 894 CURVE SMOOTH",
"370 905 LINE",
"359 910 OFFCURVE",
"350 908 OFFCURVE",
"343 897 CURVE SMOOTH",
"281 804 LINE SMOOTH",
"272 791 OFFCURVE",
"274 780 OFFCURVE",
"286 780 CURVE SMOOTH"
);
},
{
closed = 1;
nodes = (
"588 674 OFFCURVE",
"510 700 OFFCURVE",
"429 700 CURVE SMOOTH",
"223 700 OFFCURVE",
"50 551 OFFCURVE",
"50 350 CURVE SMOOTH",
"50 149 OFFCURVE",
"223 0 OFFCURVE",
"429 0 CURVE SMOOTH",
"510 0 OFFCURVE",
"588 25 OFFCURVE",
"649 68 CURVE",
"658 75 OFFCURVE",
"660 87 OFFCURVE",
"653 96 CURVE SMOOTH",
"646 105 OFFCURVE",
"634 107 OFFCURVE",
"625 100 CURVE",
"569 62 OFFCURVE",
"504 40 OFFCURVE",
"429 40 CURVE SMOOTH",
"241 40 OFFCURVE",
"90 167 OFFCURVE",
"90 350 CURVE SMOOTH",
"90 533 OFFCURVE",
"241 660 OFFCURVE",
"429 660 CURVE SMOOTH",
"503 660 OFFCURVE",
"570 637 OFFCURVE",
"626 599 CURVE SMOOTH",
"635 593 OFFCURVE",
"646 594 OFFCURVE",
"653 603 CURVE",
"660 613 OFFCURVE",
"658 625 OFFCURVE",
"648 632 CURVE SMOOTH"
);
}
);
width = 677;
},
{
layerId = "8816CCA3-DDF9-4C51-BD56-64EE3675A105";
paths = (
{
closed = 1;
nodes = (
"327 840 LINE SMOOTH",
"305 806 OFFCURVE",
"313 780 OFFCURVE",
"346 780 CURVE SMOOTH",
"372 780 OFFCURVE",
"389 787 OFFCURVE",
"408 805 CURVE SMOOTH",
"458 852 LINE SMOOTH",
"486 878 OFFCURVE",
"481 905 OFFCURVE",
"446 921 CURVE",
"436 925 LINE",
"408 938 OFFCURVE",
"386 931 OFFCURVE",
"369 905 CURVE SMOOTH"
);
},
{
closed = 1;
nodes = (
"526 686 OFFCURVE",
"469 700 OFFCURVE",
"410 700 CURVE SMOOTH",
"211 700 OFFCURVE",
"50 543 OFFCURVE",
"50 350 CURVE SMOOTH",
"50 128 OFFCURVE",
"229 1 OFFCURVE",
"410 1 CURVE SMOOTH",
"467 1 OFFCURVE",
"524 14 OFFCURVE",
"576 40 CURVE SMOOTH",
"609 56 OFFCURVE",
"618 96 OFFCURVE",
"592 130 CURVE SMOOTH",
"573 154 OFFCURVE",
"544 157 OFFCURVE",
"516 144 CURVE SMOOTH",
"483 128 OFFCURVE",
"446 121 OFFCURVE",
"410 121 CURVE SMOOTH",
"289 121 OFFCURVE",
"170 203 OFFCURVE",
"170 350 CURVE SMOOTH",
"170 476 OFFCURVE",
"277 580 OFFCURVE",
"410 580 CURVE SMOOTH",
"448 580 OFFCURVE",
"484 572 OFFCURVE",
"516 557 CURVE SMOOTH",
"544 543 OFFCURVE",
"573 545 OFFCURVE",
"591 569 CURVE",
"616 600 OFFCURVE",
"610 643 OFFCURVE",
"575 661 CURVE SMOOTH"
);
}
);
width = 627;
}
);
note = Cacute;
unicode = 0106;
},
{
glyphname = Ccaron;
lastChange = "2016-06-29 14:38:00 +0000";
layers = (
{
layerId = "254266E2-2911-423D-9D37-8CC6105656EE";
paths = (
{
closed = 1;
nodes = (
"273 892 LINE",
"266 899 OFFCURVE",
"259 902 OFFCURVE",
"249 902 CURVE SMOOTH",
"232 902 OFFCURVE",
"227 891 OFFCURVE",
"238 878 CURVE SMOOTH",
"309 792 LINE",
"315 783 OFFCURVE",
"322 780 OFFCURVE",
"333 780 CURVE SMOOTH",
"343 780 LINE SMOOTH",
"354 780 OFFCURVE",
"361 783 OFFCURVE",
"367 792 CURVE",
"438 877 LINE SMOOTH",
"449 891 OFFCURVE",
"447 902 OFFCURVE",
"435 902 CURVE SMOOTH",
"425 902 LINE SMOOTH",
"415 902 OFFCURVE",
"408 899 OFFCURVE",
"401 892 CURVE",
"351 847 LINE",
"342 838 OFFCURVE",
"332 838 OFFCURVE",
"323 847 CURVE"
);
},
{
closed = 1;
nodes = (
"588 674 OFFCURVE",
"510 700 OFFCURVE",
"429 700 CURVE SMOOTH",
"223 700 OFFCURVE",
"50 551 OFFCURVE",
"50 350 CURVE SMOOTH",
"50 149 OFFCURVE",
"223 0 OFFCURVE",
"429 0 CURVE SMOOTH",
"510 0 OFFCURVE",
"588 25 OFFCURVE",
"649 68 CURVE",
"658 75 OFFCURVE",
"660 87 OFFCURVE",
"653 96 CURVE SMOOTH",
"646 105 OFFCURVE",
"634 107 OFFCURVE",
"625 100 CURVE",
"569 62 OFFCURVE",
"504 40 OFFCURVE",
"429 40 CURVE SMOOTH",
"241 40 OFFCURVE",
"90 167 OFFCURVE",
"90 350 CURVE SMOOTH",
"90 533 OFFCURVE",
"241 660 OFFCURVE",
"429 660 CURVE SMOOTH",
"503 660 OFFCURVE",
"570 637 OFFCURVE",
"626 599 CURVE SMOOTH",
"635 593 OFFCURVE",
"646 594 OFFCURVE",
"653 603 CURVE",
"660 613 OFFCURVE",
"658 625 OFFCURVE",
"648 632 CURVE SMOOTH"
);
}
);
width = 677;
},
{
layerId = "8816CCA3-DDF9-4C51-BD56-64EE3675A105";
paths = (
{
closed = 1;
nodes = (
"297 810 LINE SMOOTH",
"313 789 OFFCURVE",
"331 780 OFFCURVE",
"358 780 CURVE SMOOTH",
"394 780 LINE SMOOTH",
"421 780 OFFCURVE",
"439 789 OFFCURVE",
"455 810 CURVE SMOOTH",
"499 865 LINE SMOOTH",
"526 898 OFFCURVE",
"521 926 OFFCURVE",
"489 926 CURVE SMOOTH",
"464 926 OFFCURVE",
"446 919 OFFCURVE",
"427 903 CURVE SMOOTH",
"377 860 LINE",
"327 903 LINE SMOOTH",
"308 919 OFFCURVE",
"295 926 OFFCURVE",
"282 926 CURVE SMOOTH",
"240 926 OFFCURVE",
"226 898 OFFCURVE",
"253 865 CURVE SMOOTH"
);
},
{
closed = 1;
nodes = (
"526 686 OFFCURVE",
"469 700 OFFCURVE",
"410 700 CURVE SMOOTH",
"211 700 OFFCURVE",
"50 543 OFFCURVE",
"50 350 CURVE SMOOTH",
"50 128 OFFCURVE",
"229 1 OFFCURVE",
"410 1 CURVE SMOOTH",
"467 1 OFFCURVE",
"524 14 OFFCURVE",
"576 40 CURVE SMOOTH",
"609 56 OFFCURVE",
"618 96 OFFCURVE",
"592 130 CURVE SMOOTH",
"573 154 OFFCURVE",
"544 157 OFFCURVE",
"516 144 CURVE SMOOTH",
"483 128 OFFCURVE",
"446 121 OFFCURVE",
"410 121 CURVE SMOOTH",
"289 121 OFFCURVE",
"170 203 OFFCURVE",
"170 350 CURVE SMOOTH",
"170 476 OFFCURVE",
"277 580 OFFCURVE",
"410 580 CURVE SMOOTH",
"448 580 OFFCURVE",
"484 572 OFFCURVE",
"516 557 CURVE SMOOTH",
"544 543 OFFCURVE",
"573 545 OFFCURVE",
"591 569 CURVE",
"616 600 OFFCURVE",
"610 643 OFFCURVE",
"575 661 CURVE SMOOTH"
);
}
);
width = 627;
}
);
note = Ccaron;
unicode = 010C;
},
{
glyphname = Ccedilla;
lastChange = "2016-06-29 14:38:00 +0000";
layers = (
{
layerId = "254266E2-2911-423D-9D37-8CC6105656EE";
paths = (
{
closed = 1;
nodes = (
"646 105 OFFCURVE",
"634 107 OFFCURVE",
"625 100 CURVE",
"569 62 OFFCURVE",
"504 40 OFFCURVE",
"429 40 CURVE SMOOTH",
"241 40 OFFCURVE",
"90 167 OFFCURVE",
"90 350 CURVE SMOOTH",
"90 533 OFFCURVE",
"241 660 OFFCURVE",
"429 660 CURVE SMOOTH",
"503 660 OFFCURVE",
"570 637 OFFCURVE",
"626 599 CURVE SMOOTH",
"635 593 OFFCURVE",
"646 594 OFFCURVE",
"653 603 CURVE",
"660 613 OFFCURVE",
"658 625 OFFCURVE",
"648 632 CURVE SMOOTH",
"588 674 OFFCURVE",
"510 700 OFFCURVE",
"429 700 CURVE SMOOTH",
"223 700 OFFCURVE",
"50 551 OFFCURVE",
"50 350 CURVE SMOOTH",
"50 160 OFFCURVE",
"204 17 OFFCURVE",
"395 1 CURVE",
"312 -100 LINE SMOOTH",
"302 -112 OFFCURVE",
"306 -126 OFFCURVE",
"322 -134 CURVE SMOOTH",
"330 -138 LINE",
"344 -144 OFFCURVE",
"356 -140 OFFCURVE",
"363 -126 CURVE SMOOTH",
"425 0 LINE",
"429 0 LINE SMOOTH",
"510 0 OFFCURVE",
"588 25 OFFCURVE",
"649 68 CURVE",
"658 75 OFFCURVE",
"660 87 OFFCURVE",
"653 96 CURVE SMOOTH"
);
}
);
width = 671;
},
{
layerId = "8816CCA3-DDF9-4C51-BD56-64EE3675A105";
paths = (
{
closed = 1;
nodes = (
"573 154 OFFCURVE",
"544 157 OFFCURVE",
"516 144 CURVE SMOOTH",
"483 128 OFFCURVE",
"446 121 OFFCURVE",
"410 121 CURVE SMOOTH",
"289 121 OFFCURVE",
"170 203 OFFCURVE",
"170 350 CURVE SMOOTH",
"170 476 OFFCURVE",
"277 580 OFFCURVE",
"410 580 CURVE SMOOTH",
"448 580 OFFCURVE",
"484 572 OFFCURVE",
"516 557 CURVE SMOOTH",
"544 543 OFFCURVE",
"573 545 OFFCURVE",
"591 569 CURVE",
"616 600 OFFCURVE",
"610 643 OFFCURVE",
"575 661 CURVE SMOOTH",
"526 686 OFFCURVE",
"469 700 OFFCURVE",
"410 700 CURVE SMOOTH",
"211 700 OFFCURVE",
"50 543 OFFCURVE",
"50 350 CURVE SMOOTH",
"50 169 OFFCURVE",
"169 51 OFFCURVE",
"311 14 CURVE",
"245 -75 LINE SMOOTH",
"224 -103 OFFCURVE",
"232 -129 OFFCURVE",
"265 -142 CURVE SMOOTH",
"273 -145 LINE",
"303 -158 OFFCURVE",
"328 -149 OFFCURVE",
"339 -119 CURVE SMOOTH",
"384 2 LINE",
"410 1 LINE",
"467 1 OFFCURVE",
"524 14 OFFCURVE",
"576 40 CURVE SMOOTH",
"609 56 OFFCURVE",
"618 96 OFFCURVE",
"592 130 CURVE SMOOTH"
);
}
);
width = 627;
}
);
note = Ccedilla;
unicode = 00C7;
},
{
glyphname = Cdotaccent;
lastChange = "2016-06-29 14:38:00 +0000";
layers = (
{
layerId = "254266E2-2911-423D-9D37-8CC6105656EE";
paths = (
{
closed = 1;
nodes = (
"359 780 OFFCURVE",
"373 795 OFFCURVE",
"373 816 CURVE SMOOTH",
"373 824 LINE SMOOTH",
"373 845 OFFCURVE",
"359 860 OFFCURVE",
"340 860 CURVE SMOOTH",
"319 860 OFFCURVE",
"304 845 OFFCURVE",
"304 824 CURVE SMOOTH",
"304 816 LINE SMOOTH",
"304 795 OFFCURVE",
"318 780 OFFCURVE",
"339 780 CURVE SMOOTH"
);
},
{
closed = 1;
nodes = (
"588 674 OFFCURVE",
"510 700 OFFCURVE",
"429 700 CURVE SMOOTH",
"223 700 OFFCURVE",
"50 551 OFFCURVE",
"50 350 CURVE SMOOTH",
"50 149 OFFCURVE",
"223 0 OFFCURVE",
"429 0 CURVE SMOOTH",
"510 0 OFFCURVE",
"588 25 OFFCURVE",
"649 68 CURVE",
"658 75 OFFCURVE",
"660 87 OFFCURVE",
"653 96 CURVE SMOOTH",
"646 105 OFFCURVE",
"634 107 OFFCURVE",
"625 100 CURVE",
"569 62 OFFCURVE",
"504 40 OFFCURVE",
"429 40 CURVE SMOOTH",
"241 40 OFFCURVE",
"90 167 OFFCURVE",
"90 350 CURVE SMOOTH",
"90 533 OFFCURVE",
"241 660 OFFCURVE",
"429 660 CURVE SMOOTH",
"503 660 OFFCURVE",
"570 637 OFFCURVE",
"626 599 CURVE SMOOTH",
"635 593 OFFCURVE",
"646 594 OFFCURVE",
"653 603 CURVE",
"660 613 OFFCURVE",
"658 625 OFFCURVE",
"648 632 CURVE SMOOTH"
);
}
);
width = 677;
},
{
layerId = "8816CCA3-DDF9-4C51-BD56-64EE3675A105";
paths = (
{
closed = 1;
nodes = (
"251 830 LINE SMOOTH",
"251 797 OFFCURVE",
"268 780 OFFCURVE",
"301 780 CURVE SMOOTH",
"327 780 LINE SMOOTH",
"360 780 OFFCURVE",
"377 798 OFFCURVE",
"377 830 CURVE SMOOTH",
"377 849 LINE SMOOTH",
"377 882 OFFCURVE",
"360 899 OFFCURVE",
"327 899 CURVE SMOOTH",
"301 899 LINE SMOOTH",
"269 899 OFFCURVE",
"251 881 OFFCURVE",
"251 849 CURVE SMOOTH"
);
},
{
closed = 1;
nodes = (
"526 686 OFFCURVE",
"469 700 OFFCURVE",
"410 700 CURVE SMOOTH",
"211 700 OFFCURVE",
"50 543 OFFCURVE",
"50 350 CURVE SMOOTH",
"50 128 OFFCURVE",
"229 1 OFFCURVE",
"410 1 CURVE SMOOTH",
"467 1 OFFCURVE",
"524 14 OFFCURVE",
"576 40 CURVE SMOOTH",
"609 56 OFFCURVE",
"618 96 OFFCURVE",
"592 130 CURVE SMOOTH",
"573 154 OFFCURVE",
"544 157 OFFCURVE",
"516 144 CURVE SMOOTH",
"483 128 OFFCURVE",
"446 121 OFFCURVE",
"410 121 CURVE SMOOTH",
"289 121 OFFCURVE",
"170 203 OFFCURVE",
"170 350 CURVE SMOOTH",
"170 476 OFFCURVE",
"277 580 OFFCURVE",
"410 580 CURVE SMOOTH",
"448 580 OFFCURVE",
"484 572 OFFCURVE",
"516 557 CURVE SMOOTH",
"544 543 OFFCURVE",
"573 545 OFFCURVE",
"591 569 CURVE",
"616 600 OFFCURVE",
"610 643 OFFCURVE",
"575 661 CURVE SMOOTH"
);
}
);
width = 627;
}
);
note = Cdotaccent;
unicode = 010A;
},
{
glyphname = D;
lastChange = "2016-06-29 15:31:06 +0000";
layers = (
{
layerId = "254266E2-2911-423D-9D37-8CC6105656EE";
paths = (
{
closed = 1;
nodes = (
"110 700 LINE SMOOTH",
"99 700 OFFCURVE",
"90 691 OFFCURVE",
"90 680 CURVE SMOOTH",
"90 20 LINE SMOOTH",
"90 9 OFFCURVE",
"99 0 OFFCURVE",
"110 0 CURVE SMOOTH",
"350 0 LINE SMOOTH",
"551 0 OFFCURVE",
"640 158 OFFCURVE",
"640 350 CURVE SMOOTH",
"640 532 OFFCURVE",
"551 700 OFFCURVE",
"350 700 CURVE SMOOTH"
);
},
{
closed = 1;
nodes = (
"137 40 LINE SMOOTH",
"134 40 OFFCURVE",
"132 42 OFFCURVE",
"132 45 CURVE SMOOTH",
"132 655 LINE SMOOTH",
"132 658 OFFCURVE",
"134 660 OFFCURVE",
"137 660 CURVE SMOOTH",
"340 660 LINE SMOOTH",
"523 660 OFFCURVE",
"598 513 OFFCURVE",
"598 350 CURVE SMOOTH",
"598 177 OFFCURVE",
"523 40 OFFCURVE",
"340 40 CURVE SMOOTH"
);
}
);
width = 690;
},
{
layerId = "8816CCA3-DDF9-4C51-BD56-64EE3675A105";
paths = (
{
closed = 1;
nodes = (
"136 700 LINE SMOOTH",
"101 700 OFFCURVE",
"75 674 OFFCURVE",
"75 639 CURVE SMOOTH",
"75 61 LINE SMOOTH",
"75 26 OFFCURVE",
"101 0 OFFCURVE",
"136 0 CURVE SMOOTH",
"375 0 LINE SMOOTH",
"568 0 OFFCURVE",
"675 156 OFFCURVE",
"675 350 CURVE SMOOTH",
"675 543 OFFCURVE",
"568 700 OFFCURVE",
"375 700 CURVE SMOOTH"
);
},
{
closed = 1;
nodes = (
"215 120 LINE SMOOTH",
"209 120 OFFCURVE",
"205 124 OFFCURVE",
"205 130 CURVE SMOOTH",
"205 570 LINE SMOOTH",
"205 577 OFFCURVE",
"209 580 OFFCURVE",
"215 580 CURVE SMOOTH",
"375 580 LINE SMOOTH",
"501 580 OFFCURVE",
"545 476 OFFCURVE",
"545 350 CURVE SMOOTH",
"545 223 OFFCURVE",
"501 120 OFFCURVE",
"375 120 CURVE SMOOTH"
);
}
);
width = 710;
}
);
leftMetricsKey = H;
note = D;
rightKerningGroup = D;
rightMetricsKey = O;
unicode = 0044;
},
{
glyphname = Eth;
lastChange = "2016-06-29 14:38:00 +0000";
layers = (
{
layerId = "254266E2-2911-423D-9D37-8CC6105656EE";
paths = (
{
closed = 1;
nodes = (
"134 700 LINE SMOOTH",
"123 700 OFFCURVE",
"114 691 OFFCURVE",
"114 680 CURVE SMOOTH",
"114 370 LINE",
"48 370 LINE SMOOTH",
"34 370 OFFCURVE",
"24 363 OFFCURVE",
"24 350 CURVE SMOOTH",
"24 336 OFFCURVE",
"33 330 OFFCURVE",
"48 330 CURVE SMOOTH",
"114 330 LINE",
"114 20 LINE SMOOTH",
"114 9 OFFCURVE",
"123 0 OFFCURVE",
"134 0 CURVE SMOOTH",
"354 0 LINE SMOOTH",
"555 0 OFFCURVE",
"644 158 OFFCURVE",
"644 350 CURVE SMOOTH",
"644 532 OFFCURVE",
"555 700 OFFCURVE",
"354 700 CURVE SMOOTH"
);
},
{
closed = 1;
nodes = (
"159 40 LINE SMOOTH",
"156 40 OFFCURVE",
"154 42 OFFCURVE",
"154 45 CURVE SMOOTH",
"154 330 LINE",
"268 330 LINE SMOOTH",
"282 330 OFFCURVE",
"292 338 OFFCURVE",
"292 350 CURVE SMOOTH",
"292 364 OFFCURVE",
"282 370 OFFCURVE",
"268 370 CURVE SMOOTH",
"154 370 LINE",
"154 655 LINE SMOOTH",
"154 658 OFFCURVE",
"156 660 OFFCURVE",
"159 660 CURVE SMOOTH",
"344 660 LINE SMOOTH",
"527 660 OFFCURVE",
"604 513 OFFCURVE",
"604 350 CURVE SMOOTH",
"604 177 OFFCURVE",
"527 40 OFFCURVE",
"344 40 CURVE SMOOTH"
);
}
);
width = 659;
},
{
layerId = "8816CCA3-DDF9-4C51-BD56-64EE3675A105";
paths = (
{
closed = 1;
nodes = (
"151 700 LINE SMOOTH",
"116 700 OFFCURVE",
"90 674 OFFCURVE",
"90 639 CURVE SMOOTH",
"90 415 LINE SMOOTH",
"90 412 OFFCURVE",
"88 410 OFFCURVE",
"85 410 CURVE SMOOTH",
"72 410 LINE SMOOTH",
"37 410 OFFCURVE",
"11 385 OFFCURVE",
"11 351 CURVE SMOOTH",
"11 316 OFFCURVE",
"37 291 OFFCURVE",
"72 291 CURVE SMOOTH",
"85 291 LINE SMOOTH",
"88 291 OFFCURVE",
"90 289 OFFCURVE",
"90 286 CURVE SMOOTH",
"90 61 LINE SMOOTH",
"90 26 OFFCURVE",
"116 0 OFFCURVE",
"151 0 CURVE SMOOTH",
"350 0 LINE SMOOTH",
"543 0 OFFCURVE",
"650 156 OFFCURVE",
"650 350 CURVE SMOOTH",
"650 543 OFFCURVE",
"543 700 OFFCURVE",
"350 700 CURVE SMOOTH"
);
},
{
closed = 1;
nodes = (
"220 120 LINE SMOOTH",
"214 120 OFFCURVE",
"210 124 OFFCURVE",
"210 130 CURVE SMOOTH",
"210 286 LINE SMOOTH",
"210 289 OFFCURVE",
"212 291 OFFCURVE",
"215 291 CURVE SMOOTH",
"246 291 LINE SMOOTH",
"281 291 OFFCURVE",
"307 315 OFFCURVE",
"307 349 CURVE SMOOTH",
"307 384 OFFCURVE",
"281 410 OFFCURVE",
"246 410 CURVE SMOOTH",
"215 410 LINE SMOOTH",
"212 410 OFFCURVE",
"210 412 OFFCURVE",
"210 415 CURVE SMOOTH",
"210 570 LINE SMOOTH",
"210 577 OFFCURVE",
"214 580 OFFCURVE",
"220 580 CURVE SMOOTH",
"350 580 LINE SMOOTH",
"476 580 OFFCURVE",
"530 476 OFFCURVE",
"530 350 CURVE SMOOTH",
"530 223 OFFCURVE",
"476 120 OFFCURVE",
"350 120 CURVE SMOOTH"
);
}
);
width = 700;
}
);
note = Eth;
unicode = 00D0;
},
{
glyphname = Dcaron;
lastChange = "2016-06-29 14:38:00 +0000";
layers = (
{
layerId = "254266E2-2911-423D-9D37-8CC6105656EE";
paths = (
{
closed = 1;
nodes = (
"249 892 LINE",
"242 899 OFFCURVE",
"235 902 OFFCURVE",
"225 902 CURVE SMOOTH",
"208 902 OFFCURVE",
"203 891 OFFCURVE",
"214 878 CURVE SMOOTH",
"285 792 LINE",
"291 783 OFFCURVE",
"298 780 OFFCURVE",
"309 780 CURVE SMOOTH",
"319 780 LINE SMOOTH",
"330 780 OFFCURVE",
"337 783 OFFCURVE",
"343 792 CURVE",
"414 877 LINE SMOOTH",
"425 891 OFFCURVE",
"423 902 OFFCURVE",
"411 902 CURVE SMOOTH",
"401 902 LINE SMOOTH",
"391 902 OFFCURVE",
"384 899 OFFCURVE",
"377 892 CURVE",
"327 847 LINE",
"318 838 OFFCURVE",
"308 838 OFFCURVE",
"299 847 CURVE"
);
},
{
closed = 1;
nodes = (
"110 700 LINE SMOOTH",
"99 700 OFFCURVE",
"90 691 OFFCURVE",
"90 680 CURVE SMOOTH",
"90 20 LINE SMOOTH",
"90 9 OFFCURVE",
"99 0 OFFCURVE",
"110 0 CURVE SMOOTH",
"330 0 LINE SMOOTH",
"531 0 OFFCURVE",
"620 158 OFFCURVE",
"620 350 CURVE SMOOTH",
"620 532 OFFCURVE",
"531 700 OFFCURVE",
"330 700 CURVE SMOOTH"
);
},
{
closed = 1;
nodes = (
"135 40 LINE SMOOTH",
"132 40 OFFCURVE",
"130 42 OFFCURVE",
"130 45 CURVE SMOOTH",
"130 655 LINE SMOOTH",
"130 658 OFFCURVE",
"132 660 OFFCURVE",
"135 660 CURVE SMOOTH",
"320 660 LINE SMOOTH",
"503 660 OFFCURVE",
"580 513 OFFCURVE",
"580 350 CURVE SMOOTH",
"580 177 OFFCURVE",
"503 40 OFFCURVE",
"320 40 CURVE SMOOTH"
);
}
);
width = 630;
},
{
layerId = "8816CCA3-DDF9-4C51-BD56-64EE3675A105";
paths = (
{
closed = 1;
nodes = (
"270 810 LINE SMOOTH",
"286 789 OFFCURVE",
"304 780 OFFCURVE",
"331 780 CURVE SMOOTH",
"367 780 LINE SMOOTH",
"394 780 OFFCURVE",
"412 789 OFFCURVE",
"428 810 CURVE SMOOTH",
"472 865 LINE SMOOTH",
"499 898 OFFCURVE",
"494 926 OFFCURVE",
"462 926 CURVE SMOOTH",
"437 926 OFFCURVE",
"419 919 OFFCURVE",
"400 903 CURVE SMOOTH",
"350 860 LINE",
"300 903 LINE SMOOTH",
"281 919 OFFCURVE",
"268 926 OFFCURVE",
"255 926 CURVE SMOOTH",
"213 926 OFFCURVE",
"199 898 OFFCURVE",
"226 865 CURVE SMOOTH"
);
},
{
closed = 1;
nodes = (
"151 700 LINE SMOOTH",
"116 700 OFFCURVE",
"90 674 OFFCURVE",
"90 639 CURVE SMOOTH",
"90 61 LINE SMOOTH",
"90 26 OFFCURVE",
"116 0 OFFCURVE",
"151 0 CURVE SMOOTH",
"350 0 LINE SMOOTH",
"543 0 OFFCURVE",
"650 156 OFFCURVE",
"650 350 CURVE SMOOTH",
"650 543 OFFCURVE",
"543 700 OFFCURVE",
"350 700 CURVE SMOOTH"
);
},
{
closed = 1;
nodes = (
"220 120 LINE SMOOTH",
"214 120 OFFCURVE",
"210 124 OFFCURVE",
"210 130 CURVE SMOOTH",
"210 570 LINE SMOOTH",
"210 577 OFFCURVE",
"214 580 OFFCURVE",
"220 580 CURVE SMOOTH",
"350 580 LINE SMOOTH",
"476 580 OFFCURVE",
"530 476 OFFCURVE",
"530 350 CURVE SMOOTH",
"530 223 OFFCURVE",
"476 120 OFFCURVE",
"350 120 CURVE SMOOTH"
);
}
);
width = 700;
}
);
note = Dcaron;
unicode = 010E;
},
{
glyphname = Dcroat;
lastChange = "2016-06-29 14:38:00 +0000";
layers = (
{
layerId = "254266E2-2911-423D-9D37-8CC6105656EE";
paths = (
{
closed = 1;
nodes = (
"134 700 LINE SMOOTH",
"123 700 OFFCURVE",
"114 691 OFFCURVE",
"114 680 CURVE SMOOTH",
"114 370 LINE",
"48 370 LINE SMOOTH",
"34 370 OFFCURVE",
"24 363 OFFCURVE",
"24 350 CURVE SMOOTH",
"24 336 OFFCURVE",
"33 330 OFFCURVE",
"48 330 CURVE SMOOTH",
"114 330 LINE",
"114 20 LINE SMOOTH",
"114 9 OFFCURVE",
"123 0 OFFCURVE",
"134 0 CURVE SMOOTH",
"354 0 LINE SMOOTH",
"555 0 OFFCURVE",
"644 158 OFFCURVE",
"644 350 CURVE SMOOTH",
"644 532 OFFCURVE",
"555 700 OFFCURVE",
"354 700 CURVE SMOOTH"
);
},
{
closed = 1;
nodes = (
"159 40 LINE SMOOTH",
"156 40 OFFCURVE",
"154 42 OFFCURVE",
"154 45 CURVE SMOOTH",
"154 330 LINE",
"268 330 LINE SMOOTH",
"282 330 OFFCURVE",
"292 338 OFFCURVE",
"292 350 CURVE SMOOTH",
"292 364 OFFCURVE",
"282 370 OFFCURVE",
"268 370 CURVE SMOOTH",
"154 370 LINE",
"154 655 LINE SMOOTH",
"154 658 OFFCURVE",
"156 660 OFFCURVE",
"159 660 CURVE SMOOTH",
"344 660 LINE SMOOTH",
"527 660 OFFCURVE",
"604 513 OFFCURVE",
"604 350 CURVE SMOOTH",
"604 177 OFFCURVE",
"527 40 OFFCURVE",
"344 40 CURVE SMOOTH"
);
}
);
width = 659;
},
{
layerId = "8816CCA3-DDF9-4C51-BD56-64EE3675A105";
paths = (
{
closed = 1;
nodes = (
"151 700 LINE SMOOTH",
"116 700 OFFCURVE",
"90 674 OFFCURVE",
"90 639 CURVE SMOOTH",
"90 415 LINE SMOOTH",
"90 412 OFFCURVE",
"88 410 OFFCURVE",
"85 410 CURVE SMOOTH",
"72 410 LINE SMOOTH",
"37 410 OFFCURVE",
"11 385 OFFCURVE",
"11 351 CURVE SMOOTH",
"11 316 OFFCURVE",
"37 291 OFFCURVE",
"72 291 CURVE SMOOTH",
"85 291 LINE SMOOTH",
"88 291 OFFCURVE",
"90 289 OFFCURVE",
"90 286 CURVE SMOOTH",
"90 61 LINE SMOOTH",
"90 26 OFFCURVE",
"116 0 OFFCURVE",
"151 0 CURVE SMOOTH",
"350 0 LINE SMOOTH",
"543 0 OFFCURVE",
"650 156 OFFCURVE",
"650 350 CURVE SMOOTH",
"650 543 OFFCURVE",
"543 700 OFFCURVE",
"350 700 CURVE SMOOTH"
);
},
{
closed = 1;
nodes = (
"220 120 LINE SMOOTH",
"214 120 OFFCURVE",
"210 124 OFFCURVE",
"210 130 CURVE SMOOTH",
"210 286 LINE SMOOTH",
"210 289 OFFCURVE",
"212 291 OFFCURVE",
"215 291 CURVE SMOOTH",
"246 291 LINE SMOOTH",
"281 291 OFFCURVE",
"307 315 OFFCURVE",
"307 349 CURVE SMOOTH",
"307 384 OFFCURVE",
"281 410 OFFCURVE",
"246 410 CURVE SMOOTH",
"215 410 LINE SMOOTH",
"212 410 OFFCURVE",
"210 412 OFFCURVE",
"210 415 CURVE SMOOTH",
"210 570 LINE SMOOTH",
"210 577 OFFCURVE",
"214 580 OFFCURVE",
"220 580 CURVE SMOOTH",
"350 580 LINE SMOOTH",
"476 580 OFFCURVE",
"530 476 OFFCURVE",
"530 350 CURVE SMOOTH",
"530 223 OFFCURVE",
"476 120 OFFCURVE",
"350 120 CURVE SMOOTH"
);
}
);
width = 700;
}
);
note = Dcroat;
unicode = 0110;
},
{
glyphname = E;
lastChange = "2016-06-29 14:38:00 +0000";
layers = (
{
layerId = "254266E2-2911-423D-9D37-8CC6105656EE";
paths = (
{
closed = 1;
nodes = (
"477 660 LINE SMOOTH",
"488 660 OFFCURVE",
"497 668 OFFCURVE",
"497 680 CURVE SMOOTH",
"497 691 OFFCURVE",
"488 700 OFFCURVE",
"477 700 CURVE SMOOTH",
"110 700 LINE SMOOTH",
"99 700 OFFCURVE",
"90 691 OFFCURVE",
"90 680 CURVE SMOOTH",
"90 20 LINE SMOOTH",
"90 9 OFFCURVE",
"99 0 OFFCURVE",
"110 0 CURVE SMOOTH",
"477 0 LINE SMOOTH",
"488 0 OFFCURVE",
"497 8 OFFCURVE",
"497 20 CURVE SMOOTH",
"497 31 OFFCURVE",
"488 40 OFFCURVE",
"477 40 CURVE SMOOTH",
"137 40 LINE SMOOTH",
"134 40 OFFCURVE",
"132 42 OFFCURVE",
"132 45 CURVE SMOOTH",
"132 336 LINE SMOOTH",
"132 339 OFFCURVE",
"134 341 OFFCURVE",
"137 341 CURVE SMOOTH",
"432 341 LINE SMOOTH",
"443 341 OFFCURVE",
"452 349 OFFCURVE",
"452 361 CURVE SMOOTH",
"452 372 OFFCURVE",
"443 381 OFFCURVE",
"432 381 CURVE SMOOTH",
"137 381 LINE SMOOTH",
"134 381 OFFCURVE",
"132 383 OFFCURVE",
"132 386 CURVE SMOOTH",
"132 655 LINE SMOOTH",
"132 658 OFFCURVE",
"134 660 OFFCURVE",
"137 660 CURVE SMOOTH"
);
}
);
width = 547;
},
{
layerId = "8816CCA3-DDF9-4C51-BD56-64EE3675A105";
paths = (
{
closed = 1;
nodes = (
"205 120 LINE SMOOTH",
"199 120 OFFCURVE",
"195 124 OFFCURVE",
"195 130 CURVE SMOOTH",
"195 285 LINE SMOOTH",
"195 292 OFFCURVE",
"199 295 OFFCURVE",
"205 295 CURVE SMOOTH",
"426 295 LINE SMOOTH",
"461 295 OFFCURVE",
"487 320 OFFCURVE",
"487 354 CURVE SMOOTH",
"487 389 OFFCURVE",
"461 415 OFFCURVE",
"426 415 CURVE SMOOTH",
"205 415 LINE SMOOTH",
"199 415 OFFCURVE",
"195 419 OFFCURVE",
"195 425 CURVE SMOOTH",
"195 570 LINE SMOOTH",
"195 577 OFFCURVE",
"198 580 OFFCURVE",
"205 580 CURVE SMOOTH",
"471 580 LINE SMOOTH",
"506 580 OFFCURVE",
"532 605 OFFCURVE",
"532 639 CURVE SMOOTH",
"532 674 OFFCURVE",
"506 700 OFFCURVE",
"471 700 CURVE SMOOTH",
"136 700 LINE SMOOTH",
"101 700 OFFCURVE",
"75 674 OFFCURVE",
"75 639 CURVE SMOOTH",
"75 61 LINE SMOOTH",
"75 26 OFFCURVE",
"101 0 OFFCURVE",
"136 0 CURVE SMOOTH",
"471 0 LINE SMOOTH",
"506 0 OFFCURVE",
"532 25 OFFCURVE",
"532 59 CURVE SMOOTH",
"532 94 OFFCURVE",
"506 120 OFFCURVE",
"471 120 CURVE SMOOTH"
);
}
);
width = 587;
}
);
leftMetricsKey = H;
note = E;
rightKerningGroup = E;
unicode = 0045;
},
{
glyphname = Eacute;
lastChange = "2016-06-29 14:38:00 +0000";
layers = (
{
layerId = "254266E2-2911-423D-9D37-8CC6105656EE";
paths = (
{
closed = 1;
nodes = (
"286 780 LINE SMOOTH",
"296 780 OFFCURVE",
"303 783 OFFCURVE",
"310 790 CURVE SMOOTH",
"389 866 LINE SMOOTH",
"400 876 OFFCURVE",
"398 887 OFFCURVE",
"385 894 CURVE SMOOTH",
"363 905 LINE",
"352 910 OFFCURVE",
"343 908 OFFCURVE",
"336 897 CURVE SMOOTH",
"274 804 LINE SMOOTH",
"265 791 OFFCURVE",
"267 780 OFFCURVE",
"279 780 CURVE SMOOTH"
);
},
{
closed = 1;
nodes = (
"477 660 LINE SMOOTH",
"488 660 OFFCURVE",
"497 668 OFFCURVE",
"497 680 CURVE SMOOTH",
"497 691 OFFCURVE",
"488 700 OFFCURVE",
"477 700 CURVE SMOOTH",
"110 700 LINE SMOOTH",
"99 700 OFFCURVE",
"90 691 OFFCURVE",
"90 680 CURVE SMOOTH",
"90 20 LINE SMOOTH",
"90 9 OFFCURVE",
"99 0 OFFCURVE",
"110 0 CURVE SMOOTH",
"477 0 LINE SMOOTH",
"488 0 OFFCURVE",
"497 8 OFFCURVE",
"497 20 CURVE SMOOTH",
"497 31 OFFCURVE",
"488 40 OFFCURVE",
"477 40 CURVE SMOOTH",
"135 40 LINE SMOOTH",
"132 40 OFFCURVE",
"130 42 OFFCURVE",
"130 45 CURVE SMOOTH",
"130 286 LINE SMOOTH",
"130 289 OFFCURVE",
"132 291 OFFCURVE",
"135 291 CURVE SMOOTH",
"432 291 LINE SMOOTH",
"443 291 OFFCURVE",
"452 299 OFFCURVE",
"452 311 CURVE SMOOTH",
"452 322 OFFCURVE",
"443 331 OFFCURVE",
"432 331 CURVE SMOOTH",
"135 331 LINE SMOOTH",
"132 331 OFFCURVE",
"130 333 OFFCURVE",
"130 336 CURVE SMOOTH",
"130 655 LINE SMOOTH",
"130 658 OFFCURVE",
"132 660 OFFCURVE",
"135 660 CURVE SMOOTH"
);
}
);
width = 547;
},
{
layerId = "8816CCA3-DDF9-4C51-BD56-64EE3675A105";
paths = (
{
closed = 1;
nodes = (
"226 840 LINE SMOOTH",
"204 806 OFFCURVE",
"212 780 OFFCURVE",
"245 780 CURVE SMOOTH",
"271 780 OFFCURVE",
"288 787 OFFCURVE",
"307 805 CURVE SMOOTH",
"357 852 LINE SMOOTH",
"385 878 OFFCURVE",
"380 905 OFFCURVE",
"345 921 CURVE",
"335 925 LINE",
"307 938 OFFCURVE",
"285 931 OFFCURVE",
"268 905 CURVE SMOOTH"
);
},
{
closed = 1;
nodes = (
"476 580 LINE SMOOTH",
"511 580 OFFCURVE",
"537 605 OFFCURVE",
"537 639 CURVE SMOOTH",
"537 674 OFFCURVE",
"511 700 OFFCURVE",
"476 700 CURVE SMOOTH",
"151 700 LINE SMOOTH",
"116 700 OFFCURVE",
"90 674 OFFCURVE",
"90 639 CURVE SMOOTH",
"90 61 LINE SMOOTH",
"90 26 OFFCURVE",
"116 0 OFFCURVE",
"151 0 CURVE SMOOTH",
"476 0 LINE SMOOTH",
"511 0 OFFCURVE",
"537 25 OFFCURVE",
"537 59 CURVE SMOOTH",
"537 94 OFFCURVE",
"511 120 OFFCURVE",
"476 120 CURVE SMOOTH",
"220 120 LINE SMOOTH",
"214 120 OFFCURVE",
"210 124 OFFCURVE",
"210 130 CURVE SMOOTH",
"210 240 LINE SMOOTH",
"210 247 OFFCURVE",
"214 250 OFFCURVE",
"220 250 CURVE SMOOTH",
"431 250 LINE SMOOTH",
"466 250 OFFCURVE",
"492 275 OFFCURVE",
"492 309 CURVE SMOOTH",
"492 344 OFFCURVE",
"466 370 OFFCURVE",
"431 370 CURVE SMOOTH",
"220 370 LINE SMOOTH",
"214 370 OFFCURVE",
"210 374 OFFCURVE",
"210 380 CURVE SMOOTH",
"210 570 LINE SMOOTH",
"210 577 OFFCURVE",
"213 580 OFFCURVE",
"220 580 CURVE SMOOTH"
);
}
);
width = 587;
}
);
note = Eacute;
unicode = 00C9;
},
{
glyphname = Ecaron;
lastChange = "2016-06-29 14:38:00 +0000";
layers = (
{
layerId = "254266E2-2911-423D-9D37-8CC6105656EE";
paths = (
{
closed = 1;
nodes = (
"208 892 LINE",
"201 899 OFFCURVE",
"194 902 OFFCURVE",
"184 902 CURVE SMOOTH",
"167 902 OFFCURVE",
"162 891 OFFCURVE",
"173 878 CURVE SMOOTH",
"244 792 LINE",
"250 783 OFFCURVE",
"257 780 OFFCURVE",
"268 780 CURVE SMOOTH",
"278 780 LINE SMOOTH",
"289 780 OFFCURVE",
"296 783 OFFCURVE",
"302 792 CURVE",
"373 877 LINE SMOOTH",
"384 891 OFFCURVE",
"382 902 OFFCURVE",
"370 902 CURVE SMOOTH",
"360 902 LINE SMOOTH",
"350 902 OFFCURVE",
"343 899 OFFCURVE",
"336 892 CURVE",
"286 847 LINE",
"277 838 OFFCURVE",
"267 838 OFFCURVE",
"258 847 CURVE"
);
},
{
closed = 1;
nodes = (
"477 660 LINE SMOOTH",
"488 660 OFFCURVE",
"497 668 OFFCURVE",
"497 680 CURVE SMOOTH",
"497 691 OFFCURVE",
"488 700 OFFCURVE",
"477 700 CURVE SMOOTH",
"110 700 LINE SMOOTH",
"99 700 OFFCURVE",
"90 691 OFFCURVE",
"90 680 CURVE SMOOTH",
"90 20 LINE SMOOTH",
"90 9 OFFCURVE",
"99 0 OFFCURVE",
"110 0 CURVE SMOOTH",
"477 0 LINE SMOOTH",
"488 0 OFFCURVE",
"497 8 OFFCURVE",
"497 20 CURVE SMOOTH",
"497 31 OFFCURVE",
"488 40 OFFCURVE",
"477 40 CURVE SMOOTH",
"135 40 LINE SMOOTH",
"132 40 OFFCURVE",
"130 42 OFFCURVE",
"130 45 CURVE SMOOTH",
"130 286 LINE SMOOTH",
"130 289 OFFCURVE",
"132 291 OFFCURVE",
"135 291 CURVE SMOOTH",
"432 291 LINE SMOOTH",
"443 291 OFFCURVE",
"452 299 OFFCURVE",
"452 311 CURVE SMOOTH",
"452 322 OFFCURVE",
"443 331 OFFCURVE",
"432 331 CURVE SMOOTH",
"135 331 LINE SMOOTH",
"132 331 OFFCURVE",
"130 333 OFFCURVE",
"130 336 CURVE SMOOTH",
"130 655 LINE SMOOTH",
"130 658 OFFCURVE",
"132 660 OFFCURVE",
"135 660 CURVE SMOOTH"
);
}
);
width = 547;
},
{
layerId = "8816CCA3-DDF9-4C51-BD56-64EE3675A105";
paths = (
{
closed = 1;
nodes = (
"213 810 LINE SMOOTH",
"229 789 OFFCURVE",
"247 780 OFFCURVE",
"274 780 CURVE SMOOTH",
"310 780 LINE SMOOTH",
"337 780 OFFCURVE",
"355 789 OFFCURVE",
"371 810 CURVE SMOOTH",
"415 865 LINE SMOOTH",
"442 898 OFFCURVE",
"437 926 OFFCURVE",
"405 926 CURVE SMOOTH",
"380 926 OFFCURVE",
"362 919 OFFCURVE",
"343 903 CURVE SMOOTH",
"293 860 LINE",
"243 903 LINE SMOOTH",
"224 919 OFFCURVE",
"211 926 OFFCURVE",
"198 926 CURVE SMOOTH",
"156 926 OFFCURVE",
"142 898 OFFCURVE",
"169 865 CURVE SMOOTH"
);
},
{
closed = 1;
nodes = (
"476 580 LINE SMOOTH",
"511 580 OFFCURVE",
"537 605 OFFCURVE",
"537 639 CURVE SMOOTH",
"537 674 OFFCURVE",
"511 700 OFFCURVE",
"476 700 CURVE SMOOTH",
"151 700 LINE SMOOTH",
"116 700 OFFCURVE",
"90 674 OFFCURVE",
"90 639 CURVE SMOOTH",
"90 61 LINE SMOOTH",
"90 26 OFFCURVE",
"116 0 OFFCURVE",
"151 0 CURVE SMOOTH",
"476 0 LINE SMOOTH",
"511 0 OFFCURVE",
"537 25 OFFCURVE",
"537 59 CURVE SMOOTH",
"537 94 OFFCURVE",
"511 120 OFFCURVE",
"476 120 CURVE SMOOTH",
"220 120 LINE SMOOTH",
"214 120 OFFCURVE",
"210 124 OFFCURVE",
"210 130 CURVE SMOOTH",
"210 240 LINE SMOOTH",
"210 247 OFFCURVE",
"214 250 OFFCURVE",
"220 250 CURVE SMOOTH",
"431 250 LINE SMOOTH",
"466 250 OFFCURVE",
"492 275 OFFCURVE",
"492 309 CURVE SMOOTH",
"492 344 OFFCURVE",
"466 370 OFFCURVE",
"431 370 CURVE SMOOTH",
"220 370 LINE SMOOTH",
"214 370 OFFCURVE",
"210 374 OFFCURVE",
"210 380 CURVE SMOOTH",
"210 570 LINE SMOOTH",
"210 577 OFFCURVE",
"213 580 OFFCURVE",
"220 580 CURVE SMOOTH"
);
}
);
width = 587;
}
);
note = Ecaron;
unicode = 011A;
},
{
glyphname = Ecircumflex;
lastChange = "2016-06-29 14:38:00 +0000";
layers = (
{
layerId = "254266E2-2911-423D-9D37-8CC6105656EE";
paths = (
{
closed = 1;
nodes = (
"258 835 LINE",
"267 844 OFFCURVE",
"277 844 OFFCURVE",
"286 835 CURVE",
"336 790 LINE",
"343 783 OFFCURVE",
"350 780 OFFCURVE",
"360 780 CURVE SMOOTH",
"370 780 LINE SMOOTH",
"382 780 OFFCURVE",
"384 791 OFFCURVE",
"373 805 CURVE SMOOTH",
"302 890 LINE",
"296 899 OFFCURVE",
"289 902 OFFCURVE",
"278 902 CURVE SMOOTH",
"268 902 LINE SMOOTH",
"257 902 OFFCURVE",
"250 899 OFFCURVE",
"244 890 CURVE",
"173 804 LINE SMOOTH",
"162 791 OFFCURVE",
"167 780 OFFCURVE",
"184 780 CURVE SMOOTH",
"194 780 OFFCURVE",
"201 783 OFFCURVE",
"208 790 CURVE"
);
},
{
closed = 1;
nodes = (
"477 660 LINE SMOOTH",
"488 660 OFFCURVE",
"497 668 OFFCURVE",
"497 680 CURVE SMOOTH",
"497 691 OFFCURVE",
"488 700 OFFCURVE",
"477 700 CURVE SMOOTH",
"110 700 LINE SMOOTH",
"99 700 OFFCURVE",
"90 691 OFFCURVE",
"90 680 CURVE SMOOTH",
"90 20 LINE SMOOTH",
"90 9 OFFCURVE",
"99 0 OFFCURVE",
"110 0 CURVE SMOOTH",
"477 0 LINE SMOOTH",
"488 0 OFFCURVE",
"497 8 OFFCURVE",
"497 20 CURVE SMOOTH",
"497 31 OFFCURVE",
"488 40 OFFCURVE",
"477 40 CURVE SMOOTH",
"135 40 LINE SMOOTH",
"132 40 OFFCURVE",
"130 42 OFFCURVE",
"130 45 CURVE SMOOTH",
"130 286 LINE SMOOTH",
"130 289 OFFCURVE",
"132 291 OFFCURVE",
"135 291 CURVE SMOOTH",
"432 291 LINE SMOOTH",
"443 291 OFFCURVE",
"452 299 OFFCURVE",
"452 311 CURVE SMOOTH",
"452 322 OFFCURVE",
"443 331 OFFCURVE",
"432 331 CURVE SMOOTH",
"135 331 LINE SMOOTH",
"132 331 OFFCURVE",
"130 333 OFFCURVE",
"130 336 CURVE SMOOTH",
"130 655 LINE SMOOTH",
"130 658 OFFCURVE",
"132 660 OFFCURVE",
"135 660 CURVE SMOOTH"
);
}
);
width = 547;
},
{
layerId = "8816CCA3-DDF9-4C51-BD56-64EE3675A105";
paths = (
{
closed = 1;
nodes = (
"170 841 LINE SMOOTH",
"143 808 OFFCURVE",
"148 780 OFFCURVE",
"180 780 CURVE SMOOTH",
"205 780 OFFCURVE",
"223 787 OFFCURVE",
"242 803 CURVE SMOOTH",
"257 816 LINE SMOOTH",
"280 837 OFFCURVE",
"304 837 OFFCURVE",
"327 816 CURVE SMOOTH",
"342 803 LINE SMOOTH",
"361 787 OFFCURVE",
"379 780 OFFCURVE",
"404 780 CURVE SMOOTH",
"417 780 LINE SMOOTH",
"443 780 OFFCURVE",
"443 808 OFFCURVE",
"416 841 CURVE SMOOTH",
"372 897 LINE SMOOTH",
"356 917 OFFCURVE",
"338 926 OFFCURVE",
"311 926 CURVE SMOOTH",
"275 926 LINE SMOOTH",
"248 926 OFFCURVE",
"230 917 OFFCURVE",
"214 897 CURVE SMOOTH"
);
},
{
closed = 1;
nodes = (
"476 580 LINE SMOOTH",
"511 580 OFFCURVE",
"537 605 OFFCURVE",
"537 639 CURVE SMOOTH",
"537 674 OFFCURVE",
"511 700 OFFCURVE",
"476 700 CURVE SMOOTH",
"151 700 LINE SMOOTH",
"116 700 OFFCURVE",
"90 674 OFFCURVE",
"90 639 CURVE SMOOTH",
"90 61 LINE SMOOTH",
"90 26 OFFCURVE",
"116 0 OFFCURVE",
"151 0 CURVE SMOOTH",
"476 0 LINE SMOOTH",
"511 0 OFFCURVE",
"537 25 OFFCURVE",
"537 59 CURVE SMOOTH",
"537 94 OFFCURVE",
"511 120 OFFCURVE",
"476 120 CURVE SMOOTH",
"220 120 LINE SMOOTH",
"214 120 OFFCURVE",
"210 124 OFFCURVE",
"210 130 CURVE SMOOTH",
"210 240 LINE SMOOTH",
"210 247 OFFCURVE",
"214 250 OFFCURVE",
"220 250 CURVE SMOOTH",
"431 250 LINE SMOOTH",
"466 250 OFFCURVE",
"492 275 OFFCURVE",
"492 309 CURVE SMOOTH",
"492 344 OFFCURVE",
"466 370 OFFCURVE",
"431 370 CURVE SMOOTH",
"220 370 LINE SMOOTH",
"214 370 OFFCURVE",
"210 374 OFFCURVE",
"210 380 CURVE SMOOTH",
"210 570 LINE SMOOTH",
"210 577 OFFCURVE",
"213 580 OFFCURVE",
"220 580 CURVE SMOOTH"
);
}
);
width = 587;
}
);
note = Ecircumflex;
unicode = 00CA;
},
{
glyphname = Edieresis;
lastChange = "2016-06-29 14:38:00 +0000";
layers = (
{
layerId = "254266E2-2911-423D-9D37-8CC6105656EE";
paths = (
{
closed = 1;
nodes = (
"213 780 OFFCURVE",
"227 795 OFFCURVE",
"227 816 CURVE SMOOTH",
"227 824 LINE SMOOTH",
"227 845 OFFCURVE",
"213 860 OFFCURVE",
"194 860 CURVE SMOOTH",
"173 860 OFFCURVE",
"158 845 OFFCURVE",
"158 824 CURVE SMOOTH",
"158 816 LINE SMOOTH",
"158 795 OFFCURVE",
"172 780 OFFCURVE",
"193 780 CURVE SMOOTH"
);
},
{
closed = 1;
nodes = (
"376 780 OFFCURVE",
"390 795 OFFCURVE",
"390 816 CURVE SMOOTH",
"390 824 LINE SMOOTH",
"390 845 OFFCURVE",
"376 860 OFFCURVE",
"357 860 CURVE SMOOTH",
"336 860 OFFCURVE",
"321 845 OFFCURVE",
"321 824 CURVE SMOOTH",
"321 816 LINE SMOOTH",
"321 795 OFFCURVE",
"335 780 OFFCURVE",
"356 780 CURVE SMOOTH"
);
},
{
closed = 1;
nodes = (
"477 660 LINE SMOOTH",
"488 660 OFFCURVE",
"497 668 OFFCURVE",
"497 680 CURVE SMOOTH",
"497 691 OFFCURVE",
"488 700 OFFCURVE",
"477 700 CURVE SMOOTH",
"110 700 LINE SMOOTH",
"99 700 OFFCURVE",
"90 691 OFFCURVE",
"90 680 CURVE SMOOTH",
"90 20 LINE SMOOTH",
"90 9 OFFCURVE",
"99 0 OFFCURVE",
"110 0 CURVE SMOOTH",
"477 0 LINE SMOOTH",
"488 0 OFFCURVE",
"497 8 OFFCURVE",
"497 20 CURVE SMOOTH",
"497 31 OFFCURVE",
"488 40 OFFCURVE",
"477 40 CURVE SMOOTH",
"135 40 LINE SMOOTH",
"132 40 OFFCURVE",
"130 42 OFFCURVE",
"130 45 CURVE SMOOTH",
"130 286 LINE SMOOTH",
"130 289 OFFCURVE",
"132 291 OFFCURVE",
"135 291 CURVE SMOOTH",
"432 291 LINE SMOOTH",
"443 291 OFFCURVE",
"452 299 OFFCURVE",
"452 311 CURVE SMOOTH",
"452 322 OFFCURVE",
"443 331 OFFCURVE",
"432 331 CURVE SMOOTH",
"135 331 LINE SMOOTH",
"132 331 OFFCURVE",
"130 333 OFFCURVE",
"130 336 CURVE SMOOTH",
"130 655 LINE SMOOTH",
"130 658 OFFCURVE",
"132 660 OFFCURVE",
"135 660 CURVE SMOOTH"
);
}
);
width = 547;
},
{
layerId = "8816CCA3-DDF9-4C51-BD56-64EE3675A105";
paths = (
{
closed = 1;
nodes = (
"133 830 LINE SMOOTH",
"133 797 OFFCURVE",
"151 780 OFFCURVE",
"183 780 CURVE SMOOTH",
"206 780 LINE SMOOTH",
"239 780 OFFCURVE",
"256 797 OFFCURVE",
"256 830 CURVE SMOOTH",
"256 848 LINE SMOOTH",
"256 881 OFFCURVE",
"238 898 OFFCURVE",
"206 898 CURVE SMOOTH",
"183 898 LINE SMOOTH",
"151 898 OFFCURVE",
"133 880 OFFCURVE",
"133 848 CURVE SMOOTH"
);
},
{
closed = 1;
nodes = (
"332 830 LINE SMOOTH",
"332 797 OFFCURVE",
"350 780 OFFCURVE",
"382 780 CURVE SMOOTH",
"405 780 LINE SMOOTH",
"438 780 OFFCURVE",
"455 797 OFFCURVE",
"455 830 CURVE SMOOTH",
"455 848 LINE SMOOTH",
"455 881 OFFCURVE",
"437 898 OFFCURVE",
"405 898 CURVE SMOOTH",
"382 898 LINE SMOOTH",
"350 898 OFFCURVE",
"332 880 OFFCURVE",
"332 848 CURVE SMOOTH"
);
},
{
closed = 1;
nodes = (
"476 580 LINE SMOOTH",
"511 580 OFFCURVE",
"537 605 OFFCURVE",
"537 639 CURVE SMOOTH",
"537 674 OFFCURVE",
"511 700 OFFCURVE",
"476 700 CURVE SMOOTH",
"151 700 LINE SMOOTH",
"116 700 OFFCURVE",
"90 674 OFFCURVE",
"90 639 CURVE SMOOTH",
"90 61 LINE SMOOTH",
"90 26 OFFCURVE",
"116 0 OFFCURVE",
"151 0 CURVE SMOOTH",
"476 0 LINE SMOOTH",
"511 0 OFFCURVE",
"537 25 OFFCURVE",
"537 59 CURVE SMOOTH",
"537 94 OFFCURVE",
"511 120 OFFCURVE",
"476 120 CURVE SMOOTH",
"220 120 LINE SMOOTH",
"214 120 OFFCURVE",
"210 124 OFFCURVE",
"210 130 CURVE SMOOTH",
"210 240 LINE SMOOTH",
"210 247 OFFCURVE",
"214 250 OFFCURVE",
"220 250 CURVE SMOOTH",
"431 250 LINE SMOOTH",
"466 250 OFFCURVE",
"492 275 OFFCURVE",
"492 309 CURVE SMOOTH",
"492 344 OFFCURVE",
"466 370 OFFCURVE",
"431 370 CURVE SMOOTH",
"220 370 LINE SMOOTH",
"214 370 OFFCURVE",
"210 374 OFFCURVE",
"210 380 CURVE SMOOTH",
"210 570 LINE SMOOTH",
"210 577 OFFCURVE",
"213 580 OFFCURVE",
"220 580 CURVE SMOOTH"
);
}
);
width = 587;
}
);
note = Edieresis;
unicode = 00CB;
},
{
glyphname = Edotaccent;
lastChange = "2016-06-29 14:38:00 +0000";
layers = (
{
layerId = "254266E2-2911-423D-9D37-8CC6105656EE";
paths = (
{
closed = 1;
nodes = (
"294 780 OFFCURVE",
"308 795 OFFCURVE",
"308 816 CURVE SMOOTH",
"308 824 LINE SMOOTH",
"308 845 OFFCURVE",
"294 860 OFFCURVE",
"275 860 CURVE SMOOTH",
"254 860 OFFCURVE",
"239 845 OFFCURVE",
"239 824 CURVE SMOOTH",
"239 816 LINE SMOOTH",
"239 795 OFFCURVE",
"253 780 OFFCURVE",
"274 780 CURVE SMOOTH"
);
},
{
closed = 1;
nodes = (
"477 660 LINE SMOOTH",
"488 660 OFFCURVE",
"497 668 OFFCURVE",
"497 680 CURVE SMOOTH",
"497 691 OFFCURVE",
"488 700 OFFCURVE",
"477 700 CURVE SMOOTH",
"110 700 LINE SMOOTH",
"99 700 OFFCURVE",
"90 691 OFFCURVE",
"90 680 CURVE SMOOTH",
"90 20 LINE SMOOTH",
"90 9 OFFCURVE",
"99 0 OFFCURVE",
"110 0 CURVE SMOOTH",
"477 0 LINE SMOOTH",
"488 0 OFFCURVE",
"497 8 OFFCURVE",
"497 20 CURVE SMOOTH",
"497 31 OFFCURVE",
"488 40 OFFCURVE",
"477 40 CURVE SMOOTH",
"135 40 LINE SMOOTH",
"132 40 OFFCURVE",
"130 42 OFFCURVE",
"130 45 CURVE SMOOTH",
"130 286 LINE SMOOTH",
"130 289 OFFCURVE",
"132 291 OFFCURVE",
"135 291 CURVE SMOOTH",
"432 291 LINE SMOOTH",
"443 291 OFFCURVE",
"452 299 OFFCURVE",
"452 311 CURVE SMOOTH",
"452 322 OFFCURVE",
"443 331 OFFCURVE",
"432 331 CURVE SMOOTH",
"135 331 LINE SMOOTH",
"132 331 OFFCURVE",
"130 333 OFFCURVE",
"130 336 CURVE SMOOTH",
"130 655 LINE SMOOTH",
"130 658 OFFCURVE",
"132 660 OFFCURVE",
"135 660 CURVE SMOOTH"
);
}
);
width = 547;
},
{
layerId = "8816CCA3-DDF9-4C51-BD56-64EE3675A105";
paths = (
{
closed = 1;
nodes = (
"231 830 LINE SMOOTH",
"231 797 OFFCURVE",
"248 780 OFFCURVE",
"281 780 CURVE SMOOTH",
"307 780 LINE SMOOTH",
"340 780 OFFCURVE",
"357 798 OFFCURVE",
"357 830 CURVE SMOOTH",
"357 849 LINE SMOOTH",
"357 882 OFFCURVE",
"340 899 OFFCURVE",
"307 899 CURVE SMOOTH",
"281 899 LINE SMOOTH",
"249 899 OFFCURVE",
"231 881 OFFCURVE",
"231 849 CURVE SMOOTH"
);
},
{
closed = 1;
nodes = (
"476 580 LINE SMOOTH",
"511 580 OFFCURVE",
"537 605 OFFCURVE",
"537 639 CURVE SMOOTH",
"537 674 OFFCURVE",
"511 700 OFFCURVE",
"476 700 CURVE SMOOTH",
"151 700 LINE SMOOTH",
"116 700 OFFCURVE",
"90 674 OFFCURVE",
"90 639 CURVE SMOOTH",
"90 61 LINE SMOOTH",
"90 26 OFFCURVE",
"116 0 OFFCURVE",
"151 0 CURVE SMOOTH",
"476 0 LINE SMOOTH",
"511 0 OFFCURVE",
"537 25 OFFCURVE",
"537 59 CURVE SMOOTH",
"537 94 OFFCURVE",
"511 120 OFFCURVE",
"476 120 CURVE SMOOTH",
"220 120 LINE SMOOTH",
"214 120 OFFCURVE",
"210 124 OFFCURVE",
"210 130 CURVE SMOOTH",
"210 240 LINE SMOOTH",
"210 247 OFFCURVE",
"214 250 OFFCURVE",
"220 250 CURVE SMOOTH",
"431 250 LINE SMOOTH",
"466 250 OFFCURVE",
"492 275 OFFCURVE",
"492 309 CURVE SMOOTH",
"492 344 OFFCURVE",
"466 370 OFFCURVE",
"431 370 CURVE SMOOTH",
"220 370 LINE SMOOTH",
"214 370 OFFCURVE",
"210 374 OFFCURVE",
"210 380 CURVE SMOOTH",
"210 570 LINE SMOOTH",
"210 577 OFFCURVE",
"213 580 OFFCURVE",
"220 580 CURVE SMOOTH"
);
}
);
width = 587;
}
);
note = Edotaccent;
unicode = 0116;
},
{
glyphname = Egrave;
lastChange = "2016-06-29 14:38:00 +0000";
layers = (
{
layerId = "254266E2-2911-423D-9D37-8CC6105656EE";
paths = (
{
closed = 1;
nodes = (
"275 790 LINE SMOOTH",
"282 783 OFFCURVE",
"289 780 OFFCURVE",
"298 780 CURVE SMOOTH",
"314 780 OFFCURVE",
"320 791 OFFCURVE",
"311 804 CURVE SMOOTH",
"249 897 LINE SMOOTH",
"242 908 OFFCURVE",
"233 910 OFFCURVE",
"222 905 CURVE",
"200 894 LINE SMOOTH",
"187 887 OFFCURVE",
"185 876 OFFCURVE",
"196 866 CURVE SMOOTH"
);
},
{
closed = 1;
nodes = (
"477 660 LINE SMOOTH",
"488 660 OFFCURVE",
"497 668 OFFCURVE",
"497 680 CURVE SMOOTH",
"497 691 OFFCURVE",
"488 700 OFFCURVE",
"477 700 CURVE SMOOTH",
"110 700 LINE SMOOTH",
"99 700 OFFCURVE",
"90 691 OFFCURVE",
"90 680 CURVE SMOOTH",
"90 20 LINE SMOOTH",
"90 9 OFFCURVE",
"99 0 OFFCURVE",
"110 0 CURVE SMOOTH",
"477 0 LINE SMOOTH",
"488 0 OFFCURVE",
"497 8 OFFCURVE",
"497 20 CURVE SMOOTH",
"497 31 OFFCURVE",
"488 40 OFFCURVE",
"477 40 CURVE SMOOTH",
"135 40 LINE SMOOTH",
"132 40 OFFCURVE",
"130 42 OFFCURVE",
"130 45 CURVE SMOOTH",
"130 286 LINE SMOOTH",
"130 289 OFFCURVE",
"132 291 OFFCURVE",
"135 291 CURVE SMOOTH",
"432 291 LINE SMOOTH",
"443 291 OFFCURVE",
"452 299 OFFCURVE",
"452 311 CURVE SMOOTH",
"452 322 OFFCURVE",
"443 331 OFFCURVE",
"432 331 CURVE SMOOTH",
"135 331 LINE SMOOTH",
"132 331 OFFCURVE",
"130 333 OFFCURVE",
"130 336 CURVE SMOOTH",
"130 655 LINE SMOOTH",
"130 658 OFFCURVE",
"132 660 OFFCURVE",
"135 660 CURVE SMOOTH"
);
}
);
width = 547;
},
{
layerId = "8816CCA3-DDF9-4C51-BD56-64EE3675A105";
paths = (
{
closed = 1;
nodes = (
"264 805 LINE SMOOTH",
"283 787 OFFCURVE",
"296 780 OFFCURVE",
"312 780 CURVE SMOOTH",
"353 780 OFFCURVE",
"367 806 OFFCURVE",
"345 840 CURVE SMOOTH",
"303 905 LINE SMOOTH",
"286 931 OFFCURVE",
"264 938 OFFCURVE",
"236 925 CURVE",
"226 921 LINE",
"191 905 OFFCURVE",
"186 878 OFFCURVE",
"214 852 CURVE SMOOTH"
);
},
{
closed = 1;
nodes = (
"476 580 LINE SMOOTH",
"511 580 OFFCURVE",
"537 605 OFFCURVE",
"537 639 CURVE SMOOTH",
"537 674 OFFCURVE",
"511 700 OFFCURVE",
"476 700 CURVE SMOOTH",
"151 700 LINE SMOOTH",
"116 700 OFFCURVE",
"90 674 OFFCURVE",
"90 639 CURVE SMOOTH",
"90 61 LINE SMOOTH",
"90 26 OFFCURVE",
"116 0 OFFCURVE",
"151 0 CURVE SMOOTH",
"476 0 LINE SMOOTH",
"511 0 OFFCURVE",
"537 25 OFFCURVE",
"537 59 CURVE SMOOTH",
"537 94 OFFCURVE",
"511 120 OFFCURVE",
"476 120 CURVE SMOOTH",
"220 120 LINE SMOOTH",
"214 120 OFFCURVE",
"210 124 OFFCURVE",
"210 130 CURVE SMOOTH",
"210 240 LINE SMOOTH",
"210 247 OFFCURVE",
"214 250 OFFCURVE",
"220 250 CURVE SMOOTH",
"431 250 LINE SMOOTH",
"466 250 OFFCURVE",
"492 275 OFFCURVE",
"492 309 CURVE SMOOTH",
"492 344 OFFCURVE",
"466 370 OFFCURVE",
"431 370 CURVE SMOOTH",
"220 370 LINE SMOOTH",
"214 370 OFFCURVE",
"210 374 OFFCURVE",
"210 380 CURVE SMOOTH",
"210 570 LINE SMOOTH",
"210 577 OFFCURVE",
"213 580 OFFCURVE",
"220 580 CURVE SMOOTH"
);
}
);
width = 587;
}
);
note = Egrave;
unicode = 00C8;
},
{
glyphname = Emacron;
lastChange = "2016-06-29 14:38:00 +0000";
layers = (
{
layerId = "254266E2-2911-423D-9D37-8CC6105656EE";
paths = (
{
closed = 1;
nodes = (
"164 826 LINE SMOOTH",
"153 826 OFFCURVE",
"144 818 OFFCURVE",
"144 806 CURVE SMOOTH",
"144 794 OFFCURVE",
"153 786 OFFCURVE",
"164 786 CURVE SMOOTH",
"423 786 LINE SMOOTH",
"434 786 OFFCURVE",
"443 794 OFFCURVE",
"443 806 CURVE SMOOTH",
"443 818 OFFCURVE",
"434 826 OFFCURVE",
"423 826 CURVE SMOOTH"
);
},
{
closed = 1;
nodes = (
"477 660 LINE SMOOTH",
"488 660 OFFCURVE",
"497 668 OFFCURVE",
"497 680 CURVE SMOOTH",
"497 691 OFFCURVE",
"488 700 OFFCURVE",
"477 700 CURVE SMOOTH",
"110 700 LINE SMOOTH",
"99 700 OFFCURVE",
"90 691 OFFCURVE",
"90 680 CURVE SMOOTH",
"90 20 LINE SMOOTH",
"90 9 OFFCURVE",
"99 0 OFFCURVE",
"110 0 CURVE SMOOTH",
"477 0 LINE SMOOTH",
"488 0 OFFCURVE",
"497 8 OFFCURVE",
"497 20 CURVE SMOOTH",
"497 31 OFFCURVE",
"488 40 OFFCURVE",
"477 40 CURVE SMOOTH",
"135 40 LINE SMOOTH",
"132 40 OFFCURVE",
"130 42 OFFCURVE",
"130 45 CURVE SMOOTH",
"130 286 LINE SMOOTH",
"130 289 OFFCURVE",
"132 291 OFFCURVE",
"135 291 CURVE SMOOTH",
"432 291 LINE SMOOTH",
"443 291 OFFCURVE",
"452 299 OFFCURVE",
"452 311 CURVE SMOOTH",
"452 322 OFFCURVE",
"443 331 OFFCURVE",
"432 331 CURVE SMOOTH",
"135 331 LINE SMOOTH",
"132 331 OFFCURVE",
"130 333 OFFCURVE",
"130 336 CURVE SMOOTH",
"130 655 LINE SMOOTH",
"130 658 OFFCURVE",
"132 660 OFFCURVE",
"135 660 CURVE SMOOTH"
);
}
);
width = 547;
},
{
layerId = "8816CCA3-DDF9-4C51-BD56-64EE3675A105";
paths = (
{
closed = 1;
nodes = (
"123 796 OFFCURVE",
"141 780 OFFCURVE",
"173 780 CURVE SMOOTH",
"415 780 LINE SMOOTH",
"448 780 OFFCURVE",
"465 796 OFFCURVE",
"465 825 CURVE SMOOTH",
"465 853 OFFCURVE",
"447 869 OFFCURVE",
"415 869 CURVE SMOOTH",
"173 869 LINE SMOOTH",
"141 869 OFFCURVE",
"123 853 OFFCURVE",
"123 825 CURVE SMOOTH"
);
},
{
closed = 1;
nodes = (
"476 580 LINE SMOOTH",
"511 580 OFFCURVE",
"537 605 OFFCURVE",
"537 639 CURVE SMOOTH",
"537 674 OFFCURVE",
"511 700 OFFCURVE",
"476 700 CURVE SMOOTH",
"151 700 LINE SMOOTH",
"116 700 OFFCURVE",
"90 674 OFFCURVE",
"90 639 CURVE SMOOTH",
"90 61 LINE SMOOTH",
"90 26 OFFCURVE",
"116 0 OFFCURVE",
"151 0 CURVE SMOOTH",
"476 0 LINE SMOOTH",
"511 0 OFFCURVE",
"537 25 OFFCURVE",
"537 59 CURVE SMOOTH",
"537 94 OFFCURVE",
"511 120 OFFCURVE",
"476 120 CURVE SMOOTH",
"220 120 LINE SMOOTH",
"214 120 OFFCURVE",
"210 124 OFFCURVE",
"210 130 CURVE SMOOTH",
"210 240 LINE SMOOTH",
"210 247 OFFCURVE",
"214 250 OFFCURVE",
"220 250 CURVE SMOOTH",
"431 250 LINE SMOOTH",
"466 250 OFFCURVE",
"492 275 OFFCURVE",
"492 309 CURVE SMOOTH",
"492 344 OFFCURVE",
"466 370 OFFCURVE",
"431 370 CURVE SMOOTH",
"220 370 LINE SMOOTH",
"214 370 OFFCURVE",
"210 374 OFFCURVE",
"210 380 CURVE SMOOTH",
"210 570 LINE SMOOTH",
"210 577 OFFCURVE",
"213 580 OFFCURVE",
"220 580 CURVE SMOOTH"
);
}
);
width = 587;
}
);
note = Emacron;
unicode = 0112;
},
{
glyphname = Eogonek;
lastChange = "2016-06-29 14:38:00 +0000";
layers = (
{
layerId = "254266E2-2911-423D-9D37-8CC6105656EE";
paths = (
{
closed = 1;
nodes = (
"135 40 LINE SMOOTH",
"132 40 OFFCURVE",
"130 42 OFFCURVE",
"130 45 CURVE SMOOTH",
"130 286 LINE SMOOTH",
"130 289 OFFCURVE",
"132 291 OFFCURVE",
"135 291 CURVE SMOOTH",
"432 291 LINE SMOOTH",
"443 291 OFFCURVE",
"452 299 OFFCURVE",
"452 311 CURVE SMOOTH",
"452 322 OFFCURVE",
"443 331 OFFCURVE",
"432 331 CURVE SMOOTH",
"135 331 LINE SMOOTH",
"132 331 OFFCURVE",
"130 333 OFFCURVE",
"130 336 CURVE SMOOTH",
"130 655 LINE SMOOTH",
"130 658 OFFCURVE",
"132 660 OFFCURVE",
"135 660 CURVE SMOOTH",
"477 660 LINE SMOOTH",
"488 660 OFFCURVE",
"497 668 OFFCURVE",
"497 680 CURVE SMOOTH",
"497 691 OFFCURVE",
"488 700 OFFCURVE",
"477 700 CURVE SMOOTH",
"110 700 LINE SMOOTH",
"99 700 OFFCURVE",
"90 691 OFFCURVE",
"90 680 CURVE SMOOTH",
"90 20 LINE SMOOTH",
"90 9 OFFCURVE",
"99 0 OFFCURVE",
"110 0 CURVE SMOOTH",
"340 0 LINE",
"310 -19 OFFCURVE",
"281 -50 OFFCURVE",
"281 -103 CURVE SMOOTH",
"281 -199 OFFCURVE",
"397 -205 OFFCURVE",
"446 -177 CURVE SMOOTH",
"462 -168 OFFCURVE",
"462 -158 OFFCURVE",
"458 -150 CURVE SMOOTH",
"454 -142 OFFCURVE",
"444 -140 OFFCURVE",
"432 -145 CURVE SMOOTH",
"417 -151 OFFCURVE",
"351 -165 OFFCURVE",
"332 -104 CURVE SMOOTH",
"325 -81 OFFCURVE",
"326 -31 OFFCURVE",
"386 0 CURVE",
"477 0 LINE SMOOTH",
"488 0 OFFCURVE",
"497 8 OFFCURVE",
"497 20 CURVE SMOOTH",
"497 31 OFFCURVE",
"488 40 OFFCURVE",
"477 40 CURVE SMOOTH"
);
}
);
width = 567;
},
{
layerId = "8816CCA3-DDF9-4C51-BD56-64EE3675A105";
paths = (
{
closed = 1;
nodes = (
"220 120 LINE SMOOTH",
"214 120 OFFCURVE",
"210 124 OFFCURVE",
"210 130 CURVE SMOOTH",
"210 240 LINE SMOOTH",
"210 247 OFFCURVE",
"214 250 OFFCURVE",
"220 250 CURVE SMOOTH",
"431 250 LINE SMOOTH",
"466 250 OFFCURVE",
"492 275 OFFCURVE",
"492 309 CURVE SMOOTH",
"492 344 OFFCURVE",
"466 370 OFFCURVE",
"431 370 CURVE SMOOTH",
"220 370 LINE SMOOTH",
"214 370 OFFCURVE",
"210 374 OFFCURVE",
"210 380 CURVE SMOOTH",
"210 570 LINE SMOOTH",
"210 577 OFFCURVE",
"213 580 OFFCURVE",
"220 580 CURVE SMOOTH",
"476 580 LINE SMOOTH",
"511 580 OFFCURVE",
"537 605 OFFCURVE",
"537 639 CURVE SMOOTH",
"537 674 OFFCURVE",
"511 700 OFFCURVE",
"476 700 CURVE SMOOTH",
"151 700 LINE SMOOTH",
"116 700 OFFCURVE",
"90 674 OFFCURVE",
"90 639 CURVE SMOOTH",
"90 61 LINE SMOOTH",
"90 26 OFFCURVE",
"116 0 OFFCURVE",
"151 0 CURVE SMOOTH",
"320 0 LINE",
"297 -23 OFFCURVE",
"281 -54 OFFCURVE",
"281 -95 CURVE SMOOTH",
"281 -189 OFFCURVE",
"383 -232 OFFCURVE",
"476 -192 CURVE SMOOTH",
"497 -183 OFFCURVE",
"502 -164 OFFCURVE",
"494 -147 CURVE SMOOTH",
"486 -130 OFFCURVE",
"469 -126 OFFCURVE",
"451 -134 CURVE SMOOTH",
"415 -150 OFFCURVE",
"381 -126 OFFCURVE",
"375 -96 CURVE SMOOTH",
"369 -67 OFFCURVE",
"375 -34 OFFCURVE",
"428 0 CURVE",
"476 0 LINE SMOOTH",
"511 0 OFFCURVE",
"537 25 OFFCURVE",
"537 59 CURVE SMOOTH",
"537 94 OFFCURVE",
"511 120 OFFCURVE",
"476 120 CURVE SMOOTH"
);
}
);
width = 587;
}
);
note = Eogonek;
unicode = 0118;
},
{
glyphname = F;
lastChange = "2016-06-29 14:38:00 +0000";
layers = (
{
layerId = "254266E2-2911-423D-9D37-8CC6105656EE";
paths = (
{
closed = 1;
nodes = (
"477 660 LINE SMOOTH",
"488 660 OFFCURVE",
"497 668 OFFCURVE",
"497 680 CURVE SMOOTH",
"497 691 OFFCURVE",
"488 700 OFFCURVE",
"477 700 CURVE SMOOTH",
"110 700 LINE SMOOTH",
"99 700 OFFCURVE",
"90 691 OFFCURVE",
"90 680 CURVE SMOOTH",
"90 20 LINE SMOOTH",
"90 9 OFFCURVE",
"98 0 OFFCURVE",
"110 0 CURVE SMOOTH",
"122 0 OFFCURVE",
"130 9 OFFCURVE",
"130 20 CURVE SMOOTH",
"130 339 LINE SMOOTH",
"130 342 OFFCURVE",
"132 344 OFFCURVE",
"135 344 CURVE SMOOTH",
"432 344 LINE SMOOTH",
"443 344 OFFCURVE",
"452 352 OFFCURVE",
"452 364 CURVE SMOOTH",
"452 375 OFFCURVE",
"443 384 OFFCURVE",
"432 384 CURVE SMOOTH",
"135 384 LINE SMOOTH",
"132 384 OFFCURVE",
"130 386 OFFCURVE",
"130 389 CURVE SMOOTH",
"130 655 LINE SMOOTH",
"130 658 OFFCURVE",
"132 660 OFFCURVE",
"135 660 CURVE SMOOTH"
);
}
);
width = 547;
},
{
layerId = "8816CCA3-DDF9-4C51-BD56-64EE3675A105";
paths = (
{
closed = 1;
nodes = (
"476 580 LINE SMOOTH",
"511 580 OFFCURVE",
"537 605 OFFCURVE",
"537 639 CURVE SMOOTH",
"537 674 OFFCURVE",
"511 700 OFFCURVE",
"476 700 CURVE SMOOTH",
"151 700 LINE SMOOTH",
"116 700 OFFCURVE",
"90 674 OFFCURVE",
"90 639 CURVE SMOOTH",
"90 61 LINE SMOOTH",
"90 26 OFFCURVE",
"115 0 OFFCURVE",
"150 0 CURVE SMOOTH",
"185 0 OFFCURVE",
"210 26 OFFCURVE",
"210 61 CURVE SMOOTH",
"210 279 LINE SMOOTH",
"210 286 OFFCURVE",
"214 289 OFFCURVE",
"220 289 CURVE SMOOTH",
"431 289 LINE SMOOTH",
"466 289 OFFCURVE",
"492 314 OFFCURVE",
"492 348 CURVE SMOOTH",
"492 383 OFFCURVE",
"466 409 OFFCURVE",
"431 409 CURVE SMOOTH",
"220 409 LINE SMOOTH",
"214 409 OFFCURVE",
"210 413 OFFCURVE",
"210 419 CURVE SMOOTH",
"210 570 LINE SMOOTH",
"210 577 OFFCURVE",
"213 580 OFFCURVE",
"220 580 CURVE SMOOTH"
);
}
);
width = 587;
}
);
note = F;
rightKerningGroup = F;
unicode = 0046;
},
{
glyphname = G;
lastChange = "2016-06-29 14:38:00 +0000";
layers = (
{
layerId = "254266E2-2911-423D-9D37-8CC6105656EE";
paths = (
{
closed = 1;
nodes = (
"629 300 LINE SMOOTH",
"629 311 OFFCURVE",
"621 320 OFFCURVE",
"609 320 CURVE SMOOTH",
"419 320 LINE SMOOTH",
"408 320 OFFCURVE",
"399 312 OFFCURVE",
"399 300 CURVE SMOOTH",
"399 289 OFFCURVE",
"408 280 OFFCURVE",
"419 280 CURVE SMOOTH",
"589 280 LINE",
"589 94 LINE",
"539 61 OFFCURVE",
"475 40 OFFCURVE",
"409 40 CURVE SMOOTH",
"233 40 OFFCURVE",
"90 180 OFFCURVE",
"90 350 CURVE SMOOTH",
"90 520 OFFCURVE",
"233 660 OFFCURVE",
"409 660 CURVE SMOOTH",
"478 660 OFFCURVE",
"541 639 OFFCURVE",
"593 603 CURVE",
"603 597 OFFCURVE",
"614 598 OFFCURVE",
"621 607 CURVE",
"628 617 OFFCURVE",
"626 629 OFFCURVE",
"616 636 CURVE SMOOTH",
"558 676 OFFCURVE",
"486 700 OFFCURVE",
"409 700 CURVE SMOOTH",
"211 700 OFFCURVE",
"50 543 OFFCURVE",
"50 350 CURVE SMOOTH",
"50 157 OFFCURVE",
"211 0 OFFCURVE",
"409 0 CURVE SMOOTH",
"486 0 OFFCURVE",
"561 26 OFFCURVE",
"620 66 CURVE",
"624 69 OFFCURVE",
"627 73 OFFCURVE",
"628 78 CURVE",
"629 80 OFFCURVE",
"629 82 OFFCURVE",
"629 84 CURVE SMOOTH"
);
}
);
width = 669;
},
{
layerId = "8816CCA3-DDF9-4C51-BD56-64EE3675A105";
paths = (
{
closed = 1;
nodes = (
"482 371 LINE SMOOTH",
"447 371 OFFCURVE",
"421 346 OFFCURVE",
"421 311 CURVE SMOOTH",
"421 276 OFFCURVE",
"447 251 OFFCURVE",
"482 251 CURVE SMOOTH",
"521 251 LINE SMOOTH",
"528 251 OFFCURVE",
"531 248 OFFCURVE",
"531 241 CURVE SMOOTH",
"531 159 LINE SMOOTH",
"531 153 OFFCURVE",
"529 150 OFFCURVE",
"524 147 CURVE",
"491 130 OFFCURVE",
"452 120 OFFCURVE",
"410 120 CURVE SMOOTH",
"277 120 OFFCURVE",
"170 224 OFFCURVE",
"170 350 CURVE SMOOTH",
"170 476 OFFCURVE",
"277 580 OFFCURVE",
"410 580 CURVE SMOOTH",
"449 580 OFFCURVE",
"485 572 OFFCURVE",
"517 557 CURVE SMOOTH",
"545 543 OFFCURVE",
"574 546 OFFCURVE",
"593 571 CURVE SMOOTH",
"617 602 OFFCURVE",
"610 641 OFFCURVE",
"577 660 CURVE SMOOTH",
"529 687 OFFCURVE",
"470 700 OFFCURVE",
"410 700 CURVE SMOOTH",
"211 700 OFFCURVE",
"50 543 OFFCURVE",
"50 350 CURVE SMOOTH",
"50 157 OFFCURVE",
"211 0 OFFCURVE",
"410 0 CURVE SMOOTH",
"488 0 OFFCURVE",
"560 25 OFFCURVE",
"620 66 CURVE",
"636 76 OFFCURVE",
"651 93 OFFCURVE",
"651 120 CURVE SMOOTH",
"651 310 LINE SMOOTH",
"651 345 OFFCURVE",
"626 371 OFFCURVE",
"591 371 CURVE SMOOTH"
);
}
);
width = 691;
}
);
leftKerningGroup = C;
note = G;
rightKerningGroup = G;
unicode = 0047;
},
{
glyphname = Gbreve;
lastChange = "2016-06-29 14:38:00 +0000";
layers = (
{
layerId = "254266E2-2911-423D-9D37-8CC6105656EE";
paths = (
{
closed = 1;
nodes = (
"447 904 LINE SMOOTH",
"436 904 OFFCURVE",
"429 899 OFFCURVE",
"425 888 CURVE",
"410 852 OFFCURVE",
"381 831 OFFCURVE",
"336 831 CURVE SMOOTH",
"291 831 OFFCURVE",
"262 852 OFFCURVE",
"247 888 CURVE",
"243 899 OFFCURVE",
"236 904 OFFCURVE",
"225 904 CURVE SMOOTH",
"223 904 LINE SMOOTH",
"210 904 OFFCURVE",
"203 896 OFFCURVE",
"206 883 CURVE",
"218 818 OFFCURVE",
"269 780 OFFCURVE",
"336 780 CURVE SMOOTH",
"403 780 OFFCURVE",
"454 818 OFFCURVE",
"466 883 CURVE",
"469 896 OFFCURVE",
"462 904 OFFCURVE",
"450 904 CURVE SMOOTH"
);
},
{
closed = 1;
nodes = (
"629 300 LINE SMOOTH",
"629 311 OFFCURVE",
"621 320 OFFCURVE",
"609 320 CURVE SMOOTH",
"419 320 LINE SMOOTH",
"408 320 OFFCURVE",
"399 312 OFFCURVE",
"399 300 CURVE SMOOTH",
"399 289 OFFCURVE",
"408 280 OFFCURVE",
"419 280 CURVE SMOOTH",
"589 280 LINE",
"589 94 LINE",
"539 61 OFFCURVE",
"475 40 OFFCURVE",
"409 40 CURVE SMOOTH",
"233 40 OFFCURVE",
"90 180 OFFCURVE",
"90 350 CURVE SMOOTH",
"90 520 OFFCURVE",
"233 660 OFFCURVE",
"409 660 CURVE SMOOTH",
"478 660 OFFCURVE",
"541 639 OFFCURVE",
"593 603 CURVE",
"603 597 OFFCURVE",
"614 598 OFFCURVE",
"621 607 CURVE",
"628 617 OFFCURVE",
"626 629 OFFCURVE",
"616 636 CURVE SMOOTH",
"558 676 OFFCURVE",
"486 700 OFFCURVE",
"409 700 CURVE SMOOTH",
"211 700 OFFCURVE",
"50 543 OFFCURVE",
"50 350 CURVE SMOOTH",
"50 157 OFFCURVE",
"211 0 OFFCURVE",
"409 0 CURVE SMOOTH",
"486 0 OFFCURVE",
"561 26 OFFCURVE",
"620 66 CURVE",
"624 69 OFFCURVE",
"627 73 OFFCURVE",
"628 78 CURVE",
"629 80 OFFCURVE",
"629 82 OFFCURVE",
"629 84 CURVE SMOOTH"
);
}
);
width = 669;
},
{
layerId = "8816CCA3-DDF9-4C51-BD56-64EE3675A105";
paths = (
{
closed = 1;
nodes = (
"423 780 OFFCURVE",
"481 814 OFFCURVE",
"506 875 CURVE SMOOTH",
"519 907 OFFCURVE",
"502 928 OFFCURVE",
"476 928 CURVE SMOOTH",
"448 928 OFFCURVE",
"434 915 OFFCURVE",
"416 892 CURVE",
"401 875 OFFCURVE",
"380 865 OFFCURVE",
"347 865 CURVE SMOOTH",
"314 865 OFFCURVE",
"293 875 OFFCURVE",
"278 892 CURVE",
"260 915 OFFCURVE",
"246 928 OFFCURVE",
"218 928 CURVE SMOOTH",
"192 928 OFFCURVE",
"175 906 OFFCURVE",
"189 873 CURVE SMOOTH",
"213 813 OFFCURVE",
"272 780 OFFCURVE",
"347 780 CURVE SMOOTH"
);
},
{
closed = 1;
nodes = (
"482 371 LINE SMOOTH",
"447 371 OFFCURVE",
"421 346 OFFCURVE",
"421 311 CURVE SMOOTH",
"421 276 OFFCURVE",
"447 251 OFFCURVE",
"482 251 CURVE SMOOTH",
"521 251 LINE SMOOTH",
"528 251 OFFCURVE",
"531 248 OFFCURVE",
"531 241 CURVE SMOOTH",
"531 159 LINE SMOOTH",
"531 153 OFFCURVE",
"529 150 OFFCURVE",
"524 147 CURVE",
"491 130 OFFCURVE",
"452 120 OFFCURVE",
"410 120 CURVE SMOOTH",
"277 120 OFFCURVE",
"170 224 OFFCURVE",
"170 350 CURVE SMOOTH",
"170 476 OFFCURVE",
"277 580 OFFCURVE",
"410 580 CURVE SMOOTH",
"449 580 OFFCURVE",
"485 572 OFFCURVE",
"517 557 CURVE SMOOTH",
"545 543 OFFCURVE",
"574 546 OFFCURVE",
"593 571 CURVE SMOOTH",
"617 602 OFFCURVE",
"610 641 OFFCURVE",
"577 660 CURVE SMOOTH",
"529 687 OFFCURVE",
"470 700 OFFCURVE",
"410 700 CURVE SMOOTH",
"211 700 OFFCURVE",
"50 543 OFFCURVE",
"50 350 CURVE SMOOTH",
"50 157 OFFCURVE",
"211 0 OFFCURVE",
"410 0 CURVE SMOOTH",
"488 0 OFFCURVE",
"560 25 OFFCURVE",
"620 66 CURVE",
"636 76 OFFCURVE",
"651 93 OFFCURVE",
"651 120 CURVE SMOOTH",
"651 310 LINE SMOOTH",
"651 345 OFFCURVE",
"626 371 OFFCURVE",
"591 371 CURVE SMOOTH"
);
}
);
width = 691;
}
);
note = Gbreve;
unicode = 011E;
},
{
glyphname = Gcommaaccent;
lastChange = "2016-06-29 14:38:00 +0000";
layers = (
{
layerId = "254266E2-2911-423D-9D37-8CC6105656EE";
paths = (
{
closed = 1;
nodes = (
"629 300 LINE SMOOTH",
"629 311 OFFCURVE",
"621 320 OFFCURVE",
"609 320 CURVE SMOOTH",
"419 320 LINE SMOOTH",
"408 320 OFFCURVE",
"399 312 OFFCURVE",
"399 300 CURVE SMOOTH",
"399 289 OFFCURVE",
"408 280 OFFCURVE",
"419 280 CURVE SMOOTH",
"589 280 LINE",
"589 94 LINE",
"539 61 OFFCURVE",
"475 40 OFFCURVE",
"409 40 CURVE SMOOTH",
"233 40 OFFCURVE",
"90 180 OFFCURVE",
"90 350 CURVE SMOOTH",
"90 520 OFFCURVE",
"233 660 OFFCURVE",
"409 660 CURVE SMOOTH",
"478 660 OFFCURVE",
"541 639 OFFCURVE",
"593 603 CURVE",
"603 597 OFFCURVE",
"614 598 OFFCURVE",
"621 607 CURVE",
"628 617 OFFCURVE",
"626 629 OFFCURVE",
"616 636 CURVE SMOOTH",
"558 676 OFFCURVE",
"486 700 OFFCURVE",
"409 700 CURVE SMOOTH",
"211 700 OFFCURVE",
"50 543 OFFCURVE",
"50 350 CURVE SMOOTH",
"50 157 OFFCURVE",
"211 0 OFFCURVE",
"409 0 CURVE SMOOTH",
"486 0 OFFCURVE",
"561 26 OFFCURVE",
"620 66 CURVE",
"624 69 OFFCURVE",
"627 73 OFFCURVE",
"628 78 CURVE",
"629 80 OFFCURVE",
"629 82 OFFCURVE",
"629 84 CURVE SMOOTH"
);
},
{
closed = 1;
nodes = (
"296 -267 OFFCURVE",
"310 -268 OFFCURVE",
"325 -260 CURVE SMOOTH",
"365 -237 OFFCURVE",
"381 -206 OFFCURVE",
"381 -154 CURVE SMOOTH",
"381 -111 LINE SMOOTH",
"381 -93 OFFCURVE",
"368 -80 OFFCURVE",
"350 -80 CURVE SMOOTH",
"346 -80 LINE SMOOTH",
"328 -80 OFFCURVE",
"315 -93 OFFCURVE",
"315 -111 CURVE SMOOTH",
"315 -134 LINE SMOOTH",
"315 -152 OFFCURVE",
"326 -165 OFFCURVE",
"342 -165 CURVE",
"344 -195 OFFCURVE",
"335 -215 OFFCURVE",
"310 -233 CURVE",
"296 -242 OFFCURVE",
"288 -252 OFFCURVE",
"292 -260 CURVE"
);
}
);
width = 669;
},
{
layerId = "8816CCA3-DDF9-4C51-BD56-64EE3675A105";
paths = (
{
closed = 1;
nodes = (
"482 371 LINE SMOOTH",
"447 371 OFFCURVE",
"421 346 OFFCURVE",
"421 311 CURVE SMOOTH",
"421 276 OFFCURVE",
"447 251 OFFCURVE",
"482 251 CURVE SMOOTH",
"521 251 LINE SMOOTH",
"528 251 OFFCURVE",
"531 248 OFFCURVE",
"531 241 CURVE SMOOTH",
"531 159 LINE SMOOTH",
"531 153 OFFCURVE",
"529 150 OFFCURVE",
"524 147 CURVE",
"491 130 OFFCURVE",
"452 120 OFFCURVE",
"410 120 CURVE SMOOTH",
"277 120 OFFCURVE",
"170 224 OFFCURVE",
"170 350 CURVE SMOOTH",
"170 476 OFFCURVE",
"277 580 OFFCURVE",
"410 580 CURVE SMOOTH",
"449 580 OFFCURVE",
"485 572 OFFCURVE",
"517 557 CURVE SMOOTH",
"545 543 OFFCURVE",
"574 546 OFFCURVE",
"593 571 CURVE SMOOTH",
"617 602 OFFCURVE",
"610 641 OFFCURVE",
"577 660 CURVE SMOOTH",
"529 687 OFFCURVE",
"470 700 OFFCURVE",
"410 700 CURVE SMOOTH",
"211 700 OFFCURVE",
"50 543 OFFCURVE",
"50 350 CURVE SMOOTH",
"50 157 OFFCURVE",
"211 0 OFFCURVE",
"410 0 CURVE SMOOTH",
"488 0 OFFCURVE",
"560 25 OFFCURVE",
"620 66 CURVE",
"636 76 OFFCURVE",
"651 93 OFFCURVE",
"651 120 CURVE SMOOTH",
"651 310 LINE SMOOTH",
"651 345 OFFCURVE",
"626 371 OFFCURVE",
"591 371 CURVE SMOOTH"
);
},
{
closed = 1;
nodes = (
"289 -351 OFFCURVE",
"315 -361 OFFCURVE",
"346 -351 CURVE SMOOTH",
"411 -331 OFFCURVE",
"445 -284 OFFCURVE",
"445 -195 CURVE SMOOTH",
"445 -140 LINE SMOOTH",
"445 -105 OFFCURVE",
"419 -79 OFFCURVE",
"384 -79 CURVE SMOOTH",
"373 -79 LINE SMOOTH",
"338 -79 OFFCURVE",
"312 -105 OFFCURVE",
"312 -140 CURVE SMOOTH",
"312 -155 LINE SMOOTH",
"312 -190 OFFCURVE",
"333 -216 OFFCURVE",
"363 -216 CURVE",
"366 -251 OFFCURVE",
"354 -276 OFFCURVE",
"326 -293 CURVE SMOOTH",
"300 -309 OFFCURVE",
"281 -320 OFFCURVE",
"285 -336 CURVE SMOOTH"
);
}
);
width = 691;
}
);
note = Gcommaaccent;
unicode = 0122;
},
{
glyphname = Gdotaccent;
lastChange = "2016-06-29 14:38:00 +0000";
layers = (
{
layerId = "254266E2-2911-423D-9D37-8CC6105656EE";
paths = (
{
closed = 1;
nodes = (
"356 780 OFFCURVE",
"370 795 OFFCURVE",
"370 816 CURVE SMOOTH",
"370 824 LINE SMOOTH",
"370 845 OFFCURVE",
"356 860 OFFCURVE",
"337 860 CURVE SMOOTH",
"316 860 OFFCURVE",
"301 845 OFFCURVE",
"301 824 CURVE SMOOTH",
"301 816 LINE SMOOTH",
"301 795 OFFCURVE",
"315 780 OFFCURVE",
"336 780 CURVE SMOOTH"
);
},
{
closed = 1;
nodes = (
"629 300 LINE SMOOTH",
"629 311 OFFCURVE",
"621 320 OFFCURVE",
"609 320 CURVE SMOOTH",
"419 320 LINE SMOOTH",
"408 320 OFFCURVE",
"399 312 OFFCURVE",
"399 300 CURVE SMOOTH",
"399 289 OFFCURVE",
"408 280 OFFCURVE",
"419 280 CURVE SMOOTH",
"589 280 LINE",
"589 94 LINE",
"539 61 OFFCURVE",
"475 40 OFFCURVE",
"409 40 CURVE SMOOTH",
"233 40 OFFCURVE",
"90 180 OFFCURVE",
"90 350 CURVE SMOOTH",
"90 520 OFFCURVE",
"233 660 OFFCURVE",
"409 660 CURVE SMOOTH",
"478 660 OFFCURVE",
"541 639 OFFCURVE",
"593 603 CURVE",
"603 597 OFFCURVE",
"614 598 OFFCURVE",
"621 607 CURVE",
"628 617 OFFCURVE",
"626 629 OFFCURVE",
"616 636 CURVE SMOOTH",
"558 676 OFFCURVE",
"486 700 OFFCURVE",
"409 700 CURVE SMOOTH",
"211 700 OFFCURVE",
"50 543 OFFCURVE",
"50 350 CURVE SMOOTH",
"50 157 OFFCURVE",
"211 0 OFFCURVE",
"409 0 CURVE SMOOTH",
"486 0 OFFCURVE",
"561 26 OFFCURVE",
"620 66 CURVE",
"624 69 OFFCURVE",
"627 73 OFFCURVE",
"628 78 CURVE",
"629 80 OFFCURVE",
"629 82 OFFCURVE",
"629 84 CURVE SMOOTH"
);
}
);
width = 669;
},
{
layerId = "8816CCA3-DDF9-4C51-BD56-64EE3675A105";
paths = (
{
closed = 1;
nodes = (
"284 830 LINE SMOOTH",
"284 797 OFFCURVE",
"301 780 OFFCURVE",
"334 780 CURVE SMOOTH",
"360 780 LINE SMOOTH",
"393 780 OFFCURVE",
"410 798 OFFCURVE",
"410 830 CURVE SMOOTH",
"410 849 LINE SMOOTH",
"410 882 OFFCURVE",
"393 899 OFFCURVE",
"360 899 CURVE SMOOTH",
"334 899 LINE SMOOTH",
"302 899 OFFCURVE",
"284 881 OFFCURVE",
"284 849 CURVE SMOOTH"
);
},
{
closed = 1;
nodes = (
"482 371 LINE SMOOTH",
"447 371 OFFCURVE",
"421 346 OFFCURVE",
"421 311 CURVE SMOOTH",
"421 276 OFFCURVE",
"447 251 OFFCURVE",
"482 251 CURVE SMOOTH",
"521 251 LINE SMOOTH",
"528 251 OFFCURVE",
"531 248 OFFCURVE",
"531 241 CURVE SMOOTH",
"531 159 LINE SMOOTH",
"531 153 OFFCURVE",
"529 150 OFFCURVE",
"524 147 CURVE",
"491 130 OFFCURVE",
"452 120 OFFCURVE",
"410 120 CURVE SMOOTH",
"277 120 OFFCURVE",
"170 224 OFFCURVE",
"170 350 CURVE SMOOTH",
"170 476 OFFCURVE",
"277 580 OFFCURVE",
"410 580 CURVE SMOOTH",
"449 580 OFFCURVE",
"485 572 OFFCURVE",
"517 557 CURVE SMOOTH",
"545 543 OFFCURVE",
"574 546 OFFCURVE",
"593 571 CURVE SMOOTH",
"617 602 OFFCURVE",
"610 641 OFFCURVE",
"577 660 CURVE SMOOTH",
"529 687 OFFCURVE",
"470 700 OFFCURVE",
"410 700 CURVE SMOOTH",
"211 700 OFFCURVE",
"50 543 OFFCURVE",
"50 350 CURVE SMOOTH",
"50 157 OFFCURVE",
"211 0 OFFCURVE",
"410 0 CURVE SMOOTH",
"488 0 OFFCURVE",
"560 25 OFFCURVE",
"620 66 CURVE",
"636 76 OFFCURVE",
"651 93 OFFCURVE",
"651 120 CURVE SMOOTH",
"651 310 LINE SMOOTH",
"651 345 OFFCURVE",
"626 371 OFFCURVE",
"591 371 CURVE SMOOTH"
);
}
);
width = 691;
}
);
note = Gdotaccent;
unicode = 0120;
},
{
glyphname = H;
lastChange = "2016-06-29 14:38:01 +0000";
layers = (
{
background = {
paths = (
{
closed = 1;
nodes = (
"577 700 OFFCURVE",
"569 691 OFFCURVE",
"569 680 CURVE SMOOTH",
"569 385 LINE SMOOTH",
"569 382 OFFCURVE",
"567 380 OFFCURVE",
"564 380 CURVE SMOOTH",
"135 380 LINE SMOOTH",
"132 380 OFFCURVE",
"130 382 OFFCURVE",
"130 385 CURVE SMOOTH",
"130 680 LINE SMOOTH",
"130 691 OFFCURVE",
"122 700 OFFCURVE",
"110 700 CURVE SMOOTH",
"99 700 OFFCURVE",
"90 691 OFFCURVE",
"90 680 CURVE SMOOTH",
"90 20 LINE SMOOTH",
"90 9 OFFCURVE",
"98 0 OFFCURVE",
"110 0 CURVE SMOOTH",
"121 0 OFFCURVE",
"130 9 OFFCURVE",
"130 20 CURVE SMOOTH",
"130 335 LINE SMOOTH",
"130 338 OFFCURVE",
"132 340 OFFCURVE",
"135 340 CURVE SMOOTH",
"564 340 LINE SMOOTH",
"567 340 OFFCURVE",
"569 338 OFFCURVE",
"569 335 CURVE SMOOTH",
"569 20 LINE SMOOTH",
"569 9 OFFCURVE",
"577 0 OFFCURVE",
"589 0 CURVE SMOOTH",
"600 0 OFFCURVE",
"609 9 OFFCURVE",
"609 20 CURVE SMOOTH",
"609 680 LINE SMOOTH",
"609 691 OFFCURVE",
"601 700 OFFCURVE",
"589 700 CURVE SMOOTH"
);
}
);
};
layerId = "254266E2-2911-423D-9D37-8CC6105656EE";
paths = (
{
closed = 1;
nodes = (
"577 701 OFFCURVE",
"568 692 OFFCURVE",
"568 680 CURVE SMOOTH",
"568 380 LINE",
"132 380 LINE",
"132 680 LINE SMOOTH",
"132 692 OFFCURVE",
"123 701 OFFCURVE",
"111 701 CURVE SMOOTH",
"99 701 OFFCURVE",
"90 692 OFFCURVE",
"90 680 CURVE SMOOTH",
"90 21 LINE SMOOTH",
"90 9 OFFCURVE",
"98 0 OFFCURVE",
"111 0 CURVE SMOOTH",
"122 0 OFFCURVE",
"131 9 OFFCURVE",
"131 21 CURVE",
"132 21 LINE",
"132 340 LINE",
"568 340 LINE",
"568 21 LINE SMOOTH",
"568 9 OFFCURVE",
"576 0 OFFCURVE",
"589 0 CURVE SMOOTH",
"600 0 OFFCURVE",
"609 9 OFFCURVE",
"609 21 CURVE",
"610 21 LINE",
"610 680 LINE SMOOTH",
"610 692 OFFCURVE",
"601 701 OFFCURVE",
"589 701 CURVE SMOOTH"
);
}
);
width = 699;
},
{
background = {
paths = (
{
closed = 1;
nodes = (
"534 419 LINE SMOOTH",
"534 413 OFFCURVE",
"530 409 OFFCURVE",
"524 409 CURVE SMOOTH",
"205 409 LINE SMOOTH",
"199 409 OFFCURVE",
"195 412 OFFCURVE",
"195 419 CURVE SMOOTH",
"195 639 LINE SMOOTH",
"195 674 OFFCURVE",
"170 700 OFFCURVE",
"135 700 CURVE SMOOTH",
"100 700 OFFCURVE",
"75 674 OFFCURVE",
"75 639 CURVE SMOOTH",
"75 61 LINE SMOOTH",
"75 26 OFFCURVE",
"100 0 OFFCURVE",
"135 0 CURVE SMOOTH",
"170 0 OFFCURVE",
"195 26 OFFCURVE",
"195 61 CURVE SMOOTH",
"195 279 LINE SMOOTH",
"195 286 OFFCURVE",
"199 289 OFFCURVE",
"205 289 CURVE SMOOTH",
"524 289 LINE SMOOTH",
"531 289 OFFCURVE",
"534 286 OFFCURVE",
"534 279 CURVE SMOOTH",
"534 61 LINE SMOOTH",
"534 26 OFFCURVE",
"559 0 OFFCURVE",
"594 0 CURVE SMOOTH",
"629 0 OFFCURVE",
"654 26 OFFCURVE",
"654 61 CURVE SMOOTH",
"654 639 LINE SMOOTH",
"654 674 OFFCURVE",
"629 700 OFFCURVE",
"594 700 CURVE SMOOTH",
"559 700 OFFCURVE",
"534 674 OFFCURVE",
"534 639 CURVE SMOOTH"
);
}
);
};
layerId = "8816CCA3-DDF9-4C51-BD56-64EE3675A105";
paths = (
{
closed = 1;
nodes = (
"205 639 LINE",
"205 674 OFFCURVE",
"178 700 OFFCURVE",
"141 700 CURVE",
"103 700 OFFCURVE",
"75 674 OFFCURVE",
"75 639 CURVE",
"75 61 LINE",
"75 26 OFFCURVE",
"102 0 OFFCURVE",
"139 0 CURVE",
"177 0 OFFCURVE",
"205 26 OFFCURVE",
"205 61 CURVE"
);
},
{
closed = 1;
nodes = (
"654 639 LINE",
"654 674 OFFCURVE",
"627 700 OFFCURVE",
"590 700 CURVE",
"552 700 OFFCURVE",
"524 674 OFFCURVE",
"524 639 CURVE",
"524 61 LINE",
"524 26 OFFCURVE",
"551 0 OFFCURVE",
"588 0 CURVE",
"626 0 OFFCURVE",
"654 26 OFFCURVE",
"654 61 CURVE"
);
},
{
closed = 1;
nodes = (
"138 290 LINE",
"590 290 LINE",
"590 409 LINE",
"138 409 LINE"
);
}
);
width = 729;
}
);
leftMetricsKey = H;
note = H;
rightMetricsKey = H;
unicode = 0048;
},
{
glyphname = Hbar;
lastChange = "2016-06-29 14:38:01 +0000";
layers = (
{
layerId = "254266E2-2911-423D-9D37-8CC6105656EE";
paths = (
{
closed = 1;
nodes = (
"668 529 LINE",
"668 680 LINE SMOOTH",
"668 691 OFFCURVE",
"660 700 OFFCURVE",
"648 700 CURVE SMOOTH",
"636 700 OFFCURVE",
"628 691 OFFCURVE",
"628 680 CURVE SMOOTH",
"628 529 LINE",
"229 529 LINE",
"229 680 LINE SMOOTH",
"229 691 OFFCURVE",
"221 700 OFFCURVE",
"209 700 CURVE SMOOTH",
"198 700 OFFCURVE",
"189 691 OFFCURVE",
"189 680 CURVE SMOOTH",
"189 529 LINE",
"50 529 LINE SMOOTH",
"39 529 OFFCURVE",
"30 521 OFFCURVE",
"30 509 CURVE SMOOTH",
"30 498 OFFCURVE",
"39 489 OFFCURVE",
"50 489 CURVE SMOOTH",
"189 489 LINE",
"189 20 LINE SMOOTH",
"189 9 OFFCURVE",
"197 0 OFFCURVE",
"209 0 CURVE SMOOTH",
"220 0 OFFCURVE",
"229 9 OFFCURVE",
"229 20 CURVE SMOOTH",
"229 325 LINE SMOOTH",
"229 328 OFFCURVE",
"231 330 OFFCURVE",
"234 330 CURVE SMOOTH",
"623 330 LINE SMOOTH",
"626 330 OFFCURVE",
"628 328 OFFCURVE",
"628 325 CURVE SMOOTH",
"628 20 LINE SMOOTH",
"628 9 OFFCURVE",
"636 0 OFFCURVE",
"648 0 CURVE SMOOTH",
"659 0 OFFCURVE",
"668 9 OFFCURVE",
"668 20 CURVE SMOOTH",
"668 489 LINE",
"721 489 LINE SMOOTH",
"732 489 OFFCURVE",
"741 497 OFFCURVE",
"741 509 CURVE SMOOTH",
"741 520 OFFCURVE",
"732 529 OFFCURVE",
"721 529 CURVE SMOOTH"
);
},
{
closed = 1;
nodes = (
"628 489 LINE",
"628 375 LINE SMOOTH",
"628 372 OFFCURVE",
"626 370 OFFCURVE",
"623 370 CURVE SMOOTH",
"234 370 LINE SMOOTH",
"231 370 OFFCURVE",
"229 372 OFFCURVE",
"229 375 CURVE SMOOTH",
"229 489 LINE"
);
}
);
width = 771;
},
{
layerId = "8816CCA3-DDF9-4C51-BD56-64EE3675A105";
paths = (
{
closed = 1;
nodes = (
"692 560 LINE SMOOTH",
"689 560 OFFCURVE",
"687 562 OFFCURVE",
"687 565 CURVE SMOOTH",
"687 639 LINE SMOOTH",
"687 674 OFFCURVE",
"662 700 OFFCURVE",
"627 700 CURVE SMOOTH",
"592 700 OFFCURVE",
"567 674 OFFCURVE",
"567 639 CURVE SMOOTH",
"567 565 LINE SMOOTH",
"567 562 OFFCURVE",
"565 560 OFFCURVE",
"562 560 CURVE SMOOTH",
"253 560 LINE SMOOTH",
"250 560 OFFCURVE",
"248 562 OFFCURVE",
"248 565 CURVE SMOOTH",
"248 639 LINE SMOOTH",
"248 674 OFFCURVE",
"223 700 OFFCURVE",
"188 700 CURVE SMOOTH",
"153 700 OFFCURVE",
"128 674 OFFCURVE",
"128 639 CURVE SMOOTH",
"128 565 LINE SMOOTH",
"128 562 OFFCURVE",
"126 560 OFFCURVE",
"123 560 CURVE SMOOTH",
"96 560 LINE SMOOTH",
"66 560 OFFCURVE",
"45 539 OFFCURVE",
"45 511 CURVE SMOOTH",
"45 481 OFFCURVE",
"66 460 OFFCURVE",
"96 460 CURVE SMOOTH",
"123 460 LINE SMOOTH",
"126 460 OFFCURVE",
"128 458 OFFCURVE",
"128 455 CURVE SMOOTH",
"128 61 LINE SMOOTH",
"128 26 OFFCURVE",
"153 0 OFFCURVE",
"188 0 CURVE SMOOTH",
"223 0 OFFCURVE",
"248 26 OFFCURVE",
"248 61 CURVE SMOOTH",
"248 240 LINE SMOOTH",
"248 247 OFFCURVE",
"252 250 OFFCURVE",
"258 250 CURVE SMOOTH",
"557 250 LINE SMOOTH",
"564 250 OFFCURVE",
"567 247 OFFCURVE",
"567 240 CURVE SMOOTH",
"567 61 LINE SMOOTH",
"567 26 OFFCURVE",
"592 0 OFFCURVE",
"627 0 CURVE SMOOTH",
"662 0 OFFCURVE",
"687 26 OFFCURVE",
"687 61 CURVE SMOOTH",
"687 455 LINE SMOOTH",
"687 458 OFFCURVE",
"689 460 OFFCURVE",
"692 460 CURVE SMOOTH",
"719 460 LINE SMOOTH",
"749 460 OFFCURVE",
"770 481 OFFCURVE",
"770 509 CURVE SMOOTH",
"770 539 OFFCURVE",
"749 560 OFFCURVE",
"719 560 CURVE SMOOTH"
);
},
{
closed = 1;
nodes = (
"567 380 LINE SMOOTH",
"567 374 OFFCURVE",
"563 370 OFFCURVE",
"557 370 CURVE SMOOTH",
"258 370 LINE SMOOTH",
"252 370 OFFCURVE",
"248 373 OFFCURVE",
"248 380 CURVE SMOOTH",
"248 455 LINE SMOOTH",
"248 458 OFFCURVE",
"250 460 OFFCURVE",
"253 460 CURVE SMOOTH",
"562 460 LINE SMOOTH",
"565 460 OFFCURVE",
"567 458 OFFCURVE",
"567 455 CURVE SMOOTH"
);
}
);
width = 815;
}
);
note = Hbar;
unicode = 0126;
},
{
glyphname = I;
lastChange = "2016-06-29 14:38:01 +0000";
layers = (
{
layerId = "254266E2-2911-423D-9D37-8CC6105656EE";
paths = (
{
closed = 1;
nodes = (
"132 680 LINE SMOOTH",
"132 692 OFFCURVE",
"123 701 OFFCURVE",
"111 701 CURVE SMOOTH",
"99 701 OFFCURVE",
"90 692 OFFCURVE",
"90 680 CURVE SMOOTH",
"90 21 LINE SMOOTH",
"90 9 OFFCURVE",
"98 0 OFFCURVE",
"111 0 CURVE SMOOTH",
"122 0 OFFCURVE",
"131 9 OFFCURVE",
"131 21 CURVE",
"132 21 LINE"
);
}
);
width = 220;
},
{
layerId = "8816CCA3-DDF9-4C51-BD56-64EE3675A105";
paths = (
{
closed = 1;
nodes = (
"205 639 LINE",
"205 674 OFFCURVE",
"178 700 OFFCURVE",
"141 700 CURVE",
"103 700 OFFCURVE",
"75 674 OFFCURVE",
"75 639 CURVE",
"75 61 LINE",
"75 26 OFFCURVE",
"102 0 OFFCURVE",
"139 0 CURVE",
"177 0 OFFCURVE",
"205 26 OFFCURVE",
"205 61 CURVE"
);
}
);
width = 280;
}
);
leftMetricsKey = H;
note = I;
rightMetricsKey = H;
unicode = 0049;
},
{
glyphname = IJ;
lastChange = "2016-06-29 14:38:01 +0000";
layers = (
{
layerId = "254266E2-2911-423D-9D37-8CC6105656EE";
paths = (
{
closed = 1;
nodes = (
"130 681 LINE SMOOTH",
"130 692 OFFCURVE",
"122 701 OFFCURVE",
"110 701 CURVE SMOOTH",
"99 701 OFFCURVE",
"90 692 OFFCURVE",
"90 681 CURVE SMOOTH",
"90 20 LINE SMOOTH",
"90 9 OFFCURVE",
"98 0 OFFCURVE",
"110 0 CURVE SMOOTH",
"121 0 OFFCURVE",
"130 9 OFFCURVE",
"130 20 CURVE SMOOTH"
);
},
{
closed = 1;
nodes = (
"664 700 OFFCURVE",
"656 691 OFFCURVE",
"656 680 CURVE SMOOTH",
"656 229 LINE SMOOTH",
"656 125 OFFCURVE",
"570 40 OFFCURVE",
"467 40 CURVE SMOOTH",
"389 40 OFFCURVE",
"323 87 OFFCURVE",
"294 154 CURVE",
"289 164 OFFCURVE",
"280 169 OFFCURVE",
"270 166 CURVE SMOOTH",
"258 162 OFFCURVE",
"252 150 OFFCURVE",
"257 139 CURVE SMOOTH",
"292 57 OFFCURVE",
"373 0 OFFCURVE",
"467 0 CURVE SMOOTH",
"593 0 OFFCURVE",
"696 103 OFFCURVE",
"696 229 CURVE SMOOTH",
"696 680 LINE SMOOTH",
"696 691 OFFCURVE",
"688 700 OFFCURVE",
"676 700 CURVE SMOOTH"
);
}
);
width = 786;
},
{
layerId = "8816CCA3-DDF9-4C51-BD56-64EE3675A105";
paths = (
{
closed = 1;
nodes = (
"210 639 LINE SMOOTH",
"210 674 OFFCURVE",
"185 700 OFFCURVE",
"151 700 CURVE SMOOTH",
"116 700 OFFCURVE",
"90 674 OFFCURVE",
"90 639 CURVE SMOOTH",
"90 61 LINE SMOOTH",
"90 26 OFFCURVE",
"115 0 OFFCURVE",
"149 0 CURVE SMOOTH",
"184 0 OFFCURVE",
"210 26 OFFCURVE",
"210 61 CURVE SMOOTH"
);
},
{
closed = 1;
nodes = (
"388 32 OFFCURVE",
"457 0 OFFCURVE",
"533 0 CURVE SMOOTH",
"661 0 OFFCURVE",
"762 107 OFFCURVE",
"762 229 CURVE SMOOTH",
"762 639 LINE SMOOTH",
"762 674 OFFCURVE",
"737 700 OFFCURVE",
"703 700 CURVE SMOOTH",
"668 700 OFFCURVE",
"642 674 OFFCURVE",
"642 639 CURVE SMOOTH",
"642 229 LINE SMOOTH",
"642 171 OFFCURVE",
"593 120 OFFCURVE",
"533 120 CURVE SMOOTH",
"500 120 OFFCURVE",
"475 129 OFFCURVE",
"449 153 CURVE SMOOTH",
"425 176 OFFCURVE",
"398 191 OFFCURVE",
"366 172 CURVE SMOOTH",
"339 156 OFFCURVE",
"323 123 OFFCURVE",
"347 89 CURVE SMOOTH"
);
}
);
width = 852;
}
);
note = IJ;
unicode = 0132;
},
{
glyphname = Iacute;
lastChange = "2016-06-29 14:38:01 +0000";
layers = (
{
layerId = "254266E2-2911-423D-9D37-8CC6105656EE";
paths = (
{
closed = 1;
nodes = (
"108 780 LINE SMOOTH",
"118 780 OFFCURVE",
"125 783 OFFCURVE",
"132 790 CURVE SMOOTH",
"211 866 LINE SMOOTH",
"222 876 OFFCURVE",
"220 887 OFFCURVE",
"207 894 CURVE SMOOTH",
"185 905 LINE",
"174 910 OFFCURVE",
"165 908 OFFCURVE",
"158 897 CURVE SMOOTH",
"96 804 LINE SMOOTH",
"87 791 OFFCURVE",
"89 780 OFFCURVE",
"101 780 CURVE SMOOTH"
);
},
{
closed = 1;
nodes = (
"130 681 LINE SMOOTH",
"130 692 OFFCURVE",
"122 701 OFFCURVE",
"110 701 CURVE SMOOTH",
"99 701 OFFCURVE",
"90 692 OFFCURVE",
"90 681 CURVE SMOOTH",
"90 20 LINE SMOOTH",
"90 9 OFFCURVE",
"98 0 OFFCURVE",
"110 0 CURVE SMOOTH",
"121 0 OFFCURVE",
"130 9 OFFCURVE",
"130 20 CURVE SMOOTH"
);
}
);
width = 220;
},
{
layerId = "8816CCA3-DDF9-4C51-BD56-64EE3675A105";
paths = (
{
closed = 1;
nodes = (
"117 840 LINE SMOOTH",
"95 806 OFFCURVE",
"103 780 OFFCURVE",
"136 780 CURVE SMOOTH",
"162 780 OFFCURVE",
"179 787 OFFCURVE",
"198 805 CURVE SMOOTH",
"248 852 LINE SMOOTH",
"276 878 OFFCURVE",
"271 905 OFFCURVE",
"236 921 CURVE",
"226 925 LINE",
"198 938 OFFCURVE",
"176 931 OFFCURVE",
"159 905 CURVE SMOOTH"
);
},
{
closed = 1;
nodes = (
"210 639 LINE SMOOTH",
"210 674 OFFCURVE",
"185 700 OFFCURVE",
"151 700 CURVE SMOOTH",
"116 700 OFFCURVE",
"90 674 OFFCURVE",
"90 639 CURVE SMOOTH",
"90 61 LINE SMOOTH",
"90 26 OFFCURVE",
"115 0 OFFCURVE",
"149 0 CURVE SMOOTH",
"184 0 OFFCURVE",
"210 26 OFFCURVE",
"210 61 CURVE SMOOTH"
);
}
);
width = 300;
}
);
note = Iacute;
unicode = 00CD;
},
{
glyphname = Icircumflex;
lastChange = "2016-06-29 14:38:01 +0000";
layers = (
{
layerId = "254266E2-2911-423D-9D37-8CC6105656EE";
paths = (
{
closed = 1;
nodes = (
"93 835 LINE",
"102 844 OFFCURVE",
"112 844 OFFCURVE",
"121 835 CURVE",
"171 790 LINE",
"178 783 OFFCURVE",
"185 780 OFFCURVE",
"195 780 CURVE SMOOTH",
"205 780 LINE SMOOTH",
"217 780 OFFCURVE",
"219 791 OFFCURVE",
"208 805 CURVE SMOOTH",
"137 890 LINE",
"131 899 OFFCURVE",
"124 902 OFFCURVE",
"113 902 CURVE SMOOTH",
"103 902 LINE SMOOTH",
"92 902 OFFCURVE",
"85 899 OFFCURVE",
"79 890 CURVE",
"8 804 LINE SMOOTH",
"-3 791 OFFCURVE",
"2 780 OFFCURVE",
"19 780 CURVE SMOOTH",
"29 780 OFFCURVE",
"36 783 OFFCURVE",
"43 790 CURVE"
);
},
{
closed = 1;
nodes = (
"130 681 LINE SMOOTH",
"130 692 OFFCURVE",
"122 701 OFFCURVE",
"110 701 CURVE SMOOTH",
"99 701 OFFCURVE",
"90 692 OFFCURVE",
"90 681 CURVE SMOOTH",
"90 20 LINE SMOOTH",
"90 9 OFFCURVE",
"98 0 OFFCURVE",
"110 0 CURVE SMOOTH",
"121 0 OFFCURVE",
"130 9 OFFCURVE",
"130 20 CURVE SMOOTH"
);
}
);
width = 220;
},
{
layerId = "8816CCA3-DDF9-4C51-BD56-64EE3675A105";
paths = (
{
closed = 1;
nodes = (
"25 841 LINE SMOOTH",
"-2 808 OFFCURVE",
"3 780 OFFCURVE",
"35 780 CURVE SMOOTH",
"60 780 OFFCURVE",
"78 787 OFFCURVE",
"97 803 CURVE SMOOTH",
"112 816 LINE SMOOTH",
"135 837 OFFCURVE",
"159 837 OFFCURVE",
"182 816 CURVE SMOOTH",
"197 803 LINE SMOOTH",
"216 787 OFFCURVE",
"234 780 OFFCURVE",
"259 780 CURVE SMOOTH",
"272 780 LINE SMOOTH",
"298 780 OFFCURVE",
"298 808 OFFCURVE",
"271 841 CURVE SMOOTH",
"227 897 LINE SMOOTH",
"211 917 OFFCURVE",
"193 926 OFFCURVE",
"166 926 CURVE SMOOTH",
"130 926 LINE SMOOTH",
"103 926 OFFCURVE",
"85 917 OFFCURVE",
"69 897 CURVE SMOOTH"
);
},
{
closed = 1;
nodes = (
"210 639 LINE SMOOTH",
"210 674 OFFCURVE",
"185 700 OFFCURVE",
"151 700 CURVE SMOOTH",
"116 700 OFFCURVE",
"90 674 OFFCURVE",
"90 639 CURVE SMOOTH",
"90 61 LINE SMOOTH",
"90 26 OFFCURVE",
"115 0 OFFCURVE",
"149 0 CURVE SMOOTH",
"184 0 OFFCURVE",
"210 26 OFFCURVE",
"210 61 CURVE SMOOTH"
);
}
);
width = 300;
}
);
note = Icircumflex;
unicode = 00CE;
},
{
glyphname = Idieresis;
lastChange = "2016-06-29 14:38:01 +0000";
layers = (
{
layerId = "254266E2-2911-423D-9D37-8CC6105656EE";
paths = (
{
closed = 1;
nodes = (
"48 780 OFFCURVE",
"62 795 OFFCURVE",
"62 816 CURVE SMOOTH",
"62 824 LINE SMOOTH",
"62 845 OFFCURVE",
"48 860 OFFCURVE",
"29 860 CURVE SMOOTH",
"8 860 OFFCURVE",
"-7 845 OFFCURVE",
"-7 824 CURVE SMOOTH",
"-7 816 LINE SMOOTH",
"-7 795 OFFCURVE",
"7 780 OFFCURVE",
"28 780 CURVE SMOOTH"
);
},
{
closed = 1;
nodes = (
"211 780 OFFCURVE",
"225 795 OFFCURVE",
"225 816 CURVE SMOOTH",
"225 824 LINE SMOOTH",
"225 845 OFFCURVE",
"211 860 OFFCURVE",
"192 860 CURVE SMOOTH",
"171 860 OFFCURVE",
"156 845 OFFCURVE",
"156 824 CURVE SMOOTH",
"156 816 LINE SMOOTH",
"156 795 OFFCURVE",
"170 780 OFFCURVE",
"191 780 CURVE SMOOTH"
);
},
{
closed = 1;
nodes = (
"130 681 LINE SMOOTH",
"130 692 OFFCURVE",
"122 701 OFFCURVE",
"110 701 CURVE SMOOTH",
"99 701 OFFCURVE",
"90 692 OFFCURVE",
"90 681 CURVE SMOOTH",
"90 20 LINE SMOOTH",
"90 9 OFFCURVE",
"98 0 OFFCURVE",
"110 0 CURVE SMOOTH",
"121 0 OFFCURVE",
"130 9 OFFCURVE",
"130 20 CURVE SMOOTH"
);
}
);
width = 220;
},
{
layerId = "8816CCA3-DDF9-4C51-BD56-64EE3675A105";
paths = (
{
closed = 1;
nodes = (
"-12 830 LINE SMOOTH",
"-12 797 OFFCURVE",
"6 780 OFFCURVE",
"38 780 CURVE SMOOTH",
"61 780 LINE SMOOTH",
"94 780 OFFCURVE",
"111 797 OFFCURVE",
"111 830 CURVE SMOOTH",
"111 848 LINE SMOOTH",
"111 881 OFFCURVE",
"93 898 OFFCURVE",
"61 898 CURVE SMOOTH",
"38 898 LINE SMOOTH",
"6 898 OFFCURVE",
"-12 880 OFFCURVE",
"-12 848 CURVE SMOOTH"
);
},
{
closed = 1;
nodes = (
"187 830 LINE SMOOTH",
"187 797 OFFCURVE",
"205 780 OFFCURVE",
"237 780 CURVE SMOOTH",
"260 780 LINE SMOOTH",
"293 780 OFFCURVE",
"310 797 OFFCURVE",
"310 830 CURVE SMOOTH",
"310 848 LINE SMOOTH",
"310 881 OFFCURVE",
"292 898 OFFCURVE",
"260 898 CURVE SMOOTH",
"237 898 LINE SMOOTH",
"205 898 OFFCURVE",
"187 880 OFFCURVE",
"187 848 CURVE SMOOTH"
);
},
{
closed = 1;
nodes = (
"210 639 LINE SMOOTH",
"210 674 OFFCURVE",
"185 700 OFFCURVE",
"151 700 CURVE SMOOTH",
"116 700 OFFCURVE",
"90 674 OFFCURVE",
"90 639 CURVE SMOOTH",
"90 61 LINE SMOOTH",
"90 26 OFFCURVE",
"115 0 OFFCURVE",
"149 0 CURVE SMOOTH",
"184 0 OFFCURVE",
"210 26 OFFCURVE",
"210 61 CURVE SMOOTH"
);
}
);
width = 300;
}
);
note = Idieresis;
unicode = 00CF;
},
{
glyphname = Idotaccent;
lastChange = "2016-06-29 14:38:01 +0000";
layers = (
{
layerId = "254266E2-2911-423D-9D37-8CC6105656EE";
paths = (
{
closed = 1;
nodes = (
"129 780 OFFCURVE",
"143 795 OFFCURVE",
"143 816 CURVE SMOOTH",
"143 824 LINE SMOOTH",
"143 845 OFFCURVE",
"129 860 OFFCURVE",
"110 860 CURVE SMOOTH",
"89 860 OFFCURVE",
"74 845 OFFCURVE",
"74 824 CURVE SMOOTH",
"74 816 LINE SMOOTH",
"74 795 OFFCURVE",
"88 780 OFFCURVE",
"109 780 CURVE SMOOTH"
);
},
{
closed = 1;
nodes = (
"130 681 LINE SMOOTH",
"130 692 OFFCURVE",
"122 701 OFFCURVE",
"110 701 CURVE SMOOTH",
"99 701 OFFCURVE",
"90 692 OFFCURVE",
"90 681 CURVE SMOOTH",
"90 20 LINE SMOOTH",
"90 9 OFFCURVE",
"98 0 OFFCURVE",
"110 0 CURVE SMOOTH",
"121 0 OFFCURVE",
"130 9 OFFCURVE",
"130 20 CURVE SMOOTH"
);
}
);
width = 220;
},
{
layerId = "8816CCA3-DDF9-4C51-BD56-64EE3675A105";
paths = (
{
closed = 1;
nodes = (
"86 830 LINE SMOOTH",
"86 797 OFFCURVE",
"103 780 OFFCURVE",
"136 780 CURVE SMOOTH",
"162 780 LINE SMOOTH",
"195 780 OFFCURVE",
"212 798 OFFCURVE",
"212 830 CURVE SMOOTH",
"212 849 LINE SMOOTH",
"212 882 OFFCURVE",
"195 899 OFFCURVE",
"162 899 CURVE SMOOTH",
"136 899 LINE SMOOTH",
"104 899 OFFCURVE",
"86 881 OFFCURVE",
"86 849 CURVE SMOOTH"
);
},
{
closed = 1;
nodes = (
"210 639 LINE SMOOTH",
"210 674 OFFCURVE",
"185 700 OFFCURVE",
"151 700 CURVE SMOOTH",
"116 700 OFFCURVE",
"90 674 OFFCURVE",
"90 639 CURVE SMOOTH",
"90 61 LINE SMOOTH",
"90 26 OFFCURVE",
"115 0 OFFCURVE",
"149 0 CURVE SMOOTH",
"184 0 OFFCURVE",
"210 26 OFFCURVE",
"210 61 CURVE SMOOTH"
);
}
);
width = 300;
}
);
note = Idotaccent;
unicode = 0130;
},
{
glyphname = Igrave;
lastChange = "2016-06-29 14:38:01 +0000";
layers = (
{
layerId = "254266E2-2911-423D-9D37-8CC6105656EE";
paths = (
{
closed = 1;
nodes = (
"82 790 LINE SMOOTH",
"89 783 OFFCURVE",
"96 780 OFFCURVE",
"105 780 CURVE SMOOTH",
"121 780 OFFCURVE",
"127 791 OFFCURVE",
"118 804 CURVE SMOOTH",
"56 897 LINE SMOOTH",
"49 908 OFFCURVE",
"40 910 OFFCURVE",
"29 905 CURVE",
"7 894 LINE SMOOTH",
"-6 887 OFFCURVE",
"-8 876 OFFCURVE",
"3 866 CURVE SMOOTH"
);
},
{
closed = 1;
nodes = (
"130 681 LINE SMOOTH",
"130 692 OFFCURVE",
"122 701 OFFCURVE",
"110 701 CURVE SMOOTH",
"99 701 OFFCURVE",
"90 692 OFFCURVE",
"90 681 CURVE SMOOTH",
"90 20 LINE SMOOTH",
"90 9 OFFCURVE",
"98 0 OFFCURVE",
"110 0 CURVE SMOOTH",
"121 0 OFFCURVE",
"130 9 OFFCURVE",
"130 20 CURVE SMOOTH"
);
}
);
width = 178;
},
{
layerId = "8816CCA3-DDF9-4C51-BD56-64EE3675A105";
paths = (
{
closed = 1;
nodes = (
"98 805 LINE SMOOTH",
"117 787 OFFCURVE",
"130 780 OFFCURVE",
"146 780 CURVE SMOOTH",
"187 780 OFFCURVE",
"201 806 OFFCURVE",
"179 840 CURVE SMOOTH",
"137 905 LINE SMOOTH",
"120 931 OFFCURVE",
"98 938 OFFCURVE",
"70 925 CURVE",
"60 921 LINE",
"25 905 OFFCURVE",
"20 878 OFFCURVE",
"48 852 CURVE SMOOTH"
);
},
{
closed = 1;
nodes = (
"210 639 LINE SMOOTH",
"210 674 OFFCURVE",
"185 700 OFFCURVE",
"151 700 CURVE SMOOTH",
"116 700 OFFCURVE",
"90 674 OFFCURVE",
"90 639 CURVE SMOOTH",
"90 61 LINE SMOOTH",
"90 26 OFFCURVE",
"115 0 OFFCURVE",
"149 0 CURVE SMOOTH",
"184 0 OFFCURVE",
"210 26 OFFCURVE",
"210 61 CURVE SMOOTH"
);
}
);
width = 300;
}
);
note = Igrave;
unicode = 00CC;
},
{
glyphname = Imacron;
lastChange = "2016-06-29 14:38:01 +0000";
layers = (
{
layerId = "254266E2-2911-423D-9D37-8CC6105656EE";
paths = (
{
closed = 1;
nodes = (
"239 780 LINE SMOOTH",
"252 780 OFFCURVE",
"259 787 OFFCURVE",
"259 800 CURVE SMOOTH",
"259 813 LINE SMOOTH",
"259 826 OFFCURVE",
"252 833 OFFCURVE",
"239 833 CURVE SMOOTH",
"-21 833 LINE SMOOTH",
"-34 833 OFFCURVE",
"-41 826 OFFCURVE",
"-41 813 CURVE SMOOTH",
"-41 800 LINE SMOOTH",
"-41 787 OFFCURVE",
"-34 780 OFFCURVE",
"-21 780 CURVE SMOOTH"
);
},
{
closed = 1;
nodes = (
"130 681 LINE SMOOTH",
"130 692 OFFCURVE",
"122 701 OFFCURVE",
"110 701 CURVE SMOOTH",
"99 701 OFFCURVE",
"90 692 OFFCURVE",
"90 681 CURVE SMOOTH",
"90 20 LINE SMOOTH",
"90 9 OFFCURVE",
"98 0 OFFCURVE",
"110 0 CURVE SMOOTH",
"121 0 OFFCURVE",
"130 9 OFFCURVE",
"130 20 CURVE SMOOTH"
);
}
);
width = 220;
},
{
layerId = "8816CCA3-DDF9-4C51-BD56-64EE3675A105";
paths = (
{
closed = 1;
nodes = (
"-22 796 OFFCURVE",
"-4 780 OFFCURVE",
"28 780 CURVE SMOOTH",
"270 780 LINE SMOOTH",
"303 780 OFFCURVE",
"320 796 OFFCURVE",
"320 825 CURVE SMOOTH",
"320 853 OFFCURVE",
"302 869 OFFCURVE",
"270 869 CURVE SMOOTH",
"28 869 LINE SMOOTH",
"-4 869 OFFCURVE",
"-22 853 OFFCURVE",
"-22 825 CURVE SMOOTH"
);
},
{
closed = 1;
nodes = (
"210 639 LINE SMOOTH",
"210 674 OFFCURVE",
"185 700 OFFCURVE",
"151 700 CURVE SMOOTH",
"116 700 OFFCURVE",
"90 674 OFFCURVE",
"90 639 CURVE SMOOTH",
"90 61 LINE SMOOTH",
"90 26 OFFCURVE",
"115 0 OFFCURVE",
"149 0 CURVE SMOOTH",
"184 0 OFFCURVE",
"210 26 OFFCURVE",
"210 61 CURVE SMOOTH"
);
}
);
width = 300;
}
);
note = Imacron;
unicode = 012A;
},
{
glyphname = Iogonek;
lastChange = "2016-06-29 14:38:01 +0000";
layers = (
{
layerId = "254266E2-2911-423D-9D37-8CC6105656EE";
paths = (
{
closed = 1;
nodes = (
"169 -135 OFFCURVE",
"159 -133 OFFCURVE",
"147 -138 CURVE SMOOTH",
"132 -144 OFFCURVE",
"66 -158 OFFCURVE",
"47 -97 CURVE SMOOTH",
"40 -74 OFFCURVE",
"41 -27 OFFCURVE",
"97 5 CURVE",
"100 2 OFFCURVE",
"105 0 OFFCURVE",
"110 0 CURVE SMOOTH",
"121 0 OFFCURVE",
"130 9 OFFCURVE",
"130 20 CURVE SMOOTH",
"130 681 LINE SMOOTH",
"130 692 OFFCURVE",
"122 701 OFFCURVE",
"110 701 CURVE SMOOTH",
"99 701 OFFCURVE",
"90 692 OFFCURVE",
"90 681 CURVE SMOOTH",
"90 24 LINE",
"52 10 OFFCURVE",
"-4 -21 OFFCURVE",
"-4 -96 CURVE SMOOTH",
"-4 -192 OFFCURVE",
"112 -198 OFFCURVE",
"161 -170 CURVE SMOOTH",
"177 -161 OFFCURVE",
"177 -151 OFFCURVE",
"173 -143 CURVE SMOOTH"
);
}
);
width = 230;
},
{
layerId = "8816CCA3-DDF9-4C51-BD56-64EE3675A105";
paths = (
{
closed = 1;
nodes = (
"211 -130 OFFCURVE",
"194 -126 OFFCURVE",
"176 -134 CURVE SMOOTH",
"140 -150 OFFCURVE",
"106 -126 OFFCURVE",
"100 -96 CURVE SMOOTH",
"94 -67 OFFCURVE",
"100 -34 OFFCURVE",
"153 0 CURVE",
"186 2 OFFCURVE",
"210 28 OFFCURVE",
"210 61 CURVE SMOOTH",
"210 639 LINE SMOOTH",
"210 674 OFFCURVE",
"185 700 OFFCURVE",
"151 700 CURVE SMOOTH",
"116 700 OFFCURVE",
"90 674 OFFCURVE",
"90 639 CURVE SMOOTH",
"90 61 LINE SMOOTH",
"90 53 OFFCURVE",
"91 45 OFFCURVE",
"94 38 CURVE",
"52 14 OFFCURVE",
"6 -27 OFFCURVE",
"6 -95 CURVE SMOOTH",
"6 -189 OFFCURVE",
"108 -232 OFFCURVE",
"201 -192 CURVE SMOOTH",
"222 -183 OFFCURVE",
"227 -164 OFFCURVE",
"219 -147 CURVE SMOOTH"
);
}
);
width = 300;
}
);
note = Iogonek;
unicode = 012E;
},
{
glyphname = J;
lastChange = "2016-06-29 14:38:01 +0000";
layers = (
{
layerId = "254266E2-2911-423D-9D37-8CC6105656EE";
paths = (
{
closed = 1;
nodes = (
"444 700 OFFCURVE",
"436 691 OFFCURVE",
"436 680 CURVE SMOOTH",
"436 229 LINE SMOOTH",
"436 125 OFFCURVE",
"350 40 OFFCURVE",
"247 40 CURVE SMOOTH",
"169 40 OFFCURVE",
"103 87 OFFCURVE",
"74 154 CURVE",
"69 164 OFFCURVE",
"60 169 OFFCURVE",
"50 166 CURVE SMOOTH",
"38 162 OFFCURVE",
"32 150 OFFCURVE",
"37 139 CURVE SMOOTH",
"72 57 OFFCURVE",
"153 0 OFFCURVE",
"247 0 CURVE SMOOTH",
"373 0 OFFCURVE",
"476 103 OFFCURVE",
"476 229 CURVE SMOOTH",
"476 680 LINE SMOOTH",
"476 691 OFFCURVE",
"468 700 OFFCURVE",
"456 700 CURVE SMOOTH"
);
}
);
width = 566;
},
{
layerId = "8816CCA3-DDF9-4C51-BD56-64EE3675A105";
paths = (
{
closed = 1;
nodes = (
"88 32 OFFCURVE",
"157 0 OFFCURVE",
"233 0 CURVE SMOOTH",
"361 0 OFFCURVE",
"462 107 OFFCURVE",
"462 229 CURVE SMOOTH",
"462 639 LINE SMOOTH",
"462 674 OFFCURVE",
"437 700 OFFCURVE",
"403 700 CURVE SMOOTH",
"368 700 OFFCURVE",
"342 674 OFFCURVE",
"342 639 CURVE SMOOTH",
"342 229 LINE SMOOTH",
"342 171 OFFCURVE",
"293 120 OFFCURVE",
"233 120 CURVE SMOOTH",
"200 120 OFFCURVE",
"175 129 OFFCURVE",
"149 153 CURVE SMOOTH",
"125 176 OFFCURVE",
"98 191 OFFCURVE",
"66 172 CURVE SMOOTH",
"39 156 OFFCURVE",
"23 123 OFFCURVE",
"47 89 CURVE SMOOTH"
);
}
);
width = 552;
}
);
leftKerningGroup = J;
note = J;
rightKerningGroup = J;
unicode = 004A;
},
{
glyphname = K;
lastChange = "2016-06-29 14:38:01 +0000";
layers = (
{
layerId = "254266E2-2911-423D-9D37-8CC6105656EE";
paths = (
{
closed = 1;
nodes = (
"340 383 LINE",
"338 386 OFFCURVE",
"338 388 OFFCURVE",
"340 390 CURVE SMOOTH",
"612 662 LINE SMOOTH",
"620 670 OFFCURVE",
"620 682 OFFCURVE",
"612 690 CURVE SMOOTH",
"604 698 OFFCURVE",
"592 698 OFFCURVE",
"584 690 CURVE SMOOTH",
"136 242 LINE SMOOTH",
"133 239 OFFCURVE",
"130 240 OFFCURVE",
"130 245 CURVE SMOOTH",
"130 680 LINE SMOOTH",
"130 691 OFFCURVE",
"122 700 OFFCURVE",
"110 700 CURVE SMOOTH",
"98 700 OFFCURVE",
"90 691 OFFCURVE",
"90 680 CURVE SMOOTH",
"90 20 LINE SMOOTH",
"90 9 OFFCURVE",
"98 0 OFFCURVE",
"110 0 CURVE SMOOTH",
"122 0 OFFCURVE",
"130 9 OFFCURVE",
"130 20 CURVE SMOOTH",
"130 176 LINE SMOOTH",
"130 179 OFFCURVE",
"131 181 OFFCURVE",
"133 183 CURVE SMOOTH",
"305 355 LINE SMOOTH",
"307 357 OFFCURVE",
"310 357 OFFCURVE",
"312 354 CURVE",
"602 2 LINE SMOOTH",
"609 -7 OFFCURVE",
"620 -8 OFFCURVE",
"629 -1 CURVE",
"630 -1 LINE",
"638 7 OFFCURVE",
"639 19 OFFCURVE",
"632 28 CURVE SMOOTH"
);
}
);
width = 672;
},
{
layerId = "8816CCA3-DDF9-4C51-BD56-64EE3675A105";
paths = (
{
closed = 1;
nodes = (
"418 367 LINE SMOOTH",
"414 372 OFFCURVE",
"415 377 OFFCURVE",
"419 382 CURVE",
"636 597 LINE SMOOTH",
"661 622 OFFCURVE",
"662 658 OFFCURVE",
"638 682 CURVE SMOOTH",
"613 707 OFFCURVE",
"577 707 OFFCURVE",
"552 682 CURVE SMOOTH",
"222 354 LINE SMOOTH",
"216 348 OFFCURVE",
"210 350 OFFCURVE",
"210 359 CURVE SMOOTH",
"210 639 LINE SMOOTH",
"210 674 OFFCURVE",
"185 700 OFFCURVE",
"151 700 CURVE SMOOTH",
"116 700 OFFCURVE",
"90 674 OFFCURVE",
"90 639 CURVE SMOOTH",
"90 61 LINE SMOOTH",
"90 26 OFFCURVE",
"115 0 OFFCURVE",
"149 0 CURVE SMOOTH",
"184 0 OFFCURVE",
"210 26 OFFCURVE",
"210 61 CURVE SMOOTH",
"210 166 LINE SMOOTH",
"210 172 OFFCURVE",
"211 175 OFFCURVE",
"215 179 CURVE SMOOTH",
"319 282 LINE SMOOTH",
"324 287 OFFCURVE",
"329 287 OFFCURVE",
"334 282 CURVE",
"547 23 LINE SMOOTH",
"569 -4 OFFCURVE",
"605 -8 OFFCURVE",
"631 13 CURVE SMOOTH",
"658 36 OFFCURVE",
"661 72 OFFCURVE",
"639 99 CURVE SMOOTH"
);
}
);
width = 690;
}
);
note = K;
rightKerningGroup = K;
unicode = 004B;
},
{
glyphname = Kcommaaccent;
lastChange = "2016-06-29 14:38:01 +0000";
layers = (
{
layerId = "254266E2-2911-423D-9D37-8CC6105656EE";
paths = (
{
closed = 1;
nodes = (
"340 383 LINE",
"338 386 OFFCURVE",
"338 388 OFFCURVE",
"340 390 CURVE SMOOTH",
"612 662 LINE SMOOTH",
"620 670 OFFCURVE",
"620 682 OFFCURVE",
"612 690 CURVE SMOOTH",
"604 698 OFFCURVE",
"592 698 OFFCURVE",
"584 690 CURVE SMOOTH",
"136 242 LINE SMOOTH",
"133 239 OFFCURVE",
"130 240 OFFCURVE",
"130 245 CURVE SMOOTH",
"130 680 LINE SMOOTH",
"130 691 OFFCURVE",
"122 700 OFFCURVE",
"110 700 CURVE SMOOTH",
"98 700 OFFCURVE",
"90 691 OFFCURVE",
"90 680 CURVE SMOOTH",
"90 20 LINE SMOOTH",
"90 9 OFFCURVE",
"98 0 OFFCURVE",
"110 0 CURVE SMOOTH",
"122 0 OFFCURVE",
"130 9 OFFCURVE",
"130 20 CURVE SMOOTH",
"130 176 LINE SMOOTH",
"130 179 OFFCURVE",
"131 181 OFFCURVE",
"133 183 CURVE SMOOTH",
"305 355 LINE SMOOTH",
"307 357 OFFCURVE",
"310 357 OFFCURVE",
"312 354 CURVE",
"602 2 LINE SMOOTH",
"609 -7 OFFCURVE",
"620 -8 OFFCURVE",
"629 -1 CURVE",
"630 -1 LINE",
"638 7 OFFCURVE",
"639 19 OFFCURVE",
"632 28 CURVE SMOOTH"
);
},
{
closed = 1;
nodes = (
"300 -267 OFFCURVE",
"314 -268 OFFCURVE",
"329 -260 CURVE SMOOTH",
"369 -237 OFFCURVE",
"385 -206 OFFCURVE",
"385 -154 CURVE SMOOTH",
"385 -111 LINE SMOOTH",
"385 -93 OFFCURVE",
"372 -80 OFFCURVE",
"354 -80 CURVE SMOOTH",
"350 -80 LINE SMOOTH",
"332 -80 OFFCURVE",
"319 -93 OFFCURVE",
"319 -111 CURVE SMOOTH",
"319 -134 LINE SMOOTH",
"319 -152 OFFCURVE",
"330 -165 OFFCURVE",
"346 -165 CURVE",
"348 -195 OFFCURVE",
"339 -215 OFFCURVE",
"314 -233 CURVE",
"300 -242 OFFCURVE",
"292 -252 OFFCURVE",
"296 -260 CURVE"
);
}
);
width = 672;
},
{
layerId = "8816CCA3-DDF9-4C51-BD56-64EE3675A105";
paths = (
{
closed = 1;
nodes = (
"418 367 LINE SMOOTH",
"414 372 OFFCURVE",
"415 377 OFFCURVE",
"419 382 CURVE",
"636 597 LINE SMOOTH",
"661 622 OFFCURVE",
"662 658 OFFCURVE",
"638 682 CURVE SMOOTH",
"613 707 OFFCURVE",
"577 707 OFFCURVE",
"552 682 CURVE SMOOTH",
"222 354 LINE SMOOTH",
"216 348 OFFCURVE",
"210 350 OFFCURVE",
"210 359 CURVE SMOOTH",
"210 639 LINE SMOOTH",
"210 674 OFFCURVE",
"185 700 OFFCURVE",
"151 700 CURVE SMOOTH",
"116 700 OFFCURVE",
"90 674 OFFCURVE",
"90 639 CURVE SMOOTH",
"90 61 LINE SMOOTH",
"90 26 OFFCURVE",
"115 0 OFFCURVE",
"149 0 CURVE SMOOTH",
"184 0 OFFCURVE",
"210 26 OFFCURVE",
"210 61 CURVE SMOOTH",
"210 166 LINE SMOOTH",
"210 172 OFFCURVE",
"211 175 OFFCURVE",
"215 179 CURVE SMOOTH",
"319 282 LINE SMOOTH",
"324 287 OFFCURVE",
"329 287 OFFCURVE",
"334 282 CURVE",
"547 23 LINE SMOOTH",
"569 -4 OFFCURVE",
"605 -8 OFFCURVE",
"631 13 CURVE SMOOTH",
"658 36 OFFCURVE",
"661 72 OFFCURVE",
"639 99 CURVE SMOOTH"
);
},
{
closed = 1;
nodes = (
"291 -351 OFFCURVE",
"317 -361 OFFCURVE",
"348 -351 CURVE SMOOTH",
"413 -331 OFFCURVE",
"447 -284 OFFCURVE",
"447 -195 CURVE SMOOTH",
"447 -140 LINE SMOOTH",
"447 -105 OFFCURVE",
"421 -79 OFFCURVE",
"386 -79 CURVE SMOOTH",
"375 -79 LINE SMOOTH",
"340 -79 OFFCURVE",
"314 -105 OFFCURVE",
"314 -140 CURVE SMOOTH",
"314 -155 LINE SMOOTH",
"314 -190 OFFCURVE",
"335 -216 OFFCURVE",
"365 -216 CURVE",
"368 -251 OFFCURVE",
"356 -276 OFFCURVE",
"328 -293 CURVE SMOOTH",
"302 -309 OFFCURVE",
"283 -320 OFFCURVE",
"287 -336 CURVE SMOOTH"
);
}
);
width = 690;
}
);
note = Kcommaaccent;
unicode = 0136;
},
{
glyphname = L;
lastChange = "2016-06-29 14:38:01 +0000";
layers = (
{
layerId = "254266E2-2911-423D-9D37-8CC6105656EE";
paths = (
{
closed = 1;
nodes = (
"135 40 LINE SMOOTH",
"132 40 OFFCURVE",
"130 42 OFFCURVE",
"130 45 CURVE SMOOTH",
"130 680 LINE SMOOTH",
"130 691 OFFCURVE",
"122 700 OFFCURVE",
"110 700 CURVE SMOOTH",
"99 700 OFFCURVE",
"90 691 OFFCURVE",
"90 680 CURVE SMOOTH",
"90 20 LINE SMOOTH",
"90 9 OFFCURVE",
"98 0 OFFCURVE",
"110 0 CURVE SMOOTH",
"477 0 LINE SMOOTH",
"488 0 OFFCURVE",
"497 8 OFFCURVE",
"497 20 CURVE SMOOTH",
"497 31 OFFCURVE",
"488 40 OFFCURVE",
"477 40 CURVE SMOOTH"
);
}
);
width = 512;
},
{
layerId = "8816CCA3-DDF9-4C51-BD56-64EE3675A105";
paths = (
{
closed = 1;
nodes = (
"220 120 LINE SMOOTH",
"214 120 OFFCURVE",
"210 124 OFFCURVE",
"210 130 CURVE SMOOTH",
"210 639 LINE SMOOTH",
"210 674 OFFCURVE",
"185 700 OFFCURVE",
"151 700 CURVE SMOOTH",
"116 700 OFFCURVE",
"90 674 OFFCURVE",
"90 639 CURVE SMOOTH",
"90 61 LINE SMOOTH",
"90 26 OFFCURVE",
"116 0 OFFCURVE",
"151 0 CURVE SMOOTH",
"476 0 LINE SMOOTH",
"511 0 OFFCURVE",
"537 25 OFFCURVE",
"537 59 CURVE SMOOTH",
"537 94 OFFCURVE",
"511 120 OFFCURVE",
"476 120 CURVE SMOOTH"
);
}
);
width = 552;
}
);
note = L;
rightKerningGroup = L;
unicode = 004C;
},
{
glyphname = Lacute;
lastChange = "2016-06-29 14:38:01 +0000";
layers = (
{
layerId = "254266E2-2911-423D-9D37-8CC6105656EE";
paths = (
{
closed = 1;
nodes = (
"109 780 LINE SMOOTH",
"119 780 OFFCURVE",
"126 783 OFFCURVE",
"133 790 CURVE SMOOTH",
"212 866 LINE SMOOTH",
"223 876 OFFCURVE",
"221 887 OFFCURVE",
"208 894 CURVE SMOOTH",
"186 905 LINE",
"175 910 OFFCURVE",
"166 908 OFFCURVE",
"159 897 CURVE SMOOTH",
"97 804 LINE SMOOTH",
"88 791 OFFCURVE",
"90 780 OFFCURVE",
"102 780 CURVE SMOOTH"
);
},
{
closed = 1;
nodes = (
"135 40 LINE SMOOTH",
"132 40 OFFCURVE",
"130 42 OFFCURVE",
"130 45 CURVE SMOOTH",
"130 680 LINE SMOOTH",
"130 691 OFFCURVE",
"122 700 OFFCURVE",
"110 700 CURVE SMOOTH",
"99 700 OFFCURVE",
"90 691 OFFCURVE",
"90 680 CURVE SMOOTH",
"90 20 LINE SMOOTH",
"90 9 OFFCURVE",
"98 0 OFFCURVE",
"110 0 CURVE SMOOTH",
"477 0 LINE SMOOTH",
"488 0 OFFCURVE",
"497 8 OFFCURVE",
"497 20 CURVE SMOOTH",
"497 31 OFFCURVE",
"488 40 OFFCURVE",
"477 40 CURVE SMOOTH"
);
}
);
width = 493;
},
{
layerId = "8816CCA3-DDF9-4C51-BD56-64EE3675A105";
paths = (
{
closed = 1;
nodes = (
"119 840 LINE SMOOTH",
"97 806 OFFCURVE",
"105 780 OFFCURVE",
"138 780 CURVE SMOOTH",
"164 780 OFFCURVE",
"181 787 OFFCURVE",
"200 805 CURVE SMOOTH",
"250 852 LINE SMOOTH",
"278 878 OFFCURVE",
"273 905 OFFCURVE",
"238 921 CURVE",
"228 925 LINE",
"200 938 OFFCURVE",
"178 931 OFFCURVE",
"161 905 CURVE SMOOTH"
);
},
{
closed = 1;
nodes = (
"220 120 LINE SMOOTH",
"214 120 OFFCURVE",
"210 124 OFFCURVE",
"210 130 CURVE SMOOTH",
"210 639 LINE SMOOTH",
"210 674 OFFCURVE",
"185 700 OFFCURVE",
"151 700 CURVE SMOOTH",
"116 700 OFFCURVE",
"90 674 OFFCURVE",
"90 639 CURVE SMOOTH",
"90 61 LINE SMOOTH",
"90 26 OFFCURVE",
"116 0 OFFCURVE",
"151 0 CURVE SMOOTH",
"476 0 LINE SMOOTH",
"511 0 OFFCURVE",
"537 25 OFFCURVE",
"537 59 CURVE SMOOTH",
"537 94 OFFCURVE",
"511 120 OFFCURVE",
"476 120 CURVE SMOOTH"
);
}
);
width = 552;
}
);
note = Lacute;
unicode = 0139;
},
{
glyphname = Lcaron;
lastChange = "2016-06-29 14:38:01 +0000";
layers = (
{
layerId = "254266E2-2911-423D-9D37-8CC6105656EE";
paths = (
{
closed = 1;
nodes = (
"135 40 LINE SMOOTH",
"132 40 OFFCURVE",
"130 42 OFFCURVE",
"130 45 CURVE SMOOTH",
"130 680 LINE SMOOTH",
"130 691 OFFCURVE",
"122 700 OFFCURVE",
"110 700 CURVE SMOOTH",
"99 700 OFFCURVE",
"90 691 OFFCURVE",
"90 680 CURVE SMOOTH",
"90 20 LINE SMOOTH",
"90 9 OFFCURVE",
"98 0 OFFCURVE",
"110 0 CURVE SMOOTH",
"477 0 LINE SMOOTH",
"488 0 OFFCURVE",
"497 8 OFFCURVE",
"497 20 CURVE SMOOTH",
"497 31 OFFCURVE",
"488 40 OFFCURVE",
"477 40 CURVE SMOOTH"
);
},
{
closed = 1;
nodes = (
"289 539 OFFCURVE",
"307 571 OFFCURVE",
"307 626 CURVE SMOOTH",
"307 670 LINE SMOOTH",
"307 690 OFFCURVE",
"297 700 OFFCURVE",
"277 700 CURVE SMOOTH",
"271 700 LINE SMOOTH",
"252 700 OFFCURVE",
"241 689 OFFCURVE",
"241 670 CURVE SMOOTH",
"241 645 LINE SMOOTH",
"241 628 OFFCURVE",
"248 617 OFFCURVE",
"263 615 CURVE",
"266 615 OFFCURVE",
"268 613 OFFCURVE",
"268 610 CURVE",
"270 581 OFFCURVE",
"258 561 OFFCURVE",
"229 543 CURVE SMOOTH",
"218 536 OFFCURVE",
"214 529 OFFCURVE",
"218 521 CURVE SMOOTH",
"222 513 OFFCURVE",
"231 510 OFFCURVE",
"242 516 CURVE"
);
}
);
width = 512;
},
{
layerId = "8816CCA3-DDF9-4C51-BD56-64EE3675A105";
paths = (
{
closed = 1;
nodes = (
"220 120 LINE SMOOTH",
"214 120 OFFCURVE",
"210 124 OFFCURVE",
"210 130 CURVE SMOOTH",
"210 639 LINE SMOOTH",
"210 674 OFFCURVE",
"185 700 OFFCURVE",
"151 700 CURVE SMOOTH",
"116 700 OFFCURVE",
"90 674 OFFCURVE",
"90 639 CURVE SMOOTH",
"90 61 LINE SMOOTH",
"90 26 OFFCURVE",
"116 0 OFFCURVE",
"151 0 CURVE SMOOTH",
"476 0 LINE SMOOTH",
"511 0 OFFCURVE",
"537 25 OFFCURVE",
"537 59 CURVE SMOOTH",
"537 94 OFFCURVE",
"511 120 OFFCURVE",
"476 120 CURVE SMOOTH"
);
}
);
width = 552;
}
);
note = Lcaron;
unicode = 013D;
},
{
glyphname = Lcommaaccent;
lastChange = "2016-06-29 14:38:01 +0000";
layers = (
{
layerId = "254266E2-2911-423D-9D37-8CC6105656EE";
paths = (
{
closed = 1;
nodes = (
"135 40 LINE SMOOTH",
"132 40 OFFCURVE",
"130 42 OFFCURVE",
"130 45 CURVE SMOOTH",
"130 680 LINE SMOOTH",
"130 691 OFFCURVE",
"122 700 OFFCURVE",
"110 700 CURVE SMOOTH",
"99 700 OFFCURVE",
"90 691 OFFCURVE",
"90 680 CURVE SMOOTH",
"90 20 LINE SMOOTH",
"90 9 OFFCURVE",
"98 0 OFFCURVE",
"110 0 CURVE SMOOTH",
"477 0 LINE SMOOTH",
"488 0 OFFCURVE",
"497 8 OFFCURVE",
"497 20 CURVE SMOOTH",
"497 31 OFFCURVE",
"488 40 OFFCURVE",
"477 40 CURVE SMOOTH"
);
},
{
closed = 1;
nodes = (
"214 -267 OFFCURVE",
"228 -268 OFFCURVE",
"243 -260 CURVE SMOOTH",
"283 -237 OFFCURVE",
"299 -206 OFFCURVE",
"299 -154 CURVE SMOOTH",
"299 -111 LINE SMOOTH",
"299 -93 OFFCURVE",
"286 -80 OFFCURVE",
"268 -80 CURVE SMOOTH",
"264 -80 LINE SMOOTH",
"246 -80 OFFCURVE",
"233 -93 OFFCURVE",
"233 -111 CURVE SMOOTH",
"233 -134 LINE SMOOTH",
"233 -152 OFFCURVE",
"244 -165 OFFCURVE",
"260 -165 CURVE",
"262 -195 OFFCURVE",
"253 -215 OFFCURVE",
"228 -233 CURVE",
"214 -242 OFFCURVE",
"206 -252 OFFCURVE",
"210 -260 CURVE"
);
}
);
width = 512;
},
{
layerId = "8816CCA3-DDF9-4C51-BD56-64EE3675A105";
paths = (
{
closed = 1;
nodes = (
"220 120 LINE SMOOTH",
"214 120 OFFCURVE",
"210 124 OFFCURVE",
"210 130 CURVE SMOOTH",
"210 639 LINE SMOOTH",
"210 674 OFFCURVE",
"185 700 OFFCURVE",
"151 700 CURVE SMOOTH",
"116 700 OFFCURVE",
"90 674 OFFCURVE",
"90 639 CURVE SMOOTH",
"90 61 LINE SMOOTH",
"90 26 OFFCURVE",
"116 0 OFFCURVE",
"151 0 CURVE SMOOTH",
"476 0 LINE SMOOTH",
"511 0 OFFCURVE",
"537 25 OFFCURVE",
"537 59 CURVE SMOOTH",
"537 94 OFFCURVE",
"511 120 OFFCURVE",
"476 120 CURVE SMOOTH"
);
},
{
closed = 1;
nodes = (
"216 -351 OFFCURVE",
"242 -361 OFFCURVE",
"273 -351 CURVE SMOOTH",
"338 -331 OFFCURVE",
"372 -284 OFFCURVE",
"372 -195 CURVE SMOOTH",
"372 -140 LINE SMOOTH",
"372 -105 OFFCURVE",
"346 -79 OFFCURVE",
"311 -79 CURVE SMOOTH",
"300 -79 LINE SMOOTH",
"265 -79 OFFCURVE",
"239 -105 OFFCURVE",
"239 -140 CURVE SMOOTH",
"239 -155 LINE SMOOTH",
"239 -190 OFFCURVE",
"260 -216 OFFCURVE",
"290 -216 CURVE",
"293 -251 OFFCURVE",
"281 -276 OFFCURVE",
"253 -293 CURVE SMOOTH",
"227 -309 OFFCURVE",
"208 -320 OFFCURVE",
"212 -336 CURVE SMOOTH"
);
}
);
width = 552;
}
);
note = Lcommaaccent;
unicode = 013B;
},
{
glyphname = Ldot;
lastChange = "2016-06-29 14:38:01 +0000";
layers = (
{
layerId = "254266E2-2911-423D-9D37-8CC6105656EE";
paths = (
{
closed = 1;
nodes = (
"135 40 LINE SMOOTH",
"132 40 OFFCURVE",
"130 42 OFFCURVE",
"130 45 CURVE SMOOTH",
"130 680 LINE SMOOTH",
"130 691 OFFCURVE",
"122 700 OFFCURVE",
"110 700 CURVE SMOOTH",
"99 700 OFFCURVE",
"90 691 OFFCURVE",
"90 680 CURVE SMOOTH",
"90 20 LINE SMOOTH",
"90 9 OFFCURVE",
"98 0 OFFCURVE",
"110 0 CURVE SMOOTH",
"477 0 LINE SMOOTH",
"488 0 OFFCURVE",
"497 8 OFFCURVE",
"497 20 CURVE SMOOTH",
"497 31 OFFCURVE",
"488 40 OFFCURVE",
"477 40 CURVE SMOOTH"
);
},
{
closed = 1;
nodes = (
"256 308 LINE SMOOTH",
"274 308 OFFCURVE",
"287 321 OFFCURVE",
"287 339 CURVE SMOOTH",
"287 362 LINE SMOOTH",
"287 380 OFFCURVE",
"274 393 OFFCURVE",
"256 393 CURVE SMOOTH",
"252 393 LINE SMOOTH",
"234 393 OFFCURVE",
"221 380 OFFCURVE",
"221 362 CURVE SMOOTH",
"221 339 LINE SMOOTH",
"221 321 OFFCURVE",
"234 308 OFFCURVE",
"252 308 CURVE SMOOTH"
);
}
);
width = 493;
},
{
layerId = "8816CCA3-DDF9-4C51-BD56-64EE3675A105";
paths = (
{
closed = 1;
nodes = (
"220 120 LINE SMOOTH",
"214 120 OFFCURVE",
"210 124 OFFCURVE",
"210 130 CURVE SMOOTH",
"210 639 LINE SMOOTH",
"210 674 OFFCURVE",
"185 700 OFFCURVE",
"151 700 CURVE SMOOTH",
"116 700 OFFCURVE",
"90 674 OFFCURVE",
"90 639 CURVE SMOOTH",
"90 61 LINE SMOOTH",
"90 26 OFFCURVE",
"116 0 OFFCURVE",
"151 0 CURVE SMOOTH",
"476 0 LINE SMOOTH",
"511 0 OFFCURVE",
"537 25 OFFCURVE",
"537 59 CURVE SMOOTH",
"537 94 OFFCURVE",
"511 120 OFFCURVE",
"476 120 CURVE SMOOTH"
);
},
{
closed = 1;
nodes = (
"301 342 LINE SMOOTH",
"301 303 OFFCURVE",
"322 282 OFFCURVE",
"361 282 CURVE SMOOTH",
"374 282 LINE SMOOTH",
"413 282 OFFCURVE",
"434 303 OFFCURVE",
"434 342 CURVE SMOOTH",
"434 359 LINE SMOOTH",
"434 398 OFFCURVE",
"413 419 OFFCURVE",
"374 419 CURVE SMOOTH",
"361 419 LINE SMOOTH",
"322 419 OFFCURVE",
"301 398 OFFCURVE",
"301 359 CURVE SMOOTH"
);
}
);
width = 552;
}
);
note = Ldot;
unicode = 013F;
},
{
glyphname = Lslash;
lastChange = "2016-06-29 14:38:01 +0000";
layers = (
{
layerId = "254266E2-2911-423D-9D37-8CC6105656EE";
paths = (
{
closed = 1;
nodes = (
"267 40 LINE SMOOTH",
"264 40 OFFCURVE",
"262 42 OFFCURVE",
"262 45 CURVE SMOOTH",
"262 394 LINE",
"422 464 LINE SMOOTH",
"434 469 OFFCURVE",
"437 478 OFFCURVE",
"432 490 CURVE SMOOTH",
"427 502 OFFCURVE",
"418 505 OFFCURVE",
"406 500 CURVE SMOOTH",
"262 437 LINE",
"262 680 LINE SMOOTH",
"262 691 OFFCURVE",
"254 700 OFFCURVE",
"242 700 CURVE SMOOTH",
"231 700 OFFCURVE",
"222 691 OFFCURVE",
"222 680 CURVE SMOOTH",
"222 419 LINE",
"73 354 LINE SMOOTH",
"61 349 OFFCURVE",
"58 340 OFFCURVE",
"63 328 CURVE SMOOTH",
"68 316 OFFCURVE",
"77 313 OFFCURVE",
"89 318 CURVE SMOOTH",
"222 376 LINE",
"222 20 LINE SMOOTH",
"222 9 OFFCURVE",
"230 0 OFFCURVE",
"242 0 CURVE SMOOTH",
"609 0 LINE SMOOTH",
"620 0 OFFCURVE",
"629 8 OFFCURVE",
"629 20 CURVE SMOOTH",
"629 31 OFFCURVE",
"620 40 OFFCURVE",
"609 40 CURVE SMOOTH"
);
}
);
width = 639;
},
{
layerId = "8816CCA3-DDF9-4C51-BD56-64EE3675A105";
paths = (
{
closed = 1;
nodes = (
"278 120 LINE SMOOTH",
"272 120 OFFCURVE",
"268 124 OFFCURVE",
"268 130 CURVE SMOOTH",
"268 341 LINE SMOOTH",
"268 344 OFFCURVE",
"269 346 OFFCURVE",
"272 347 CURVE",
"403 405 LINE SMOOTH",
"431 417 OFFCURVE",
"442 445 OFFCURVE",
"430 471 CURVE SMOOTH",
"418 498 OFFCURVE",
"390 509 OFFCURVE",
"363 497 CURVE SMOOTH",
"274 458 LINE",
"270 456 OFFCURVE",
"268 458 OFFCURVE",
"268 461 CURVE SMOOTH",
"268 639 LINE SMOOTH",
"268 674 OFFCURVE",
"243 700 OFFCURVE",
"209 700 CURVE SMOOTH",
"174 700 OFFCURVE",
"148 674 OFFCURVE",
"148 639 CURVE SMOOTH",
"148 406 LINE SMOOTH",
"148 403 OFFCURVE",
"147 401 OFFCURVE",
"144 400 CURVE",
"69 367 LINE SMOOTH",
"41 355 OFFCURVE",
"30 327 OFFCURVE",
"42 301 CURVE SMOOTH",
"54 274 OFFCURVE",
"82 263 OFFCURVE",
"109 275 CURVE SMOOTH",
"142 290 LINE",
"146 291 OFFCURVE",
"148 290 OFFCURVE",
"148 286 CURVE SMOOTH",
"148 61 LINE SMOOTH",
"148 26 OFFCURVE",
"174 0 OFFCURVE",
"209 0 CURVE SMOOTH",
"534 0 LINE SMOOTH",
"569 0 OFFCURVE",
"595 25 OFFCURVE",
"595 59 CURVE SMOOTH",
"595 94 OFFCURVE",
"569 120 OFFCURVE",
"534 120 CURVE SMOOTH"
);
}
);
width = 552;
}
);
note = Lslash;
unicode = 0141;
},
{
glyphname = M;
lastChange = "2016-06-29 14:38:01 +0000";
layers = (
{
layerId = "254266E2-2911-423D-9D37-8CC6105656EE";
paths = (
{
closed = 1;
nodes = (
"734 701 OFFCURVE",
"727 698 OFFCURVE",
"722 691 CURVE",
"428 324 LINE",
"425 322 OFFCURVE",
"423 322 OFFCURVE",
"420 324 CURVE",
"127 691 LINE",
"126 692 LINE",
"125 694 OFFCURVE",
"123 696 OFFCURVE",
"120 697 CURVE",
"116 700 OFFCURVE",
"112 701 OFFCURVE",
"107 700 CURVE SMOOTH",
"97 698 OFFCURVE",
"90 690 OFFCURVE",
"90 680 CURVE SMOOTH",
"90 20 LINE SMOOTH",
"90 9 OFFCURVE",
"98 0 OFFCURVE",
"110 0 CURVE SMOOTH",
"121 0 OFFCURVE",
"130 9 OFFCURVE",
"130 20 CURVE SMOOTH",
"130 610 LINE SMOOTH",
"130 615 OFFCURVE",
"133 616 OFFCURVE",
"136 612 CURVE SMOOTH",
"407 275 LINE",
"411 269 OFFCURVE",
"418 266 OFFCURVE",
"425 267 CURVE",
"431 266 OFFCURVE",
"438 269 OFFCURVE",
"442 275 CURVE",
"713 612 LINE SMOOTH",
"716 616 OFFCURVE",
"719 615 OFFCURVE",
"719 610 CURVE SMOOTH",
"719 20 LINE SMOOTH",
"719 9 OFFCURVE",
"727 0 OFFCURVE",
"739 0 CURVE SMOOTH",
"750 0 OFFCURVE",
"759 9 OFFCURVE",
"759 20 CURVE SMOOTH",
"759 680 LINE SMOOTH",
"759 690 OFFCURVE",
"752 699 OFFCURVE",
"741 700 CURVE"
);
}
);
width = 849;
},
{
layerId = "8816CCA3-DDF9-4C51-BD56-64EE3675A105";
paths = (
{
closed = 1;
nodes = (
"451 376 LINE SMOOTH",
"447 371 OFFCURVE",
"441 371 OFFCURVE",
"437 376 CURVE SMOOTH",
"201 674 LINE",
"182 696 OFFCURVE",
"162 706 OFFCURVE",
"137 700 CURVE SMOOTH",
"109 694 OFFCURVE",
"90 670 OFFCURVE",
"90 640 CURVE SMOOTH",
"90 61 LINE SMOOTH",
"90 26 OFFCURVE",
"115 0 OFFCURVE",
"149 0 CURVE SMOOTH",
"184 0 OFFCURVE",
"210 26 OFFCURVE",
"210 61 CURVE SMOOTH",
"210 455 LINE SMOOTH",
"210 465 OFFCURVE",
"217 467 OFFCURVE",
"222 460 CURVE SMOOTH",
"395 232 LINE SMOOTH",
"407 217 OFFCURVE",
"426 205 OFFCURVE",
"444 206 CURVE",
"463 205 OFFCURVE",
"482 217 OFFCURVE",
"494 232 CURVE SMOOTH",
"667 460 LINE SMOOTH",
"672 467 OFFCURVE",
"679 465 OFFCURVE",
"679 455 CURVE SMOOTH",
"679 61 LINE SMOOTH",
"679 26 OFFCURVE",
"705 0 OFFCURVE",
"740 0 CURVE SMOOTH",
"774 0 OFFCURVE",
"799 26 OFFCURVE",
"799 61 CURVE SMOOTH",
"799 640 LINE SMOOTH",
"799 670 OFFCURVE",
"779 694 OFFCURVE",
"752 700 CURVE SMOOTH",
"726 706 OFFCURVE",
"708 696 OFFCURVE",
"688 674 CURVE"
);
}
);
width = 889;
}
);
note = M;
unicode = 004D;
},
{
glyphname = N;
lastChange = "2016-06-29 14:38:01 +0000";
layers = (
{
layerId = "254266E2-2911-423D-9D37-8CC6105656EE";
paths = (
{
closed = 1;
nodes = (
"635 676 LINE SMOOTH",
"635 687 OFFCURVE",
"627 696 OFFCURVE",
"615 696 CURVE SMOOTH",
"604 696 OFFCURVE",
"595 687 OFFCURVE",
"595 676 CURVE SMOOTH",
"595 79 LINE",
"120 697 LINE",
"117 700 OFFCURVE",
"112 701 OFFCURVE",
"107 700 CURVE SMOOTH",
"97 698 OFFCURVE",
"90 690 OFFCURVE",
"90 680 CURVE SMOOTH",
"90 20 LINE SMOOTH",
"90 9 OFFCURVE",
"98 0 OFFCURVE",
"110 0 CURVE SMOOTH",
"121 0 OFFCURVE",
"130 9 OFFCURVE",
"130 20 CURVE SMOOTH",
"130 622 LINE",
"598 8 LINE SMOOTH",
"605 -1 OFFCURVE",
"617 -3 OFFCURVE",
"626 3 CURVE SMOOTH",
"633 8 OFFCURVE",
"636 15 OFFCURVE",
"635 22 CURVE"
);
}
);
width = 725;
},
{
layerId = "8816CCA3-DDF9-4C51-BD56-64EE3675A105";
paths = (
{
closed = 1;
nodes = (
"680 639 LINE",
"680 674 OFFCURVE",
"655 700 OFFCURVE",
"621 700 CURVE",
"586 700 OFFCURVE",
"560 674 OFFCURVE",
"560 639 CURVE",
"560 180 LINE",
"588 192 LINE",
"187 678 LINE",
"177 692 OFFCURVE",
"155 700 OFFCURVE",
"136 700 CURVE",
"101 700 OFFCURVE",
"75 674 OFFCURVE",
"75 639 CURVE",
"75 61 LINE",
"75 26 OFFCURVE",
"100 0 OFFCURVE",
"134 0 CURVE",
"169 0 OFFCURVE",
"195 26 OFFCURVE",
"195 61 CURVE",
"195 532 LINE",
"159 516 LINE",
"572 17 LINE",
"581 6 OFFCURVE",
"602 0 OFFCURVE",
"619 0 CURVE",
"654 0 OFFCURVE",
"680 26 OFFCURVE",
"680 61 CURVE"
);
}
);
width = 755;
}
);
leftMetricsKey = H;
note = N;
rightMetricsKey = H;
unicode = 004E;
},
{
glyphname = Nacute;
lastChange = "2016-06-29 14:38:01 +0000";
layers = (
{
layerId = "254266E2-2911-423D-9D37-8CC6105656EE";
paths = (
{
closed = 1;
nodes = (
"368 780 LINE SMOOTH",
"378 780 OFFCURVE",
"385 783 OFFCURVE",
"392 790 CURVE SMOOTH",
"471 866 LINE SMOOTH",
"482 876 OFFCURVE",
"480 887 OFFCURVE",
"467 894 CURVE SMOOTH",
"445 905 LINE",
"434 910 OFFCURVE",
"425 908 OFFCURVE",
"418 897 CURVE SMOOTH",
"356 804 LINE SMOOTH",
"347 791 OFFCURVE",
"349 780 OFFCURVE",
"361 780 CURVE SMOOTH"
);
},
{
closed = 1;
nodes = (
"635 676 LINE SMOOTH",
"635 687 OFFCURVE",
"627 696 OFFCURVE",
"615 696 CURVE SMOOTH",
"604 696 OFFCURVE",
"595 687 OFFCURVE",
"595 676 CURVE SMOOTH",
"595 89 LINE SMOOTH",
"595 84 OFFCURVE",
"592 83 OFFCURVE",
"589 87 CURVE SMOOTH",
"127 691 LINE",
"126 692 LINE",
"125 694 OFFCURVE",
"123 696 OFFCURVE",
"120 697 CURVE",
"116 700 OFFCURVE",
"112 701 OFFCURVE",
"107 700 CURVE SMOOTH",
"97 698 OFFCURVE",
"90 690 OFFCURVE",
"90 680 CURVE SMOOTH",
"90 20 LINE SMOOTH",
"90 9 OFFCURVE",
"98 0 OFFCURVE",
"110 0 CURVE SMOOTH",
"121 0 OFFCURVE",
"130 9 OFFCURVE",
"130 20 CURVE SMOOTH",
"130 612 LINE SMOOTH",
"130 617 OFFCURVE",
"133 618 OFFCURVE",
"136 614 CURVE SMOOTH",
"598 8 LINE SMOOTH",
"605 -1 OFFCURVE",
"617 -3 OFFCURVE",
"626 3 CURVE SMOOTH",
"633 8 OFFCURVE",
"636 15 OFFCURVE",
"635 22 CURVE"
);
}
);
width = 725;
},
{
layerId = "8816CCA3-DDF9-4C51-BD56-64EE3675A105";
paths = (
{
closed = 1;
nodes = (
"325 840 LINE SMOOTH",
"303 806 OFFCURVE",
"311 780 OFFCURVE",
"344 780 CURVE SMOOTH",
"370 780 OFFCURVE",
"387 787 OFFCURVE",
"406 805 CURVE SMOOTH",
"456 852 LINE SMOOTH",
"484 878 OFFCURVE",
"479 905 OFFCURVE",
"444 921 CURVE",
"434 925 LINE",
"406 938 OFFCURVE",
"384 931 OFFCURVE",
"367 905 CURVE SMOOTH"
);
},
{
closed = 1;
nodes = (
"575 236 LINE SMOOTH",
"575 227 OFFCURVE",
"569 225 OFFCURVE",
"563 232 CURVE SMOOTH",
"201 674 LINE",
"197 678 LINE",
"187 692 OFFCURVE",
"170 700 OFFCURVE",
"151 700 CURVE SMOOTH",
"116 700 OFFCURVE",
"90 674 OFFCURVE",
"90 639 CURVE SMOOTH",
"90 61 LINE SMOOTH",
"90 26 OFFCURVE",
"115 0 OFFCURVE",
"149 0 CURVE SMOOTH",
"184 0 OFFCURVE",
"210 26 OFFCURVE",
"210 61 CURVE SMOOTH",
"210 461 LINE SMOOTH",
"210 470 OFFCURVE",
"216 472 OFFCURVE",
"222 465 CURVE SMOOTH",
"582 27 LINE",
"585 24 OFFCURVE",
"588 20 OFFCURVE",
"592 17 CURVE",
"602 7 OFFCURVE",
"617 0 OFFCURVE",
"634 0 CURVE SMOOTH",
"669 0 OFFCURVE",
"695 26 OFFCURVE",
"695 61 CURVE SMOOTH",
"695 639 LINE SMOOTH",
"695 674 OFFCURVE",
"670 700 OFFCURVE",
"636 700 CURVE SMOOTH",
"601 700 OFFCURVE",
"575 674 OFFCURVE",
"575 639 CURVE SMOOTH"
);
}
);
width = 785;
}
);
note = Nacute;
unicode = 0143;
},
{
glyphname = Ncaron;
lastChange = "2016-06-29 14:38:01 +0000";
layers = (
{
layerId = "254266E2-2911-423D-9D37-8CC6105656EE";
paths = (
{
closed = 1;
nodes = (
"297 892 LINE",
"290 899 OFFCURVE",
"283 902 OFFCURVE",
"273 902 CURVE SMOOTH",
"256 902 OFFCURVE",
"251 891 OFFCURVE",
"262 878 CURVE SMOOTH",
"333 792 LINE",
"339 783 OFFCURVE",
"346 780 OFFCURVE",
"357 780 CURVE SMOOTH",
"367 780 LINE SMOOTH",
"378 780 OFFCURVE",
"385 783 OFFCURVE",
"391 792 CURVE",
"462 877 LINE SMOOTH",
"473 891 OFFCURVE",
"471 902 OFFCURVE",
"459 902 CURVE SMOOTH",
"449 902 LINE SMOOTH",
"439 902 OFFCURVE",
"432 899 OFFCURVE",
"425 892 CURVE",
"375 847 LINE",
"366 838 OFFCURVE",
"356 838 OFFCURVE",
"347 847 CURVE"
);
},
{
closed = 1;
nodes = (
"635 676 LINE SMOOTH",
"635 687 OFFCURVE",
"627 696 OFFCURVE",
"615 696 CURVE SMOOTH",
"604 696 OFFCURVE",
"595 687 OFFCURVE",
"595 676 CURVE SMOOTH",
"595 89 LINE SMOOTH",
"595 84 OFFCURVE",
"592 83 OFFCURVE",
"589 87 CURVE SMOOTH",
"127 691 LINE",
"126 692 LINE",
"125 694 OFFCURVE",
"123 696 OFFCURVE",
"120 697 CURVE",
"116 700 OFFCURVE",
"112 701 OFFCURVE",
"107 700 CURVE SMOOTH",
"97 698 OFFCURVE",
"90 690 OFFCURVE",
"90 680 CURVE SMOOTH",
"90 20 LINE SMOOTH",
"90 9 OFFCURVE",
"98 0 OFFCURVE",
"110 0 CURVE SMOOTH",
"121 0 OFFCURVE",
"130 9 OFFCURVE",
"130 20 CURVE SMOOTH",
"130 612 LINE SMOOTH",
"130 617 OFFCURVE",
"133 618 OFFCURVE",
"136 614 CURVE SMOOTH",
"598 8 LINE SMOOTH",
"605 -1 OFFCURVE",
"617 -3 OFFCURVE",
"626 3 CURVE SMOOTH",
"633 8 OFFCURVE",
"636 15 OFFCURVE",
"635 22 CURVE"
);
}
);
width = 725;
},
{
layerId = "8816CCA3-DDF9-4C51-BD56-64EE3675A105";
paths = (
{
closed = 1;
nodes = (
"312 810 LINE SMOOTH",
"328 789 OFFCURVE",
"346 780 OFFCURVE",
"373 780 CURVE SMOOTH",
"409 780 LINE SMOOTH",
"436 780 OFFCURVE",
"454 789 OFFCURVE",
"470 810 CURVE SMOOTH",
"514 865 LINE SMOOTH",
"541 898 OFFCURVE",
"536 926 OFFCURVE",
"504 926 CURVE SMOOTH",
"479 926 OFFCURVE",
"461 919 OFFCURVE",
"442 903 CURVE SMOOTH",
"392 860 LINE",
"342 903 LINE SMOOTH",
"323 919 OFFCURVE",
"310 926 OFFCURVE",
"297 926 CURVE SMOOTH",
"255 926 OFFCURVE",
"241 898 OFFCURVE",
"268 865 CURVE SMOOTH"
);
},
{
closed = 1;
nodes = (
"575 236 LINE SMOOTH",
"575 227 OFFCURVE",
"569 225 OFFCURVE",
"563 232 CURVE SMOOTH",
"201 674 LINE",
"197 678 LINE",
"187 692 OFFCURVE",
"170 700 OFFCURVE",
"151 700 CURVE SMOOTH",
"116 700 OFFCURVE",
"90 674 OFFCURVE",
"90 639 CURVE SMOOTH",
"90 61 LINE SMOOTH",
"90 26 OFFCURVE",
"115 0 OFFCURVE",
"149 0 CURVE SMOOTH",
"184 0 OFFCURVE",
"210 26 OFFCURVE",
"210 61 CURVE SMOOTH",
"210 461 LINE SMOOTH",
"210 470 OFFCURVE",
"216 472 OFFCURVE",
"222 465 CURVE SMOOTH",
"582 27 LINE",
"585 24 OFFCURVE",
"588 20 OFFCURVE",
"592 17 CURVE",
"602 7 OFFCURVE",
"617 0 OFFCURVE",
"634 0 CURVE SMOOTH",
"669 0 OFFCURVE",
"695 26 OFFCURVE",
"695 61 CURVE SMOOTH",
"695 639 LINE SMOOTH",
"695 674 OFFCURVE",
"670 700 OFFCURVE",
"636 700 CURVE SMOOTH",
"601 700 OFFCURVE",
"575 674 OFFCURVE",
"575 639 CURVE SMOOTH"
);
}
);
width = 785;
}
);
note = Ncaron;
unicode = 0147;
},
{
glyphname = Ncommaaccent;
lastChange = "2016-06-29 14:38:01 +0000";
layers = (
{
layerId = "254266E2-2911-423D-9D37-8CC6105656EE";
paths = (
{
closed = 1;
nodes = (
"635 676 LINE SMOOTH",
"635 687 OFFCURVE",
"627 696 OFFCURVE",
"615 696 CURVE SMOOTH",
"604 696 OFFCURVE",
"595 687 OFFCURVE",
"595 676 CURVE SMOOTH",
"595 89 LINE SMOOTH",
"595 84 OFFCURVE",
"592 83 OFFCURVE",
"589 87 CURVE SMOOTH",
"127 691 LINE",
"126 692 LINE",
"125 694 OFFCURVE",
"123 696 OFFCURVE",
"120 697 CURVE",
"116 700 OFFCURVE",
"112 701 OFFCURVE",
"107 700 CURVE SMOOTH",
"97 698 OFFCURVE",
"90 690 OFFCURVE",
"90 680 CURVE SMOOTH",
"90 20 LINE SMOOTH",
"90 9 OFFCURVE",
"98 0 OFFCURVE",
"110 0 CURVE SMOOTH",
"121 0 OFFCURVE",
"130 9 OFFCURVE",
"130 20 CURVE SMOOTH",
"130 612 LINE SMOOTH",
"130 617 OFFCURVE",
"133 618 OFFCURVE",
"136 614 CURVE SMOOTH",
"598 8 LINE SMOOTH",
"605 -1 OFFCURVE",
"617 -3 OFFCURVE",
"626 3 CURVE SMOOTH",
"633 8 OFFCURVE",
"636 15 OFFCURVE",
"635 22 CURVE"
);
},
{
closed = 1;
nodes = (
"323 -267 OFFCURVE",
"337 -268 OFFCURVE",
"352 -260 CURVE SMOOTH",
"392 -237 OFFCURVE",
"408 -206 OFFCURVE",
"408 -154 CURVE SMOOTH",
"408 -111 LINE SMOOTH",
"408 -93 OFFCURVE",
"395 -80 OFFCURVE",
"377 -80 CURVE SMOOTH",
"373 -80 LINE SMOOTH",
"355 -80 OFFCURVE",
"342 -93 OFFCURVE",
"342 -111 CURVE SMOOTH",
"342 -134 LINE SMOOTH",
"342 -152 OFFCURVE",
"353 -165 OFFCURVE",
"369 -165 CURVE",
"371 -195 OFFCURVE",
"362 -215 OFFCURVE",
"337 -233 CURVE",
"323 -242 OFFCURVE",
"315 -252 OFFCURVE",
"319 -260 CURVE"
);
}
);
width = 725;
},
{
layerId = "8816CCA3-DDF9-4C51-BD56-64EE3675A105";
paths = (
{
closed = 1;
nodes = (
"575 236 LINE SMOOTH",
"575 227 OFFCURVE",
"569 225 OFFCURVE",
"563 232 CURVE SMOOTH",
"201 674 LINE",
"197 678 LINE",
"187 692 OFFCURVE",
"170 700 OFFCURVE",
"151 700 CURVE SMOOTH",
"116 700 OFFCURVE",
"90 674 OFFCURVE",
"90 639 CURVE SMOOTH",
"90 61 LINE SMOOTH",
"90 26 OFFCURVE",
"115 0 OFFCURVE",
"149 0 CURVE SMOOTH",
"184 0 OFFCURVE",
"210 26 OFFCURVE",
"210 61 CURVE SMOOTH",
"210 461 LINE SMOOTH",
"210 470 OFFCURVE",
"216 472 OFFCURVE",
"222 465 CURVE SMOOTH",
"582 27 LINE",
"585 24 OFFCURVE",
"588 20 OFFCURVE",
"592 17 CURVE",
"602 7 OFFCURVE",
"617 0 OFFCURVE",
"634 0 CURVE SMOOTH",
"669 0 OFFCURVE",
"695 26 OFFCURVE",
"695 61 CURVE SMOOTH",
"695 639 LINE SMOOTH",
"695 674 OFFCURVE",
"670 700 OFFCURVE",
"636 700 CURVE SMOOTH",
"601 700 OFFCURVE",
"575 674 OFFCURVE",
"575 639 CURVE SMOOTH"
);
},
{
closed = 1;
nodes = (
"335 -351 OFFCURVE",
"361 -361 OFFCURVE",
"392 -351 CURVE SMOOTH",
"457 -331 OFFCURVE",
"491 -284 OFFCURVE",
"491 -195 CURVE SMOOTH",
"491 -140 LINE SMOOTH",
"491 -105 OFFCURVE",
"465 -79 OFFCURVE",
"430 -79 CURVE SMOOTH",
"419 -79 LINE SMOOTH",
"384 -79 OFFCURVE",
"358 -105 OFFCURVE",
"358 -140 CURVE SMOOTH",
"358 -155 LINE SMOOTH",
"358 -190 OFFCURVE",
"379 -216 OFFCURVE",
"409 -216 CURVE",
"412 -251 OFFCURVE",
"400 -276 OFFCURVE",
"372 -293 CURVE SMOOTH",
"346 -309 OFFCURVE",
"327 -320 OFFCURVE",
"331 -336 CURVE SMOOTH"
);
}
);
width = 785;
}
);
note = Ncommaaccent;
unicode = 0145;
},
{
glyphname = Eng;
lastChange = "2016-06-29 14:38:01 +0000";
layers = (
{
layerId = "254266E2-2911-423D-9D37-8CC6105656EE";
paths = (
{
closed = 1;
nodes = (
"635 42 LINE",
"635 676 LINE SMOOTH",
"635 687 OFFCURVE",
"627 696 OFFCURVE",
"615 696 CURVE SMOOTH",
"604 696 OFFCURVE",
"595 687 OFFCURVE",
"595 676 CURVE SMOOTH",
"595 89 LINE SMOOTH",
"595 84 OFFCURVE",
"592 83 OFFCURVE",
"589 87 CURVE SMOOTH",
"127 691 LINE",
"126 692 LINE",
"125 694 OFFCURVE",
"123 696 OFFCURVE",
"120 697 CURVE",
"116 700 OFFCURVE",
"112 701 OFFCURVE",
"107 700 CURVE SMOOTH",
"97 698 OFFCURVE",
"90 690 OFFCURVE",
"90 680 CURVE SMOOTH",
"90 20 LINE SMOOTH",
"90 9 OFFCURVE",
"98 0 OFFCURVE",
"110 0 CURVE SMOOTH",
"121 0 OFFCURVE",
"130 9 OFFCURVE",
"130 20 CURVE SMOOTH",
"130 612 LINE SMOOTH",
"130 617 OFFCURVE",
"133 618 OFFCURVE",
"136 614 CURVE SMOOTH",
"596 11 LINE",
"595 -44 LINE SMOOTH",
"595 -111 OFFCURVE",
"574 -160 OFFCURVE",
"459 -160 CURVE SMOOTH",
"447 -160 OFFCURVE",
"438 -168 OFFCURVE",
"438 -180 CURVE SMOOTH",
"438 -192 OFFCURVE",
"447 -200 OFFCURVE",
"460 -200 CURVE SMOOTH",
"601 -200 OFFCURVE",
"635 -123 OFFCURVE",
"635 -44 CURVE SMOOTH",
"635 -13 OFFCURVE",
"636 13 OFFCURVE",
"636 42 CURVE"
);
}
);
width = 727;
},
{
layerId = "8816CCA3-DDF9-4C51-BD56-64EE3675A105";
paths = (
{
closed = 1;
nodes = (
"601 700 OFFCURVE",
"575 674 OFFCURVE",
"575 639 CURVE SMOOTH",
"575 236 LINE SMOOTH",
"575 227 OFFCURVE",
"569 225 OFFCURVE",
"563 232 CURVE SMOOTH",
"201 674 LINE",
"197 678 LINE",
"187 692 OFFCURVE",
"170 700 OFFCURVE",
"151 700 CURVE SMOOTH",
"116 700 OFFCURVE",
"90 674 OFFCURVE",
"90 639 CURVE SMOOTH",
"90 61 LINE SMOOTH",
"90 26 OFFCURVE",
"115 0 OFFCURVE",
"149 0 CURVE SMOOTH",
"184 0 OFFCURVE",
"210 26 OFFCURVE",
"210 61 CURVE SMOOTH",
"210 461 LINE SMOOTH",
"210 470 OFFCURVE",
"216 472 OFFCURVE",
"222 465 CURVE SMOOTH",
"573 38 LINE",
"574 36 OFFCURVE",
"575 35 OFFCURVE",
"575 32 CURVE SMOOTH",
"575 -19 LINE SMOOTH",
"575 -69 OFFCURVE",
"554 -89 OFFCURVE",
"512 -90 CURVE SMOOTH",
"478 -91 OFFCURVE",
"454 -116 OFFCURVE",
"454 -148 CURVE SMOOTH",
"454 -180 OFFCURVE",
"481 -200 OFFCURVE",
"518 -200 CURVE SMOOTH",
"605 -201 OFFCURVE",
"695 -156 OFFCURVE",
"695 -14 CURVE SMOOTH",
"695 639 LINE SMOOTH",
"695 674 OFFCURVE",
"670 700 OFFCURVE",
"636 700 CURVE SMOOTH"
);
}
);
width = 744;
}
);
note = Eng;
unicode = 014A;
},
{
glyphname = Ntilde;
lastChange = "2016-06-29 14:38:01 +0000";
layers = (
{
layerId = "254266E2-2911-423D-9D37-8CC6105656EE";
paths = (
{
closed = 1;
nodes = (
"483 886 OFFCURVE",
"475 881 OFFCURVE",
"469 869 CURVE SMOOTH",
"458 845 OFFCURVE",
"447 837 OFFCURVE",
"427 837 CURVE SMOOTH",
"393 837 OFFCURVE",
"337 878 OFFCURVE",
"299 878 CURVE SMOOTH",
"263 878 OFFCURVE",
"239 861 OFFCURVE",
"221 806 CURVE",
"217 792 OFFCURVE",
"221 784 OFFCURVE",
"232 781 CURVE SMOOTH",
"243 778 OFFCURVE",
"251 782 OFFCURVE",
"257 794 CURVE SMOOTH",
"268 818 OFFCURVE",
"279 826 OFFCURVE",
"299 826 CURVE SMOOTH",
"333 826 OFFCURVE",
"389 785 OFFCURVE",
"427 785 CURVE SMOOTH",
"463 785 OFFCURVE",
"487 802 OFFCURVE",
"505 858 CURVE SMOOTH",
"509 871 OFFCURVE",
"505 880 OFFCURVE",
"494 883 CURVE SMOOTH"
);
},
{
closed = 1;
nodes = (
"635 676 LINE SMOOTH",
"635 687 OFFCURVE",
"627 696 OFFCURVE",
"615 696 CURVE SMOOTH",
"604 696 OFFCURVE",
"595 687 OFFCURVE",
"595 676 CURVE SMOOTH",
"595 89 LINE SMOOTH",
"595 84 OFFCURVE",
"592 83 OFFCURVE",
"589 87 CURVE SMOOTH",
"127 691 LINE",
"126 692 LINE",
"125 694 OFFCURVE",
"123 696 OFFCURVE",
"120 697 CURVE",
"116 700 OFFCURVE",
"112 701 OFFCURVE",
"107 700 CURVE SMOOTH",
"97 698 OFFCURVE",
"90 690 OFFCURVE",
"90 680 CURVE SMOOTH",
"90 20 LINE SMOOTH",
"90 9 OFFCURVE",
"98 0 OFFCURVE",
"110 0 CURVE SMOOTH",
"121 0 OFFCURVE",
"130 9 OFFCURVE",
"130 20 CURVE SMOOTH",
"130 612 LINE SMOOTH",
"130 617 OFFCURVE",
"133 618 OFFCURVE",
"136 614 CURVE SMOOTH",
"598 8 LINE SMOOTH",
"605 -1 OFFCURVE",
"617 -3 OFFCURVE",
"626 3 CURVE SMOOTH",
"633 8 OFFCURVE",
"636 15 OFFCURVE",
"635 22 CURVE"
);
}
);
width = 725;
},
{
layerId = "8816CCA3-DDF9-4C51-BD56-64EE3675A105";
paths = (
{
closed = 1;
nodes = (
"260 773 OFFCURVE",
"272 786 OFFCURVE",
"294 808 CURVE SMOOTH",
"302 816 OFFCURVE",
"312 820 OFFCURVE",
"326 820 CURVE SMOOTH",
"362 820 OFFCURVE",
"415 780 OFFCURVE",
"470 780 CURVE SMOOTH",
"517 780 OFFCURVE",
"545 806 OFFCURVE",
"566 856 CURVE SMOOTH",
"579 887 OFFCURVE",
"570 908 OFFCURVE",
"549 915 CURVE SMOOTH",
"526 922 OFFCURVE",
"514 909 OFFCURVE",
"492 886 CURVE",
"484 879 OFFCURVE",
"474 875 OFFCURVE",
"460 875 CURVE SMOOTH",
"424 875 OFFCURVE",
"371 915 OFFCURVE",
"316 915 CURVE SMOOTH",
"269 915 OFFCURVE",
"241 889 OFFCURVE",
"220 839 CURVE SMOOTH",
"207 808 OFFCURVE",
"216 786 OFFCURVE",
"238 780 CURVE"
);
},
{
closed = 1;
nodes = (
"575 236 LINE SMOOTH",
"575 227 OFFCURVE",
"569 225 OFFCURVE",
"563 232 CURVE SMOOTH",
"201 674 LINE",
"197 678 LINE",
"187 692 OFFCURVE",
"170 700 OFFCURVE",
"151 700 CURVE SMOOTH",
"116 700 OFFCURVE",
"90 674 OFFCURVE",
"90 639 CURVE SMOOTH",
"90 61 LINE SMOOTH",
"90 26 OFFCURVE",
"115 0 OFFCURVE",
"149 0 CURVE SMOOTH",
"184 0 OFFCURVE",
"210 26 OFFCURVE",
"210 61 CURVE SMOOTH",
"210 461 LINE SMOOTH",
"210 470 OFFCURVE",
"216 472 OFFCURVE",
"222 465 CURVE SMOOTH",
"582 27 LINE",
"585 24 OFFCURVE",
"588 20 OFFCURVE",
"592 17 CURVE",
"602 7 OFFCURVE",
"617 0 OFFCURVE",
"634 0 CURVE SMOOTH",
"669 0 OFFCURVE",
"695 26 OFFCURVE",
"695 61 CURVE SMOOTH",
"695 639 LINE SMOOTH",
"695 674 OFFCURVE",
"670 700 OFFCURVE",
"636 700 CURVE SMOOTH",
"601 700 OFFCURVE",
"575 674 OFFCURVE",
"575 639 CURVE SMOOTH"
);
}
);
width = 785;
}
);
note = Ntilde;
unicode = 00D1;
},
{
glyphname = O;
lastChange = "2016-06-29 14:38:01 +0000";
layers = (
{
layerId = "254266E2-2911-423D-9D37-8CC6105656EE";
paths = (
{
closed = 1;
nodes = (
"708 553 OFFCURVE",
"561 710 OFFCURVE",
"379 710 CURVE SMOOTH",
"197 710 OFFCURVE",
"50 553 OFFCURVE",
"50 350 CURVE SMOOTH",
"50 147 OFFCURVE",
"197 -10 OFFCURVE",
"379 -10 CURVE SMOOTH",
"561 -10 OFFCURVE",
"708 147 OFFCURVE",
"708 350 CURVE SMOOTH"
);
},
{
closed = 1;
nodes = (
"666 169 OFFCURVE",
"537 30 OFFCURVE",
"379 30 CURVE SMOOTH",
"221 30 OFFCURVE",
"92 169 OFFCURVE",
"92 350 CURVE SMOOTH",
"92 531 OFFCURVE",
"221 670 OFFCURVE",
"379 670 CURVE SMOOTH",
"537 670 OFFCURVE",
"666 531 OFFCURVE",
"666 350 CURVE SMOOTH"
);
}
);
width = 758;
},
{
layerId = "8816CCA3-DDF9-4C51-BD56-64EE3675A105";
paths = (
{
closed = 1;
nodes = (
"694 543 OFFCURVE",
"546 700 OFFCURVE",
"364 700 CURVE",
"182 700 OFFCURVE",
"35 543 OFFCURVE",
"35 350 CURVE",
"35 157 OFFCURVE",
"182 0 OFFCURVE",
"364 0 CURVE",
"546 0 OFFCURVE",
"694 157 OFFCURVE",
"694 350 CURVE"
);
},
{
closed = 1;
nodes = (
"564 222 OFFCURVE",
"472 120 OFFCURVE",
"364 120 CURVE",
"256 120 OFFCURVE",
"165 221 OFFCURVE",
"165 350 CURVE",
"165 479 OFFCURVE",
"256 580 OFFCURVE",
"364 580 CURVE",
"472 580 OFFCURVE",
"564 478 OFFCURVE",
"564 350 CURVE"
);
}
);
width = 729;
}
);
leftKerningGroup = C;
leftMetricsKey = O;
note = O;
rightKerningGroup = D;
rightMetricsKey = O;
unicode = 004F;
},
{
glyphname = Oacute;
lastChange = "2016-06-29 14:38:01 +0000";
layers = (
{
layerId = "254266E2-2911-423D-9D37-8CC6105656EE";
paths = (
{
closed = 1;
nodes = (
"386 780 LINE SMOOTH",
"396 780 OFFCURVE",
"403 783 OFFCURVE",
"410 790 CURVE SMOOTH",
"489 866 LINE SMOOTH",
"500 876 OFFCURVE",
"498 887 OFFCURVE",
"485 894 CURVE SMOOTH",
"463 905 LINE",
"452 910 OFFCURVE",
"443 908 OFFCURVE",
"436 897 CURVE SMOOTH",
"374 804 LINE SMOOTH",
"365 791 OFFCURVE",
"367 780 OFFCURVE",
"379 780 CURVE SMOOTH"
);
},
{
closed = 1;
nodes = (
"708 553 OFFCURVE",
"561 710 OFFCURVE",
"379 710 CURVE SMOOTH",
"197 710 OFFCURVE",
"50 553 OFFCURVE",
"50 350 CURVE SMOOTH",
"50 147 OFFCURVE",
"197 -10 OFFCURVE",
"379 -10 CURVE SMOOTH",
"561 -10 OFFCURVE",
"708 147 OFFCURVE",
"708 350 CURVE SMOOTH"
);
},
{
closed = 1;
nodes = (
"668 169 OFFCURVE",
"538 30 OFFCURVE",
"379 30 CURVE SMOOTH",
"220 30 OFFCURVE",
"90 169 OFFCURVE",
"90 350 CURVE SMOOTH",
"90 531 OFFCURVE",
"220 670 OFFCURVE",
"379 670 CURVE SMOOTH",
"538 670 OFFCURVE",
"668 531 OFFCURVE",
"668 350 CURVE SMOOTH"
);
}
);
width = 758;
},
{
layerId = "8816CCA3-DDF9-4C51-BD56-64EE3675A105";
paths = (
{
closed = 1;
nodes = (
"347 840 LINE SMOOTH",
"325 806 OFFCURVE",
"333 780 OFFCURVE",
"366 780 CURVE SMOOTH",
"392 780 OFFCURVE",
"409 787 OFFCURVE",
"428 805 CURVE SMOOTH",
"478 852 LINE SMOOTH",
"506 878 OFFCURVE",
"501 905 OFFCURVE",
"466 921 CURVE",
"456 925 LINE",
"428 938 OFFCURVE",
"406 931 OFFCURVE",
"389 905 CURVE SMOOTH"
);
},
{
closed = 1;
nodes = (
"709 543 OFFCURVE",
"561 700 OFFCURVE",
"379 700 CURVE SMOOTH",
"197 700 OFFCURVE",
"50 543 OFFCURVE",
"50 350 CURVE SMOOTH",
"50 157 OFFCURVE",
"197 0 OFFCURVE",
"379 0 CURVE SMOOTH",
"561 0 OFFCURVE",
"709 157 OFFCURVE",
"709 350 CURVE SMOOTH"
);
},
{
closed = 1;
nodes = (
"589 222 OFFCURVE",
"492 120 OFFCURVE",
"379 120 CURVE SMOOTH",
"266 120 OFFCURVE",
"170 221 OFFCURVE",
"170 350 CURVE SMOOTH",
"170 479 OFFCURVE",
"266 580 OFFCURVE",
"379 580 CURVE SMOOTH",
"492 580 OFFCURVE",
"589 478 OFFCURVE",
"589 350 CURVE SMOOTH"
);
}
);
width = 759;
}
);
note = Oacute;
unicode = 00D3;
},
{
glyphname = Ocircumflex;
lastChange = "2016-06-29 14:38:01 +0000";
layers = (
{
layerId = "254266E2-2911-423D-9D37-8CC6105656EE";
paths = (
{
closed = 1;
nodes = (
"361 835 LINE",
"370 844 OFFCURVE",
"380 844 OFFCURVE",
"389 835 CURVE",
"439 790 LINE",
"446 783 OFFCURVE",
"453 780 OFFCURVE",
"463 780 CURVE SMOOTH",
"473 780 LINE SMOOTH",
"485 780 OFFCURVE",
"487 791 OFFCURVE",
"476 805 CURVE SMOOTH",
"405 890 LINE",
"399 899 OFFCURVE",
"392 902 OFFCURVE",
"381 902 CURVE SMOOTH",
"371 902 LINE SMOOTH",
"360 902 OFFCURVE",
"353 899 OFFCURVE",
"347 890 CURVE",
"276 804 LINE SMOOTH",
"265 791 OFFCURVE",
"270 780 OFFCURVE",
"287 780 CURVE SMOOTH",
"297 780 OFFCURVE",
"304 783 OFFCURVE",
"311 790 CURVE"
);
},
{
closed = 1;
nodes = (
"708 553 OFFCURVE",
"561 710 OFFCURVE",
"379 710 CURVE SMOOTH",
"197 710 OFFCURVE",
"50 553 OFFCURVE",
"50 350 CURVE SMOOTH",
"50 147 OFFCURVE",
"197 -10 OFFCURVE",
"379 -10 CURVE SMOOTH",
"561 -10 OFFCURVE",
"708 147 OFFCURVE",
"708 350 CURVE SMOOTH"
);
},
{
closed = 1;
nodes = (
"668 169 OFFCURVE",
"538 30 OFFCURVE",
"379 30 CURVE SMOOTH",
"220 30 OFFCURVE",
"90 169 OFFCURVE",
"90 350 CURVE SMOOTH",
"90 531 OFFCURVE",
"220 670 OFFCURVE",
"379 670 CURVE SMOOTH",
"538 670 OFFCURVE",
"668 531 OFFCURVE",
"668 350 CURVE SMOOTH"
);
}
);
width = 758;
},
{
layerId = "8816CCA3-DDF9-4C51-BD56-64EE3675A105";
paths = (
{
closed = 1;
nodes = (
"253 841 LINE SMOOTH",
"226 808 OFFCURVE",
"231 780 OFFCURVE",
"263 780 CURVE SMOOTH",
"288 780 OFFCURVE",
"306 787 OFFCURVE",
"325 803 CURVE SMOOTH",
"340 816 LINE SMOOTH",
"363 837 OFFCURVE",
"387 837 OFFCURVE",
"410 816 CURVE SMOOTH",
"425 803 LINE SMOOTH",
"444 787 OFFCURVE",
"462 780 OFFCURVE",
"487 780 CURVE SMOOTH",
"500 780 LINE SMOOTH",
"526 780 OFFCURVE",
"526 808 OFFCURVE",
"499 841 CURVE SMOOTH",
"455 897 LINE SMOOTH",
"439 917 OFFCURVE",
"421 926 OFFCURVE",
"394 926 CURVE SMOOTH",
"358 926 LINE SMOOTH",
"331 926 OFFCURVE",
"313 917 OFFCURVE",
"297 897 CURVE SMOOTH"
);
},
{
closed = 1;
nodes = (
"709 543 OFFCURVE",
"561 700 OFFCURVE",
"379 700 CURVE SMOOTH",
"197 700 OFFCURVE",
"50 543 OFFCURVE",
"50 350 CURVE SMOOTH",
"50 157 OFFCURVE",
"197 0 OFFCURVE",
"379 0 CURVE SMOOTH",
"561 0 OFFCURVE",
"709 157 OFFCURVE",
"709 350 CURVE SMOOTH"
);
},
{
closed = 1;
nodes = (
"589 222 OFFCURVE",
"492 120 OFFCURVE",
"379 120 CURVE SMOOTH",
"266 120 OFFCURVE",
"170 221 OFFCURVE",
"170 350 CURVE SMOOTH",
"170 479 OFFCURVE",
"266 580 OFFCURVE",
"379 580 CURVE SMOOTH",
"492 580 OFFCURVE",
"589 478 OFFCURVE",
"589 350 CURVE SMOOTH"
);
}
);
width = 759;
}
);
note = Ocircumflex;
unicode = 00D4;
},
{
glyphname = Odieresis;
lastChange = "2016-06-29 14:38:01 +0000";
layers = (
{
layerId = "254266E2-2911-423D-9D37-8CC6105656EE";
paths = (
{
closed = 1;
nodes = (
"316 780 OFFCURVE",
"330 795 OFFCURVE",
"330 816 CURVE SMOOTH",
"330 824 LINE SMOOTH",
"330 845 OFFCURVE",
"316 860 OFFCURVE",
"297 860 CURVE SMOOTH",
"276 860 OFFCURVE",
"261 845 OFFCURVE",
"261 824 CURVE SMOOTH",
"261 816 LINE SMOOTH",
"261 795 OFFCURVE",
"275 780 OFFCURVE",
"296 780 CURVE SMOOTH"
);
},
{
closed = 1;
nodes = (
"479 780 OFFCURVE",
"493 795 OFFCURVE",
"493 816 CURVE SMOOTH",
"493 824 LINE SMOOTH",
"493 845 OFFCURVE",
"479 860 OFFCURVE",
"460 860 CURVE SMOOTH",
"439 860 OFFCURVE",
"424 845 OFFCURVE",
"424 824 CURVE SMOOTH",
"424 816 LINE SMOOTH",
"424 795 OFFCURVE",
"438 780 OFFCURVE",
"459 780 CURVE SMOOTH"
);
},
{
closed = 1;
nodes = (
"708 553 OFFCURVE",
"561 710 OFFCURVE",
"379 710 CURVE SMOOTH",
"197 710 OFFCURVE",
"50 553 OFFCURVE",
"50 350 CURVE SMOOTH",
"50 147 OFFCURVE",
"197 -10 OFFCURVE",
"379 -10 CURVE SMOOTH",
"561 -10 OFFCURVE",
"708 147 OFFCURVE",
"708 350 CURVE SMOOTH"
);
},
{
closed = 1;
nodes = (
"668 169 OFFCURVE",
"538 30 OFFCURVE",
"379 30 CURVE SMOOTH",
"220 30 OFFCURVE",
"90 169 OFFCURVE",
"90 350 CURVE SMOOTH",
"90 531 OFFCURVE",
"220 670 OFFCURVE",
"379 670 CURVE SMOOTH",
"538 670 OFFCURVE",
"668 531 OFFCURVE",
"668 350 CURVE SMOOTH"
);
}
);
width = 758;
},
{
layerId = "8816CCA3-DDF9-4C51-BD56-64EE3675A105";
paths = (
{
closed = 1;
nodes = (
"216 830 LINE SMOOTH",
"216 797 OFFCURVE",
"234 780 OFFCURVE",
"266 780 CURVE SMOOTH",
"289 780 LINE SMOOTH",
"322 780 OFFCURVE",
"339 797 OFFCURVE",
"339 830 CURVE SMOOTH",
"339 848 LINE SMOOTH",
"339 881 OFFCURVE",
"321 898 OFFCURVE",
"289 898 CURVE SMOOTH",
"266 898 LINE SMOOTH",
"234 898 OFFCURVE",
"216 880 OFFCURVE",
"216 848 CURVE SMOOTH"
);
},
{
closed = 1;
nodes = (
"415 830 LINE SMOOTH",
"415 797 OFFCURVE",
"433 780 OFFCURVE",
"465 780 CURVE SMOOTH",
"488 780 LINE SMOOTH",
"521 780 OFFCURVE",
"538 797 OFFCURVE",
"538 830 CURVE SMOOTH",
"538 848 LINE SMOOTH",
"538 881 OFFCURVE",
"520 898 OFFCURVE",
"488 898 CURVE SMOOTH",
"465 898 LINE SMOOTH",
"433 898 OFFCURVE",
"415 880 OFFCURVE",
"415 848 CURVE SMOOTH"
);
},
{
closed = 1;
nodes = (
"709 543 OFFCURVE",
"561 700 OFFCURVE",
"379 700 CURVE SMOOTH",
"197 700 OFFCURVE",
"50 543 OFFCURVE",
"50 350 CURVE SMOOTH",
"50 157 OFFCURVE",
"197 0 OFFCURVE",
"379 0 CURVE SMOOTH",
"561 0 OFFCURVE",
"709 157 OFFCURVE",
"709 350 CURVE SMOOTH"
);
},
{
closed = 1;
nodes = (
"589 222 OFFCURVE",
"492 120 OFFCURVE",
"379 120 CURVE SMOOTH",
"266 120 OFFCURVE",
"170 221 OFFCURVE",
"170 350 CURVE SMOOTH",
"170 479 OFFCURVE",
"266 580 OFFCURVE",
"379 580 CURVE SMOOTH",
"492 580 OFFCURVE",
"589 478 OFFCURVE",
"589 350 CURVE SMOOTH"
);
}
);
width = 759;
}
);
note = Odieresis;
unicode = 00D6;
},
{
glyphname = Ograve;
lastChange = "2016-06-29 14:38:01 +0000";
layers = (
{
layerId = "254266E2-2911-423D-9D37-8CC6105656EE";
paths = (
{
closed = 1;
nodes = (
"374 790 LINE SMOOTH",
"381 783 OFFCURVE",
"388 780 OFFCURVE",
"397 780 CURVE SMOOTH",
"413 780 OFFCURVE",
"419 791 OFFCURVE",
"410 804 CURVE SMOOTH",
"348 897 LINE SMOOTH",
"341 908 OFFCURVE",
"332 910 OFFCURVE",
"321 905 CURVE",
"299 894 LINE SMOOTH",
"286 887 OFFCURVE",
"284 876 OFFCURVE",
"295 866 CURVE SMOOTH"
);
},
{
closed = 1;
nodes = (
"708 553 OFFCURVE",
"561 710 OFFCURVE",
"379 710 CURVE SMOOTH",
"197 710 OFFCURVE",
"50 553 OFFCURVE",
"50 350 CURVE SMOOTH",
"50 147 OFFCURVE",
"197 -10 OFFCURVE",
"379 -10 CURVE SMOOTH",
"561 -10 OFFCURVE",
"708 147 OFFCURVE",
"708 350 CURVE SMOOTH"
);
},
{
closed = 1;
nodes = (
"668 169 OFFCURVE",
"538 30 OFFCURVE",
"379 30 CURVE SMOOTH",
"220 30 OFFCURVE",
"90 169 OFFCURVE",
"90 350 CURVE SMOOTH",
"90 531 OFFCURVE",
"220 670 OFFCURVE",
"379 670 CURVE SMOOTH",
"538 670 OFFCURVE",
"668 531 OFFCURVE",
"668 350 CURVE SMOOTH"
);
}
);
width = 758;
},
{
layerId = "8816CCA3-DDF9-4C51-BD56-64EE3675A105";
paths = (
{
closed = 1;
nodes = (
"344 805 LINE SMOOTH",
"363 787 OFFCURVE",
"376 780 OFFCURVE",
"392 780 CURVE SMOOTH",
"433 780 OFFCURVE",
"447 806 OFFCURVE",
"425 840 CURVE SMOOTH",
"383 905 LINE SMOOTH",
"366 931 OFFCURVE",
"344 938 OFFCURVE",
"316 925 CURVE",
"306 921 LINE",
"271 905 OFFCURVE",
"266 878 OFFCURVE",
"294 852 CURVE SMOOTH"
);
},
{
closed = 1;
nodes = (
"709 543 OFFCURVE",
"561 700 OFFCURVE",
"379 700 CURVE SMOOTH",
"197 700 OFFCURVE",
"50 543 OFFCURVE",
"50 350 CURVE SMOOTH",
"50 157 OFFCURVE",
"197 0 OFFCURVE",
"379 0 CURVE SMOOTH",
"561 0 OFFCURVE",
"709 157 OFFCURVE",
"709 350 CURVE SMOOTH"
);
},
{
closed = 1;
nodes = (
"589 222 OFFCURVE",
"492 120 OFFCURVE",
"379 120 CURVE SMOOTH",
"266 120 OFFCURVE",
"170 221 OFFCURVE",
"170 350 CURVE SMOOTH",
"170 479 OFFCURVE",
"266 580 OFFCURVE",
"379 580 CURVE SMOOTH",
"492 580 OFFCURVE",
"589 478 OFFCURVE",
"589 350 CURVE SMOOTH"
);
}
);
width = 759;
}
);
note = Ograve;
unicode = 00D2;
},
{
glyphname = Ohungarumlaut;
lastChange = "2016-06-29 14:38:01 +0000";
layers = (
{
layerId = "254266E2-2911-423D-9D37-8CC6105656EE";
paths = (
{
closed = 1;
nodes = (
"308 780 LINE SMOOTH",
"319 780 OFFCURVE",
"326 783 OFFCURVE",
"333 790 CURVE SMOOTH",
"408 867 LINE SMOOTH",
"418 878 OFFCURVE",
"416 888 OFFCURVE",
"403 895 CURVE SMOOTH",
"386 904 LINE SMOOTH",
"375 910 OFFCURVE",
"365 908 OFFCURVE",
"358 897 CURVE SMOOTH",
"296 804 LINE SMOOTH",
"287 791 OFFCURVE",
"289 780 OFFCURVE",
"302 780 CURVE SMOOTH"
);
},
{
closed = 1;
nodes = (
"460 780 LINE SMOOTH",
"471 780 OFFCURVE",
"478 783 OFFCURVE",
"485 790 CURVE SMOOTH",
"560 867 LINE SMOOTH",
"570 878 OFFCURVE",
"568 888 OFFCURVE",
"555 895 CURVE SMOOTH",
"538 904 LINE SMOOTH",
"527 910 OFFCURVE",
"517 908 OFFCURVE",
"510 897 CURVE SMOOTH",
"448 804 LINE SMOOTH",
"439 791 OFFCURVE",
"441 780 OFFCURVE",
"454 780 CURVE SMOOTH"
);
},
{
closed = 1;
nodes = (
"708 553 OFFCURVE",
"561 710 OFFCURVE",
"379 710 CURVE SMOOTH",
"197 710 OFFCURVE",
"50 553 OFFCURVE",
"50 350 CURVE SMOOTH",
"50 147 OFFCURVE",
"197 -10 OFFCURVE",
"379 -10 CURVE SMOOTH",
"561 -10 OFFCURVE",
"708 147 OFFCURVE",
"708 350 CURVE SMOOTH"
);
},
{
closed = 1;
nodes = (
"668 169 OFFCURVE",
"538 30 OFFCURVE",
"379 30 CURVE SMOOTH",
"220 30 OFFCURVE",
"90 169 OFFCURVE",
"90 350 CURVE SMOOTH",
"90 531 OFFCURVE",
"220 670 OFFCURVE",
"379 670 CURVE SMOOTH",
"538 670 OFFCURVE",
"668 531 OFFCURVE",
"668 350 CURVE SMOOTH"
);
}
);
width = 758;
},
{
layerId = "8816CCA3-DDF9-4C51-BD56-64EE3675A105";
paths = (
{
closed = 1;
nodes = (
"271 840 LINE SMOOTH",
"250 806 OFFCURVE",
"256 780 OFFCURVE",
"287 780 CURVE SMOOTH",
"313 780 OFFCURVE",
"330 787 OFFCURVE",
"349 805 CURVE SMOOTH",
"398 852 LINE SMOOTH",
"425 878 OFFCURVE",
"421 905 OFFCURVE",
"386 921 CURVE SMOOTH",
"380 924 LINE",
"351 937 OFFCURVE",
"329 931 OFFCURVE",
"312 904 CURVE SMOOTH"
);
},
{
closed = 1;
nodes = (
"454 840 LINE SMOOTH",
"432 806 OFFCURVE",
"438 780 OFFCURVE",
"469 780 CURVE SMOOTH",
"495 780 OFFCURVE",
"512 787 OFFCURVE",
"531 805 CURVE SMOOTH",
"581 852 LINE SMOOTH",
"609 878 OFFCURVE",
"604 905 OFFCURVE",
"570 921 CURVE",
"563 924 LINE SMOOTH",
"535 937 OFFCURVE",
"512 931 OFFCURVE",
"496 905 CURVE SMOOTH"
);
},
{
closed = 1;
nodes = (
"709 543 OFFCURVE",
"561 700 OFFCURVE",
"379 700 CURVE SMOOTH",
"197 700 OFFCURVE",
"50 543 OFFCURVE",
"50 350 CURVE SMOOTH",
"50 157 OFFCURVE",
"197 0 OFFCURVE",
"379 0 CURVE SMOOTH",
"561 0 OFFCURVE",
"709 157 OFFCURVE",
"709 350 CURVE SMOOTH"
);
},
{
closed = 1;
nodes = (
"589 222 OFFCURVE",
"492 120 OFFCURVE",
"379 120 CURVE SMOOTH",
"266 120 OFFCURVE",
"170 221 OFFCURVE",
"170 350 CURVE SMOOTH",
"170 479 OFFCURVE",
"266 580 OFFCURVE",
"379 580 CURVE SMOOTH",
"492 580 OFFCURVE",
"589 478 OFFCURVE",
"589 350 CURVE SMOOTH"
);
}
);
width = 759;
}
);
note = Ohungarumlaut;
unicode = 0150;
},
{
glyphname = Omacron;
lastChange = "2016-06-29 14:38:01 +0000";
layers = (
{
layerId = "254266E2-2911-423D-9D37-8CC6105656EE";
paths = (
{
closed = 1;
nodes = (
"507 780 LINE SMOOTH",
"520 780 OFFCURVE",
"527 787 OFFCURVE",
"527 800 CURVE SMOOTH",
"527 813 LINE SMOOTH",
"527 826 OFFCURVE",
"520 833 OFFCURVE",
"507 833 CURVE SMOOTH",
"247 833 LINE SMOOTH",
"234 833 OFFCURVE",
"227 826 OFFCURVE",
"227 813 CURVE SMOOTH",
"227 800 LINE SMOOTH",
"227 787 OFFCURVE",
"234 780 OFFCURVE",
"247 780 CURVE SMOOTH"
);
},
{
closed = 1;
nodes = (
"708 553 OFFCURVE",
"561 710 OFFCURVE",
"379 710 CURVE SMOOTH",
"197 710 OFFCURVE",
"50 553 OFFCURVE",
"50 350 CURVE SMOOTH",
"50 147 OFFCURVE",
"197 -10 OFFCURVE",
"379 -10 CURVE SMOOTH",
"561 -10 OFFCURVE",
"708 147 OFFCURVE",
"708 350 CURVE SMOOTH"
);
},
{
closed = 1;
nodes = (
"668 169 OFFCURVE",
"538 30 OFFCURVE",
"379 30 CURVE SMOOTH",
"220 30 OFFCURVE",
"90 169 OFFCURVE",
"90 350 CURVE SMOOTH",
"90 531 OFFCURVE",
"220 670 OFFCURVE",
"379 670 CURVE SMOOTH",
"538 670 OFFCURVE",
"668 531 OFFCURVE",
"668 350 CURVE SMOOTH"
);
}
);
width = 758;
},
{
layerId = "8816CCA3-DDF9-4C51-BD56-64EE3675A105";
paths = (
{
closed = 1;
nodes = (
"206 796 OFFCURVE",
"224 780 OFFCURVE",
"256 780 CURVE SMOOTH",
"498 780 LINE SMOOTH",
"531 780 OFFCURVE",
"548 796 OFFCURVE",
"548 825 CURVE SMOOTH",
"548 853 OFFCURVE",
"530 869 OFFCURVE",
"498 869 CURVE SMOOTH",
"256 869 LINE SMOOTH",
"224 869 OFFCURVE",
"206 853 OFFCURVE",
"206 825 CURVE SMOOTH"
);
},
{
closed = 1;
nodes = (
"709 543 OFFCURVE",
"561 700 OFFCURVE",
"379 700 CURVE SMOOTH",
"197 700 OFFCURVE",
"50 543 OFFCURVE",
"50 350 CURVE SMOOTH",
"50 157 OFFCURVE",
"197 0 OFFCURVE",
"379 0 CURVE SMOOTH",
"561 0 OFFCURVE",
"709 157 OFFCURVE",
"709 350 CURVE SMOOTH"
);
},
{
closed = 1;
nodes = (
"589 222 OFFCURVE",
"492 120 OFFCURVE",
"379 120 CURVE SMOOTH",
"266 120 OFFCURVE",
"170 221 OFFCURVE",
"170 350 CURVE SMOOTH",
"170 479 OFFCURVE",
"266 580 OFFCURVE",
"379 580 CURVE SMOOTH",
"492 580 OFFCURVE",
"589 478 OFFCURVE",
"589 350 CURVE SMOOTH"
);
}
);
width = 759;
}
);
note = Omacron;
unicode = 014C;
},
{
glyphname = Oslash;
lastChange = "2016-06-29 14:38:01 +0000";
layers = (
{
layerId = "254266E2-2911-423D-9D37-8CC6105656EE";
paths = (
{
closed = 1;
nodes = (
"684 707 LINE SMOOTH",
"690 714 OFFCURVE",
"685 720 OFFCURVE",
"673 720 CURVE SMOOTH",
"655 720 LINE SMOOTH",
"646 720 OFFCURVE",
"644 718 OFFCURVE",
"634 706 CURVE SMOOTH",
"568 628 LINE",
"566 625 OFFCURVE",
"564 625 OFFCURVE",
"561 627 CURVE",
"506 673 OFFCURVE",
"436 700 OFFCURVE",
"361 700 CURVE SMOOTH",
"179 700 OFFCURVE",
"32 543 OFFCURVE",
"32 350 CURVE SMOOTH",
"32 255 OFFCURVE",
"68 168 OFFCURVE",
"126 104 CURVE",
"128 102 OFFCURVE",
"128 100 OFFCURVE",
"126 97 CURVE",
"40 -6 LINE",
"31 -18 OFFCURVE",
"35 -20 OFFCURVE",
"50 -20 CURVE SMOOTH",
"68 -20 LINE SMOOTH",
"78 -20 OFFCURVE",
"78 -20 OFFCURVE",
"90 -6 CURVE SMOOTH",
"154 71 LINE",
"156 74 OFFCURVE",
"158 74 OFFCURVE",
"161 72 CURVE",
"216 27 OFFCURVE",
"286 0 OFFCURVE",
"361 0 CURVE SMOOTH",
"543 0 OFFCURVE",
"690 157 OFFCURVE",
"690 350 CURVE SMOOTH",
"690 445 OFFCURVE",
"654 532 OFFCURVE",
"596 595 CURVE",
"594 597 OFFCURVE",
"594 599 OFFCURVE",
"596 602 CURVE"
);
},
{
closed = 1;
nodes = (
"72 521 OFFCURVE",
"202 660 OFFCURVE",
"361 660 CURVE SMOOTH",
"426 660 OFFCURVE",
"487 636 OFFCURVE",
"536 596 CURVE",
"539 594 OFFCURVE",
"539 592 OFFCURVE",
"537 589 CURVE",
"158 136 LINE",
"156 134 OFFCURVE",
"154 133 OFFCURVE",
"151 136 CURVE",
"103 192 OFFCURVE",
"72 267 OFFCURVE",
"72 350 CURVE SMOOTH"
);
},
{
closed = 1;
nodes = (
"296 40 OFFCURVE",
"235 64 OFFCURVE",
"187 103 CURVE",
"184 105 OFFCURVE",
"184 107 OFFCURVE",
"186 110 CURVE",
"564 563 LINE",
"566 565 OFFCURVE",
"568 566 OFFCURVE",
"571 563 CURVE",
"619 507 OFFCURVE",
"650 432 OFFCURVE",
"650 350 CURVE SMOOTH",
"650 179 OFFCURVE",
"520 40 OFFCURVE",
"361 40 CURVE SMOOTH"
);
}
);
width = 721;
},
{
layerId = "8816CCA3-DDF9-4C51-BD56-64EE3675A105";
paths = (
{
closed = 1;
nodes = (
"689 667 LINE SMOOTH",
"707 690 OFFCURVE",
"705 719 OFFCURVE",
"683 737 CURVE SMOOTH",
"660 756 OFFCURVE",
"630 753 OFFCURVE",
"611 730 CURVE SMOOTH",
"554 659 LINE",
"552 657 OFFCURVE",
"549 656 OFFCURVE",
"547 658 CURVE",
"496 691 OFFCURVE",
"437 710 OFFCURVE",
"374 710 CURVE SMOOTH",
"192 710 OFFCURVE",
"45 553 OFFCURVE",
"45 360 CURVE SMOOTH",
"45 274 OFFCURVE",
"74 196 OFFCURVE",
"122 135 CURVE",
"124 132 OFFCURVE",
"124 130 OFFCURVE",
"122 128 CURVE",
"61 52 LINE SMOOTH",
"43 29 OFFCURVE",
"45 0 OFFCURVE",
"67 -18 CURVE SMOOTH",
"90 -37 OFFCURVE",
"120 -34 OFFCURVE",
"139 -11 CURVE SMOOTH",
"196 60 LINE",
"198 62 OFFCURVE",
"201 62 OFFCURVE",
"203 61 CURVE",
"253 29 OFFCURVE",
"311 10 OFFCURVE",
"374 10 CURVE SMOOTH",
"556 10 OFFCURVE",
"704 167 OFFCURVE",
"704 360 CURVE SMOOTH",
"704 445 OFFCURVE",
"675 523 OFFCURVE",
"627 584 CURVE",
"625 586 OFFCURVE",
"625 589 OFFCURVE",
"627 591 CURVE"
);
},
{
closed = 1;
nodes = (
"165 489 OFFCURVE",
"261 590 OFFCURVE",
"374 590 CURVE SMOOTH",
"408 590 OFFCURVE",
"441 581 OFFCURVE",
"470 564 CURVE",
"473 563 OFFCURVE",
"473 560 OFFCURVE",
"471 557 CURVE",
"207 232 LINE",
"205 229 OFFCURVE",
"202 229 OFFCURVE",
"200 233 CURVE",
"178 269 OFFCURVE",
"165 312 OFFCURVE",
"165 360 CURVE SMOOTH"
);
},
{
closed = 1;
nodes = (
"341 130 OFFCURVE",
"309 139 OFFCURVE",
"280 155 CURVE",
"277 156 OFFCURVE",
"277 159 OFFCURVE",
"279 162 CURVE",
"542 486 LINE",
"545 489 OFFCURVE",
"547 489 OFFCURVE",
"549 486 CURVE",
"571 450 OFFCURVE",
"584 407 OFFCURVE",
"584 360 CURVE SMOOTH",
"584 232 OFFCURVE",
"487 130 OFFCURVE",
"374 130 CURVE SMOOTH"
);
}
);
width = 749;
}
);
note = Oslash;
unicode = 00D8;
},
{
glyphname = Otilde;
lastChange = "2016-06-29 14:38:01 +0000";
layers = (
{
layerId = "254266E2-2911-423D-9D37-8CC6105656EE";
paths = (
{
closed = 1;
nodes = (
"497 886 OFFCURVE",
"489 881 OFFCURVE",
"483 869 CURVE SMOOTH",
"472 845 OFFCURVE",
"461 837 OFFCURVE",
"441 837 CURVE SMOOTH",
"407 837 OFFCURVE",
"351 878 OFFCURVE",
"313 878 CURVE SMOOTH",
"277 878 OFFCURVE",
"253 861 OFFCURVE",
"235 806 CURVE",
"231 792 OFFCURVE",
"235 784 OFFCURVE",
"246 781 CURVE SMOOTH",
"257 778 OFFCURVE",
"265 782 OFFCURVE",
"271 794 CURVE SMOOTH",
"282 818 OFFCURVE",
"293 826 OFFCURVE",
"313 826 CURVE SMOOTH",
"347 826 OFFCURVE",
"403 785 OFFCURVE",
"441 785 CURVE SMOOTH",
"477 785 OFFCURVE",
"501 802 OFFCURVE",
"519 858 CURVE SMOOTH",
"523 871 OFFCURVE",
"519 880 OFFCURVE",
"508 883 CURVE SMOOTH"
);
},
{
closed = 1;
nodes = (
"708 553 OFFCURVE",
"561 710 OFFCURVE",
"379 710 CURVE SMOOTH",
"197 710 OFFCURVE",
"50 553 OFFCURVE",
"50 350 CURVE SMOOTH",
"50 147 OFFCURVE",
"197 -10 OFFCURVE",
"379 -10 CURVE SMOOTH",
"561 -10 OFFCURVE",
"708 147 OFFCURVE",
"708 350 CURVE SMOOTH"
);
},
{
closed = 1;
nodes = (
"668 169 OFFCURVE",
"538 30 OFFCURVE",
"379 30 CURVE SMOOTH",
"220 30 OFFCURVE",
"90 169 OFFCURVE",
"90 350 CURVE SMOOTH",
"90 531 OFFCURVE",
"220 670 OFFCURVE",
"379 670 CURVE SMOOTH",
"538 670 OFFCURVE",
"668 531 OFFCURVE",
"668 350 CURVE SMOOTH"
);
}
);
width = 758;
},
{
layerId = "8816CCA3-DDF9-4C51-BD56-64EE3675A105";
paths = (
{
closed = 1;
nodes = (
"244 773 OFFCURVE",
"256 786 OFFCURVE",
"278 808 CURVE SMOOTH",
"286 816 OFFCURVE",
"296 820 OFFCURVE",
"310 820 CURVE SMOOTH",
"346 820 OFFCURVE",
"399 780 OFFCURVE",
"454 780 CURVE SMOOTH",
"501 780 OFFCURVE",
"529 806 OFFCURVE",
"550 856 CURVE SMOOTH",
"563 887 OFFCURVE",
"554 908 OFFCURVE",
"533 915 CURVE SMOOTH",
"510 922 OFFCURVE",
"498 909 OFFCURVE",
"476 886 CURVE",
"468 879 OFFCURVE",
"458 875 OFFCURVE",
"444 875 CURVE SMOOTH",
"408 875 OFFCURVE",
"355 915 OFFCURVE",
"300 915 CURVE SMOOTH",
"253 915 OFFCURVE",
"225 889 OFFCURVE",
"204 839 CURVE SMOOTH",
"191 808 OFFCURVE",
"200 786 OFFCURVE",
"222 780 CURVE"
);
},
{
closed = 1;
nodes = (
"709 543 OFFCURVE",
"561 700 OFFCURVE",
"379 700 CURVE SMOOTH",
"197 700 OFFCURVE",
"50 543 OFFCURVE",
"50 350 CURVE SMOOTH",
"50 157 OFFCURVE",
"197 0 OFFCURVE",
"379 0 CURVE SMOOTH",
"561 0 OFFCURVE",
"709 157 OFFCURVE",
"709 350 CURVE SMOOTH"
);
},
{
closed = 1;
nodes = (
"589 222 OFFCURVE",
"492 120 OFFCURVE",
"379 120 CURVE SMOOTH",
"266 120 OFFCURVE",
"170 221 OFFCURVE",
"170 350 CURVE SMOOTH",
"170 479 OFFCURVE",
"266 580 OFFCURVE",
"379 580 CURVE SMOOTH",
"492 580 OFFCURVE",
"589 478 OFFCURVE",
"589 350 CURVE SMOOTH"
);
}
);
width = 759;
}
);
note = Otilde;
unicode = 00D5;
},
{
glyphname = OE;
lastChange = "2016-06-29 14:38:01 +0000";
layers = (
{
layerId = "254266E2-2911-423D-9D37-8CC6105656EE";
paths = (
{
closed = 1;
nodes = (
"575 40 LINE SMOOTH",
"572 40 OFFCURVE",
"570 42 OFFCURVE",
"570 45 CURVE SMOOTH",
"570 286 LINE SMOOTH",
"570 289 OFFCURVE",
"572 291 OFFCURVE",
"575 291 CURVE SMOOTH",
"872 291 LINE SMOOTH",
"883 291 OFFCURVE",
"892 299 OFFCURVE",
"892 311 CURVE SMOOTH",
"892 322 OFFCURVE",
"883 331 OFFCURVE",
"872 331 CURVE SMOOTH",
"575 331 LINE SMOOTH",
"572 331 OFFCURVE",
"570 333 OFFCURVE",
"570 336 CURVE SMOOTH",
"570 655 LINE SMOOTH",
"570 658 OFFCURVE",
"572 660 OFFCURVE",
"575 660 CURVE SMOOTH",
"917 660 LINE SMOOTH",
"928 660 OFFCURVE",
"937 668 OFFCURVE",
"937 680 CURVE SMOOTH",
"937 691 OFFCURVE",
"928 700 OFFCURVE",
"917 700 CURVE SMOOTH",
"329 700 LINE SMOOTH",
"128 700 OFFCURVE",
"39 532 OFFCURVE",
"39 350 CURVE SMOOTH",
"39 158 OFFCURVE",
"128 0 OFFCURVE",
"329 0 CURVE SMOOTH",
"549 0 LINE",
"550 0 LINE",
"917 0 LINE SMOOTH",
"928 0 OFFCURVE",
"937 8 OFFCURVE",
"937 20 CURVE SMOOTH",
"937 31 OFFCURVE",
"928 40 OFFCURVE",
"917 40 CURVE SMOOTH"
);
},
{
closed = 1;
nodes = (
"529 45 LINE SMOOTH",
"529 42 OFFCURVE",
"527 40 OFFCURVE",
"524 40 CURVE SMOOTH",
"339 40 LINE SMOOTH",
"156 40 OFFCURVE",
"79 177 OFFCURVE",
"79 350 CURVE SMOOTH",
"79 513 OFFCURVE",
"156 660 OFFCURVE",
"339 660 CURVE SMOOTH",
"524 660 LINE SMOOTH",
"527 660 OFFCURVE",
"529 658 OFFCURVE",
"529 655 CURVE SMOOTH"
);
}
);
width = 965;
},
{
layerId = "8816CCA3-DDF9-4C51-BD56-64EE3675A105";
paths = (
{
closed = 1;
nodes = (
"620 120 LINE SMOOTH",
"614 120 OFFCURVE",
"610 124 OFFCURVE",
"610 130 CURVE SMOOTH",
"610 240 LINE SMOOTH",
"610 247 OFFCURVE",
"614 250 OFFCURVE",
"620 250 CURVE SMOOTH",
"831 250 LINE SMOOTH",
"866 250 OFFCURVE",
"892 275 OFFCURVE",
"892 309 CURVE SMOOTH",
"892 344 OFFCURVE",
"866 370 OFFCURVE",
"831 370 CURVE SMOOTH",
"620 370 LINE SMOOTH",
"614 370 OFFCURVE",
"610 374 OFFCURVE",
"610 380 CURVE SMOOTH",
"610 570 LINE SMOOTH",
"610 577 OFFCURVE",
"613 580 OFFCURVE",
"620 580 CURVE SMOOTH",
"876 580 LINE SMOOTH",
"911 580 OFFCURVE",
"937 605 OFFCURVE",
"937 639 CURVE SMOOTH",
"937 674 OFFCURVE",
"911 700 OFFCURVE",
"876 700 CURVE SMOOTH",
"551 700 LINE",
"350 700 LINE SMOOTH",
"157 700 OFFCURVE",
"50 543 OFFCURVE",
"50 350 CURVE SMOOTH",
"50 156 OFFCURVE",
"157 0 OFFCURVE",
"350 0 CURVE SMOOTH",
"549 0 LINE",
"876 0 LINE SMOOTH",
"911 0 OFFCURVE",
"937 25 OFFCURVE",
"937 59 CURVE SMOOTH",
"937 94 OFFCURVE",
"911 120 OFFCURVE",
"876 120 CURVE SMOOTH"
);
},
{
closed = 1;
nodes = (
"350 120 LINE SMOOTH",
"224 120 OFFCURVE",
"170 223 OFFCURVE",
"170 350 CURVE SMOOTH",
"170 476 OFFCURVE",
"224 580 OFFCURVE",
"350 580 CURVE SMOOTH",
"480 580 LINE SMOOTH",
"486 580 OFFCURVE",
"490 577 OFFCURVE",
"490 570 CURVE SMOOTH",
"490 130 LINE SMOOTH",
"490 124 OFFCURVE",
"486 120 OFFCURVE",
"480 120 CURVE SMOOTH"
);
}
);
width = 987;
}
);
note = OE;
unicode = 0152;
},
{
glyphname = P;
lastChange = "2016-06-29 14:38:01 +0000";
layers = (
{
layerId = "254266E2-2911-423D-9D37-8CC6105656EE";
paths = (
{
closed = 1;
nodes = (
"110 700 LINE SMOOTH",
"99 700 OFFCURVE",
"90 691 OFFCURVE",
"90 680 CURVE SMOOTH",
"90 20 LINE SMOOTH",
"90 9 OFFCURVE",
"98 0 OFFCURVE",
"110 0 CURVE SMOOTH",
"121 0 OFFCURVE",
"130 9 OFFCURVE",
"130 20 CURVE SMOOTH",
"130 286 LINE SMOOTH",
"130 289 OFFCURVE",
"132 291 OFFCURVE",
"135 291 CURVE SMOOTH",
"340 291 LINE SMOOTH",
"444 291 OFFCURVE",
"529 390 OFFCURVE",
"529 499 CURVE SMOOTH",
"529 608 OFFCURVE",
"444 700 OFFCURVE",
"340 700 CURVE SMOOTH"
);
},
{
closed = 1;
nodes = (
"135 331 LINE SMOOTH",
"132 331 OFFCURVE",
"130 333 OFFCURVE",
"130 336 CURVE SMOOTH",
"130 655 LINE SMOOTH",
"130 658 OFFCURVE",
"132 660 OFFCURVE",
"135 660 CURVE SMOOTH",
"340 660 LINE SMOOTH",
"422 660 OFFCURVE",
"489 586 OFFCURVE",
"489 499 CURVE SMOOTH",
"489 412 OFFCURVE",
"422 331 OFFCURVE",
"340 331 CURVE SMOOTH"
);
}
);
width = 564;
},
{
layerId = "8816CCA3-DDF9-4C51-BD56-64EE3675A105";
paths = (
{
closed = 1;
nodes = (
"151 700 LINE SMOOTH",
"116 700 OFFCURVE",
"90 674 OFFCURVE",
"90 639 CURVE SMOOTH",
"90 61 LINE SMOOTH",
"90 26 OFFCURVE",
"115 0 OFFCURVE",
"149 0 CURVE SMOOTH",
"184 0 OFFCURVE",
"210 26 OFFCURVE",
"210 61 CURVE SMOOTH",
"210 240 LINE SMOOTH",
"210 247 OFFCURVE",
"214 250 OFFCURVE",
"220 250 CURVE SMOOTH",
"379 250 LINE SMOOTH",
"483 250 OFFCURVE",
"578 351 OFFCURVE",
"578 475 CURVE SMOOTH",
"578 600 OFFCURVE",
"483 700 OFFCURVE",
"379 700 CURVE SMOOTH"
);
},
{
closed = 1;
nodes = (
"220 370 LINE SMOOTH",
"214 370 OFFCURVE",
"210 374 OFFCURVE",
"210 380 CURVE SMOOTH",
"210 570 LINE SMOOTH",
"210 577 OFFCURVE",
"214 580 OFFCURVE",
"220 580 CURVE SMOOTH",
"379 580 LINE SMOOTH",
"417 580 OFFCURVE",
"458 533 OFFCURVE",
"458 475 CURVE SMOOTH",
"458 418 OFFCURVE",
"417 370 OFFCURVE",
"379 370 CURVE SMOOTH"
);
}
);
width = 613;
}
);
note = P;
rightKerningGroup = P;
unicode = 0050;
},
{
glyphname = Thorn;
lastChange = "2016-06-29 14:38:01 +0000";
layers = (
{
layerId = "254266E2-2911-423D-9D37-8CC6105656EE";
paths = (
{
closed = 1;
nodes = (
"461 587 OFFCURVE",
"327 588 OFFCURVE",
"129 588 CURVE SMOOTH",
"125 588 OFFCURVE",
"123 590 OFFCURVE",
"123 593 CURVE SMOOTH",
"123 720 LINE SMOOTH",
"123 731 OFFCURVE",
"115 740 OFFCURVE",
"103 740 CURVE SMOOTH",
"92 740 OFFCURVE",
"83 731 OFFCURVE",
"83 720 CURVE SMOOTH",
"83 20 LINE SMOOTH",
"83 9 OFFCURVE",
"91 0 OFFCURVE",
"103 0 CURVE SMOOTH",
"114 0 OFFCURVE",
"123 9 OFFCURVE",
"123 20 CURVE SMOOTH",
"123 149 LINE SMOOTH",
"123 152 OFFCURVE",
"125 154 OFFCURVE",
"128 154 CURVE SMOOTH",
"319 154 OFFCURVE",
"461 156 OFFCURVE",
"461 371 CURVE SMOOTH"
);
},
{
closed = 1;
nodes = (
"123 543 LINE SMOOTH",
"123 546 OFFCURVE",
"125 548 OFFCURVE",
"128 548 CURVE SMOOTH",
"290 550 OFFCURVE",
"421 566 OFFCURVE",
"421 371 CURVE SMOOTH",
"421 174 OFFCURVE",
"290 192 OFFCURVE",
"128 194 CURVE SMOOTH",
"125 194 OFFCURVE",
"123 196 OFFCURVE",
"123 199 CURVE SMOOTH"
);
}
);
width = 489;
},
{
layerId = "8816CCA3-DDF9-4C51-BD56-64EE3675A105";
paths = (
{
closed = 1;
nodes = (
"539 576 OFFCURVE",
"388 589 OFFCURVE",
"210 590 CURVE",
"210 679 LINE SMOOTH",
"210 714 OFFCURVE",
"186 740 OFFCURVE",
"151 740 CURVE SMOOTH",
"116 740 OFFCURVE",
"90 714 OFFCURVE",
"90 679 CURVE SMOOTH",
"90 61 LINE SMOOTH",
"90 26 OFFCURVE",
"114 0 OFFCURVE",
"149 0 CURVE SMOOTH",
"184 0 OFFCURVE",
"210 26 OFFCURVE",
"210 61 CURVE SMOOTH",
"210 152 LINE",
"380 153 OFFCURVE",
"539 166 OFFCURVE",
"539 371 CURVE SMOOTH"
);
},
{
closed = 1;
nodes = (
"210 470 LINE",
"348 471 OFFCURVE",
"419 469 OFFCURVE",
"419 371 CURVE SMOOTH",
"419 272 OFFCURVE",
"348 271 OFFCURVE",
"210 272 CURVE"
);
}
);
width = 574;
}
);
note = Thorn;
unicode = 00DE;
},
{
glyphname = Q;
lastChange = "2016-06-29 14:38:01 +0000";
layers = (
{
layerId = "254266E2-2911-423D-9D37-8CC6105656EE";
paths = (
{
closed = 1;
nodes = (
"791 -44 OFFCURVE",
"780 -45 OFFCURVE",
"773 -52 CURVE",
"731 -88 OFFCURVE",
"641 -127 OFFCURVE",
"589 -127 CURVE SMOOTH",
"531 -127 OFFCURVE",
"506 -112 OFFCURVE",
"441 -73 CURVE SMOOTH",
"415 -58 OFFCURVE",
"388 -49 OFFCURVE",
"362 -45 CURVE",
"357 -44 OFFCURVE",
"356 -41 OFFCURVE",
"361 -39 CURVE",
"521 34 LINE",
"523 35 LINE SMOOTH",
"633 92 OFFCURVE",
"709 212 OFFCURVE",
"709 350 CURVE SMOOTH",
"709 543 OFFCURVE",
"561 700 OFFCURVE",
"379 700 CURVE SMOOTH",
"198 700 OFFCURVE",
"50 543 OFFCURVE",
"50 350 CURVE SMOOTH",
"50 171 OFFCURVE",
"177 23 OFFCURVE",
"340 3 CURVE",
"344 2 OFFCURVE",
"345 -2 OFFCURVE",
"340 -4 CURVE",
"215 -60 LINE",
"205 -64 OFFCURVE",
"201 -78 OFFCURVE",
"207 -88 CURVE",
"210 -95 OFFCURVE",
"217 -98 OFFCURVE",
"224 -98 CURVE SMOOTH",
"228 -98 OFFCURVE",
"231 -97 OFFCURVE",
"234 -96 CURVE",
"277 -79 OFFCURVE",
"356 -69 OFFCURVE",
"421 -107 CURVE SMOOTH",
"485 -146 OFFCURVE",
"520 -167 OFFCURVE",
"589 -167 CURVE SMOOTH",
"648 -167 OFFCURVE",
"752 -122 OFFCURVE",
"800 -80 CURVE",
"810 -72 OFFCURVE",
"809 -58 OFFCURVE",
"799 -50 CURVE SMOOTH"
);
},
{
closed = 1;
nodes = (
"90 521 OFFCURVE",
"221 660 OFFCURVE",
"379 660 CURVE SMOOTH",
"538 660 OFFCURVE",
"669 521 OFFCURVE",
"669 350 CURVE SMOOTH",
"669 179 OFFCURVE",
"538 40 OFFCURVE",
"379 40 CURVE SMOOTH",
"221 40 OFFCURVE",
"90 179 OFFCURVE",
"90 350 CURVE SMOOTH"
);
}
);
width = 757;
},
{
layerId = "8816CCA3-DDF9-4C51-BD56-64EE3675A105";
paths = (
{
closed = 1;
nodes = (
"552 52 LINE",
"646 114 OFFCURVE",
"709 224 OFFCURVE",
"709 350 CURVE SMOOTH",
"709 543 OFFCURVE",
"561 700 OFFCURVE",
"379 700 CURVE SMOOTH",
"197 700 OFFCURVE",
"50 543 OFFCURVE",
"50 350 CURVE SMOOTH",
"50 203 OFFCURVE",
"135 77 OFFCURVE",
"256 25 CURVE",
"264 22 OFFCURVE",
"264 16 OFFCURVE",
"257 12 CURVE",
"204 -21 LINE",
"195 -26 LINE",
"171 -44 OFFCURVE",
"164 -77 OFFCURVE",
"179 -105 CURVE SMOOTH",
"190 -125 OFFCURVE",
"208 -135 OFFCURVE",
"229 -135 CURVE SMOOTH",
"238 -135 LINE",
"244 -134 OFFCURVE",
"249 -133 OFFCURVE",
"255 -131 CURVE SMOOTH",
"311 -113 OFFCURVE",
"359 -96 OFFCURVE",
"413 -131 CURVE SMOOTH",
"470 -168 OFFCURVE",
"522 -191 OFFCURVE",
"595 -191 CURVE SMOOTH",
"669 -191 OFFCURVE",
"757 -145 OFFCURVE",
"803 -111 CURVE SMOOTH",
"832 -90 OFFCURVE",
"837 -52 OFFCURVE",
"813 -25 CURVE SMOOTH",
"790 1 OFFCURVE",
"763 2 OFFCURVE",
"732 -18 CURVE SMOOTH",
"699 -40 OFFCURVE",
"661 -71 OFFCURVE",
"605 -71 CURVE SMOOTH",
"546 -71 OFFCURVE",
"513 -48 OFFCURVE",
"460 -21 CURVE",
"451 -16 OFFCURVE",
"447 -12 OFFCURVE",
"460 -4 CURVE SMOOTH"
);
},
{
closed = 1;
nodes = (
"472 144 LINE",
"444 129 OFFCURVE",
"412 120 OFFCURVE",
"379 120 CURVE SMOOTH",
"266 120 OFFCURVE",
"170 221 OFFCURVE",
"170 350 CURVE SMOOTH",
"170 479 OFFCURVE",
"266 580 OFFCURVE",
"379 580 CURVE SMOOTH",
"492 580 OFFCURVE",
"589 478 OFFCURVE",
"589 350 CURVE SMOOTH",
"589 268 OFFCURVE",
"549 196 OFFCURVE",
"490 155 CURVE"
);
}
);
width = 778;
}
);
leftKerningGroup = C;
note = Q;
rightKerningGroup = D;
unicode = 0051;
},
{
glyphname = R;
lastChange = "2016-06-29 14:38:01 +0000";
layers = (
{
layerId = "254266E2-2911-423D-9D37-8CC6105656EE";
paths = (
{
closed = 1;
nodes = (
"524 254 OFFCURVE",
"478 296 OFFCURVE",
"428 316 CURVE",
"426 317 OFFCURVE",
"427 319 OFFCURVE",
"430 321 CURVE",
"495 356 OFFCURVE",
"542 421 OFFCURVE",
"542 496 CURVE SMOOTH",
"542 609 OFFCURVE",
"446 700 OFFCURVE",
"334 700 CURVE SMOOTH",
"110 700 LINE SMOOTH",
"99 700 OFFCURVE",
"90 691 OFFCURVE",
"90 680 CURVE SMOOTH",
"90 20 LINE SMOOTH",
"90 9 OFFCURVE",
"98 0 OFFCURVE",
"110 0 CURVE SMOOTH",
"121 0 OFFCURVE",
"130 9 OFFCURVE",
"130 20 CURVE SMOOTH",
"130 288 LINE SMOOTH",
"130 291 OFFCURVE",
"132 293 OFFCURVE",
"135 293 CURVE SMOOTH",
"331 293 LINE SMOOTH",
"390 293 OFFCURVE",
"484 275 OFFCURVE",
"484 160 CURVE SMOOTH",
"484 46 OFFCURVE",
"513 18 OFFCURVE",
"541 3 CURVE SMOOTH",
"552 -3 OFFCURVE",
"564 3 OFFCURVE",
"568 15 CURVE SMOOTH",
"571 25 OFFCURVE",
"566 34 OFFCURVE",
"558 39 CURVE SMOOTH",
"538 51 OFFCURVE",
"524 70 OFFCURVE",
"524 160 CURVE SMOOTH"
);
},
{
closed = 1;
nodes = (
"135 333 LINE SMOOTH",
"132 333 OFFCURVE",
"130 335 OFFCURVE",
"130 338 CURVE SMOOTH",
"130 655 LINE SMOOTH",
"130 658 OFFCURVE",
"132 660 OFFCURVE",
"135 660 CURVE SMOOTH",
"334 660 LINE SMOOTH",
"428 660 OFFCURVE",
"502 590 OFFCURVE",
"502 496 CURVE SMOOTH",
"502 403 OFFCURVE",
"418 333 OFFCURVE",
"324 333 CURVE SMOOTH"
);
}
);
width = 609;
},
{
layerId = "8816CCA3-DDF9-4C51-BD56-64EE3675A105";
paths = (
{
closed = 1;
nodes = (
"151 700 LINE SMOOTH",
"116 700 OFFCURVE",
"90 674 OFFCURVE",
"90 639 CURVE SMOOTH",
"90 61 LINE SMOOTH",
"90 26 OFFCURVE",
"115 0 OFFCURVE",
"149 0 CURVE SMOOTH",
"184 0 OFFCURVE",
"210 26 OFFCURVE",
"210 61 CURVE SMOOTH",
"210 265 LINE SMOOTH",
"210 272 OFFCURVE",
"214 275 OFFCURVE",
"220 275 CURVE SMOOTH",
"342 275 LINE SMOOTH",
"402 275 OFFCURVE",
"433 239 OFFCURVE",
"433 187 CURVE SMOOTH",
"433 77 OFFCURVE",
"470 31 OFFCURVE",
"505 10 CURVE SMOOTH",
"527 -3 OFFCURVE",
"573 -9 OFFCURVE",
"595 17 CURVE SMOOTH",
"617 42 OFFCURVE",
"608 81 OFFCURVE",
"579 98 CURVE SMOOTH",
"553 113 OFFCURVE",
"556 148 OFFCURVE",
"550 204 CURVE SMOOTH",
"545 247 OFFCURVE",
"534 281 OFFCURVE",
"486 316 CURVE",
"480 320 OFFCURVE",
"480 326 OFFCURVE",
"486 330 CURVE",
"539 362 OFFCURVE",
"578 417 OFFCURVE",
"578 485 CURVE SMOOTH",
"578 610 OFFCURVE",
"483 700 OFFCURVE",
"379 700 CURVE SMOOTH"
);
},
{
closed = 1;
nodes = (
"220 384 LINE SMOOTH",
"214 384 OFFCURVE",
"210 388 OFFCURVE",
"210 394 CURVE SMOOTH",
"210 570 LINE SMOOTH",
"210 577 OFFCURVE",
"214 580 OFFCURVE",
"220 580 CURVE SMOOTH",
"379 580 LINE SMOOTH",
"417 580 OFFCURVE",
"458 540 OFFCURVE",
"458 482 CURVE SMOOTH",
"458 425 OFFCURVE",
"417 384 OFFCURVE",
"379 384 CURVE SMOOTH"
);
}
);
width = 647;
}
);
note = R;
rightKerningGroup = R;
unicode = 0052;
},
{
glyphname = Racute;
lastChange = "2016-06-29 14:38:01 +0000";
layers = (
{
layerId = "254266E2-2911-423D-9D37-8CC6105656EE";
paths = (
{
closed = 1;
nodes = (
"233 780 LINE SMOOTH",
"243 780 OFFCURVE",
"250 783 OFFCURVE",
"257 790 CURVE SMOOTH",
"336 866 LINE SMOOTH",
"347 876 OFFCURVE",
"345 887 OFFCURVE",
"332 894 CURVE SMOOTH",
"310 905 LINE",
"299 910 OFFCURVE",
"290 908 OFFCURVE",
"283 897 CURVE SMOOTH",
"221 804 LINE SMOOTH",
"212 791 OFFCURVE",
"214 780 OFFCURVE",
"226 780 CURVE SMOOTH"
);
},
{
closed = 1;
nodes = (
"524 254 OFFCURVE",
"478 296 OFFCURVE",
"428 316 CURVE",
"426 317 OFFCURVE",
"427 319 OFFCURVE",
"430 321 CURVE",
"495 356 OFFCURVE",
"542 421 OFFCURVE",
"542 496 CURVE SMOOTH",
"542 609 OFFCURVE",
"446 700 OFFCURVE",
"334 700 CURVE SMOOTH",
"110 700 LINE SMOOTH",
"99 700 OFFCURVE",
"90 691 OFFCURVE",
"90 680 CURVE SMOOTH",
"90 20 LINE SMOOTH",
"90 9 OFFCURVE",
"98 0 OFFCURVE",
"110 0 CURVE SMOOTH",
"121 0 OFFCURVE",
"130 9 OFFCURVE",
"130 20 CURVE SMOOTH",
"130 288 LINE SMOOTH",
"130 291 OFFCURVE",
"132 293 OFFCURVE",
"135 293 CURVE SMOOTH",
"331 293 LINE SMOOTH",
"390 293 OFFCURVE",
"484 275 OFFCURVE",
"484 160 CURVE SMOOTH",
"484 46 OFFCURVE",
"513 18 OFFCURVE",
"541 3 CURVE SMOOTH",
"552 -3 OFFCURVE",
"564 3 OFFCURVE",
"568 15 CURVE SMOOTH",
"571 25 OFFCURVE",
"566 34 OFFCURVE",
"558 39 CURVE SMOOTH",
"538 51 OFFCURVE",
"524 70 OFFCURVE",
"524 160 CURVE SMOOTH"
);
},
{
closed = 1;
nodes = (
"135 333 LINE SMOOTH",
"132 333 OFFCURVE",
"130 335 OFFCURVE",
"130 338 CURVE SMOOTH",
"130 655 LINE SMOOTH",
"130 658 OFFCURVE",
"132 660 OFFCURVE",
"135 660 CURVE SMOOTH",
"334 660 LINE SMOOTH",
"428 660 OFFCURVE",
"502 590 OFFCURVE",
"502 496 CURVE SMOOTH",
"502 403 OFFCURVE",
"418 333 OFFCURVE",
"324 333 CURVE SMOOTH"
);
}
);
width = 570;
},
{
layerId = "8816CCA3-DDF9-4C51-BD56-64EE3675A105";
paths = (
{
closed = 1;
nodes = (
"257 840 LINE SMOOTH",
"235 806 OFFCURVE",
"243 780 OFFCURVE",
"276 780 CURVE SMOOTH",
"302 780 OFFCURVE",
"319 787 OFFCURVE",
"338 805 CURVE SMOOTH",
"388 852 LINE SMOOTH",
"416 878 OFFCURVE",
"411 905 OFFCURVE",
"376 921 CURVE",
"366 925 LINE",
"338 938 OFFCURVE",
"316 931 OFFCURVE",
"299 905 CURVE SMOOTH"
);
},
{
closed = 1;
nodes = (
"151 700 LINE SMOOTH",
"116 700 OFFCURVE",
"90 674 OFFCURVE",
"90 639 CURVE SMOOTH",
"90 61 LINE SMOOTH",
"90 26 OFFCURVE",
"115 0 OFFCURVE",
"149 0 CURVE SMOOTH",
"184 0 OFFCURVE",
"210 26 OFFCURVE",
"210 61 CURVE SMOOTH",
"210 265 LINE SMOOTH",
"210 272 OFFCURVE",
"214 275 OFFCURVE",
"220 275 CURVE SMOOTH",
"342 275 LINE SMOOTH",
"402 275 OFFCURVE",
"433 239 OFFCURVE",
"433 187 CURVE SMOOTH",
"433 77 OFFCURVE",
"470 31 OFFCURVE",
"505 10 CURVE SMOOTH",
"527 -3 OFFCURVE",
"573 -9 OFFCURVE",
"595 17 CURVE SMOOTH",
"617 42 OFFCURVE",
"608 81 OFFCURVE",
"579 98 CURVE SMOOTH",
"553 113 OFFCURVE",
"556 148 OFFCURVE",
"550 204 CURVE SMOOTH",
"545 247 OFFCURVE",
"534 281 OFFCURVE",
"486 316 CURVE",
"480 320 OFFCURVE",
"480 326 OFFCURVE",
"486 330 CURVE",
"539 362 OFFCURVE",
"578 417 OFFCURVE",
"578 485 CURVE SMOOTH",
"578 610 OFFCURVE",
"483 700 OFFCURVE",
"379 700 CURVE SMOOTH"
);
},
{
closed = 1;
nodes = (
"220 384 LINE SMOOTH",
"214 384 OFFCURVE",
"210 388 OFFCURVE",
"210 394 CURVE SMOOTH",
"210 570 LINE SMOOTH",
"210 577 OFFCURVE",
"214 580 OFFCURVE",
"220 580 CURVE SMOOTH",
"379 580 LINE SMOOTH",
"417 580 OFFCURVE",
"458 540 OFFCURVE",
"458 482 CURVE SMOOTH",
"458 425 OFFCURVE",
"417 384 OFFCURVE",
"379 384 CURVE SMOOTH"
);
}
);
width = 647;
}
);
note = Racute;
unicode = 0154;
},
